<?xml version="1.0" encoding="UTF-8"?>
<svg id="a" data-name="图层 1" xmlns="http://www.w3.org/2000/svg" viewBox="0 0 336 341">
  <defs>
    <style>
      .b {
        fill: none;
      }

      .b, .c, .d, .e, .f, .g {
        stroke-width: 0px;
      }

      .c {
        fill: #c7c7c7;
      }

      .d {
        fill: #3f4040;
      }

      .e {
        fill: #8f8f8f;
      }

      .f {
        fill: #ccc;
      }

      .g {
        fill: #0f0f11;
      }
    </style>
  </defs>
  <path class="g" d="M209.2,95.41c.36.08.53.3.51.66-.05.92.43,1.41,1.28,1.6.35.09.5.31.45.66-.27,2.36,1.31,3.94,2.36,5.78,17.52,30.5,19.54,61.47,3.43,93.25-2.66,5.25-7.28,9.43-8.3,15.52l-.15.17c-3.36.52-5.11,2.5-5.3,5.9l-.23.22c-3.35,1.22-6.61,2.54-7.53,6.57l-.18.14c-1.14-.06-1.87.44-2.1,1.6l-.16.12c-1.12-.06-1.87.38-2.12,1.53-17.15,11.89-36.12,17.11-56.92,15.59-1.19-1.19-2.51-.97-3.86-.36l-.17-.02c-1.14-1.27-2.46-1.13-3.84-.51l-.18-.02c.07-.58.14-1.16.21-1.73,1.86-1.92,3.98-.38,5.97-.43.51.65,1.11.73,1.8.31,1.15-.04,2.29-.09,3.44-.13,1.03.97,2.09.84,3.16.08,10.45-1.01,20.78-2.62,30.62-6.52,13.36-4.32,23.56-12.79,31.49-24.24.71-1.03,1.68-2.12.47-3.38-1.55-1.63-2.74-.1-3.83.69-4.11,3.02-8.07,6.27-12.22,9.23-31.66,22.58-75.24,18.67-102.76-8.92-13.7-13.74-21.8-30.25-25.66-49.11-.34-1.65.13-4.44-2.74-4.19-2.34.21-2.51,2.62-2.9,4.46-.21,1.02.08,2.13-.05,3.18-.59,4.8.67,9.56.66,14.35-3.67-9.67-3.17-19.57-2.9-29.61.65-24.04,9.49-44.44,26.21-61.15,25.75-25.75,72.47-30.91,104.2-12.8,6.81,3.89,12.07,10.01,19.58,12.64,0,0,.12.11.12.11.3,1.79.94,3.26,3.13,3.17,0,0,.1.1.1.1.43,2.09,1.09,3.97,3.7,4.02,0,0,.1.11.1.11-.09.84.35,1.24,1.13,1.35Z"/>
  <path class="c" d="M134.22,244.73c20.81,1.52,39.77-3.7,56.92-15.59,1.04-.04,1.82-.46,2.13-1.53,0,0,.16-.12.16-.12,1.07-.05,1.8-.54,2.1-1.6,0,0,.18-.14.18-.14,3.09-1.52,5.66-3.63,7.53-6.57,0,0,.23-.22.23-.22,2.41-1.39,4.24-3.3,5.31-5.9,0,0,.15-.17.14-.17,17.65-20,23.41-43.69,20.92-69.77-1.51-15.79-7.9-29.89-16.12-43.24,5.85.3,8.11,5.07,10.74,9.1,1.48,2.27,1.86,5.71,5.62,4.56,3.41-1.04,2.39-3.99,1.98-6.49-.71-4.37,1.11-8.37,1.79-12.53.17-1.01.76-2.06,2.05-2.08,1.27-.02,1.94,1.04,2.28,1.94.74,1.97,1.42,4.03,1.68,6.11.43,3.55,1.51,7.07,4.3,9.01,7.1,4.93,9.29,12.59,11.21,20.07,1.94,7.54,4.31,15.22,2.71,23.31-.73,3.68.71,6.92,2.43,10.28,6.1,11.9,12,23.9,9.78,38.07-.57,3.66-1.06,5.39-4.95,3.06-4.47-2.68-9.6-4.3-13.08-8.5.66-6.4.18-12.11-4.62-17.49-3.25-3.65-7.59-7.64-6.42-13.9.44-2.36-1.51-4.36-2.54-6.45-.48-.98-1.27-1.87-2.44-1.67-1.41.23-1.13,1.51-1.17,2.55-.15,3.81-.32,7.63-.48,11.44-2.57,10.05-5.67,19.92-10.13,29.31-1.99,2.63-5.48,6.46-2.58,8.55,3.32,2.4,4.08-3.57,6.54-5.17.18-.11.32-.28.48-.42.39-.07.78-.15,1.17-.22.41,5.05-5.33,8.38-3.79,13.75-6.04-5.09-10.72-4.13-15.37,2.39-6.87,9.63-17.69,14.53-27.05,21.15-1.03.24-2.15.29-3.09.74-17.02,8.11-35.03,9.91-53.56,8.45-2.47-2.12-5.6-1.76-8.48-2.12-1.83-.23-3.95.82-2.66,2.96,5.58,9.25,13.24,17.08,21.05,24.1,4.02,3.61,11.87,5.53,18.72,3.63,2.3-.13,4.63-.1,6.91-.42,9.1-1.3,18.28-.95,27.34-4.01,12.42-4.2,24.31-9.35,36.02-15.1.45,2.7-1.12,4.34-2.92,5.96-6.34,5.71-13.89,9.49-21.52,12.93-9.85,4.44-20.38,6.8-31.05,8.46-1.34.21-3.42.07-3.2,2.18.14,1.37,1.72,1.58,3.07,1.65,15.23.82,30.28-.77,43.24-9.09,11.88-7.62,24.33-14.48,35.29-23.53,2.09-1.73,4.29-2.35,7.06-1.79,3.72.75,7.52,1.29,11.06-1.06,1.55-1.03,2.79-.03,3.72,1.32-11.27,16.35-25.83,29.24-42.82,39.05-29.17,16.83-60.74,24.08-94.38,20.86-8.04-.77-16.62-.18-23.73-5.47,8.6-1.95,17.24,1.76,25.86-.09,1.42-.31,2.95-.09,4.41-.24,2.37-.26,4.08-1.67,4.5-3.92.45-2.46-1.96-2.87-3.52-3.87-16.64-10.68-33.37-21.3-42.97-39.65-2.85-5.45-5.31-11.1-7.85-16.71-2.04-4.51-2.33-9.06.28-13.51,6.04,2.45,11.25,6.82,17.89,7.87.91.32,1.81.64,2.72.96,2.49,1.63,5.22,2.4,8.18,2.35,1,.22,2.01.43,3.01.65,1.14.78,2.35,1.22,3.72.68,0,0,.18.02.18.02,1.18.91,2.48.97,3.84.51,0,0,.17.02.17.02,1.22.9,2.52.86,3.87.36Z"/>
  <path class="e" d="M109.94,309.32c7.11,5.29,15.69,4.7,23.73,5.47,33.63,3.21,65.21-4.03,94.38-20.86,17-9.81,31.56-22.7,42.82-39.05,9.68-12.32,18.92-24.88,22.31-40.69,1.4-2.02,1.76-4.28,1.49-6.68,1.05-.34,1.92-.91,2.19-2.07,2.86-12.36,6.08-24.67,5.67-37.54-.08-.73-.17-1.45-.25-2.18,1.84-1.81.66-3.72.17-5.6-.17-1.16-.34-2.32-.5-3.48,1.5-1.3.95-2.81.41-4.31-.4-2.43-.8-4.86-1.2-7.29,2.03-2.71.1-5.33-.17-7.99-.6-3.26-1.19-6.53-1.79-9.79-1.4-3.28,1-8.16-4.13-9.87-.17-.84-.33-1.67-.5-2.51,1.28-2.47,1.01-4.6-1.38-6.26-.15-.77-.31-1.55-.46-2.32-.09-1.15-.43-2.12-1.67-2.49-.18-.76-.35-1.53-.53-2.29-.1-1.68-.97-2.48-2.65-2.39-3.73-10.49-10.01-19.36-17.21-27.68-4.22-4.87-9.72-8.76-11.88-15.26,5.34.96,7.3,6.03,10.9,9.1,12.98,11.07,22.17,24.87,28.31,40.76.79,2.04,1.55,3.94,3.62,4.97.44,2.81,1.62,5.47,3.64,7.24,4.74,4.14,6.51,9.68,8.23,15.34-1.59,2.26-.01,2.33,1.62,2.36.74,3.76,1.47,7.52,2.21,11.28-1.42,1.59-1.18,2.85.73,3.79.39,2.1.77,4.19,1.16,6.29-1.45,1.56-1.23,2.83.66,3.81-.01,2.17-.02,4.34-.04,6.51-.3.76-.79,1.5-.88,2.29-2.32,18.95-4.27,37.93-12.65,55.54-2.41,5.06-5.57,10.13-5.19,16.21-.16,1.73-.32,3.46-.48,5.19-1.67.35-2.36,1.35-1.94,3.05-.29.9-.58,1.8-.86,2.7-3.64,2.59-5.53,6.75-8.61,9.94-5.69,5.87-13.04,10.02-17.56,17.06-10.31,7.87-21.23,14.83-32.16,21.78-8.23,3.75-16.61,7.2-24.64,11.34-8.18,4.22-16.71,7.47-25.8,7.83-8.68.34-17.26,1.64-25.76,2.78-10.71,1.44-21.08,1.08-31.49-1.04-8.25-1.68-16.4-3.9-24.6-5.87-2.4-1.29-4.8-2.59-7.2-3.88-1-1.64-2.44-2.21-4.28-1.8-1.16-1.5-2.68-2.45-4.46-3-.07-.45-.14-.9-.22-1.35l.15-.21c1.28-.25,2.56-.5,3.84-.75,4.97,1.28,9.36,4.82,14.89,3.88Z"/>
  <path class="f" d="M293.18,214.2c-3.4,15.81-12.64,28.37-22.31,40.69-.93-1.35-2.17-2.35-3.72-1.32-3.54,2.35-7.34,1.8-11.06,1.06-2.77-.56-4.97.07-7.06,1.79-10.96,9.04-23.41,15.9-35.29,23.53-12.96,8.32-28,9.91-43.24,9.09-1.35-.07-2.93-.28-3.07-1.65-.22-2.11,1.86-1.98,3.2-2.18,10.67-1.66,21.2-4.02,31.05-8.46,7.63-3.44,15.18-7.22,21.52-12.93,1.8-1.62,3.37-3.27,2.92-5.96.77-3.58,3.09-6.36,4.82-9.45,1.39-2.48.7-5.07-.6-7.26-1.65-2.78-3.62-.26-5.51,0-11.26,1.54-22.57,3.96-33.87.65-2.35-.69-5.81,1.94-7.1-2.16,9.37-6.62,20.18-11.52,27.05-21.15,4.65-6.51,9.33-7.48,15.37-2.39,12.43,4.74,23.64,11.94,35.39,18.03,1.68.87,3.29,1.9,5.01,2.69,1.2.55,2.63.52,3.57-.44,1.36-1.39-.4-2.07-.91-3.09-1.78-3.54,3.73-20.83,7.22-21.75,3.32-.87,5.44,1.52,6.56,4.49.33.89-.16,2.07-.15,3.11.03,2.69-3.79,6.45.04,7.76,3.62,1.24,4.15-3.6,5.65-6.2,1.31-2.28,1.21-5.62,4.52-6.49Z"/>
  <path class="d" d="M108.53,239.2c-6.65-1.05-11.85-5.42-17.89-7.87-21.88-14.87-36.73-34.68-41.9-61.05-7.43-37.83,7.71-74.66,38.64-94.6,31.81-20.51,73.61-19.52,104.29,2.68,3.29,2.38,7.81,3.61,9.25,8.19-7.51-2.63-12.78-8.75-19.58-12.64-31.72-18.11-78.45-12.95-104.2,12.8-16.72,16.72-25.56,37.11-26.21,61.15-.27,10.04-.77,19.93,2.9,29.61.01-4.79-1.25-9.55-.66-14.35.13-1.05-.16-2.16.05-3.18.38-1.84.56-4.25,2.9-4.46,2.87-.26,2.4,2.54,2.74,4.19,3.86,18.85,11.96,35.37,25.66,49.11,27.52,27.59,71.1,31.5,102.76,8.92,4.15-2.96,8.11-6.21,12.22-9.23,1.08-.79,2.27-2.32,3.83-.69,1.21,1.27.25,2.35-.47,3.38-7.93,11.44-18.13,19.92-31.49,24.24-.06-.99,3.34-2.13.12-2.83-1.72-.37-3.78.39-5.58.96-11.67,3.69-23.61,4.63-35.6,2.56-36.74-6.33-59.64-29.28-73.63-62.49,2.03,16.4,9.85,30.05,21.46,41.85,5.71,5.8,12.58,10.05,18.85,15.09-.21.4-.42.79-.63,1.19l.92.24s-.35-.01-.35-.01c.88,1.45,2.17,1.14,3.46.84,1.07-.7,1.69-.1,2.23.77-.25.33-.5.65-.74.98.38.07.76.15,1.13.22l-.32-.04c.93,1.83,2.64,1.93,4.37,2.01l-.13-.07c.54.37,1.08.74,1.62,1.11l-.19-.36s.34-.22.33-.21c-.05.66-.1,1.32-.15,1.97Z"/>
  <path class="c" d="M239.5,301.4c10.92-6.95,21.85-13.9,32.16-21.78,9.05-4.39,17.64-9.44,23.95-17.58,2.14-2.76,3.38-5.82,2.23-9.41.29-.9.58-1.8.86-2.7,1.53-.45,2.2-1.45,1.95-3.05.16-1.73.32-3.46.48-5.19,3.04-.86,3.05-3.69,3.91-6,2.68-7.19,5.75-14.18,10.56-20.24.11,4.43-1.8,8.33-3.65,12.08-3.73,7.52-4.03,14.65-.56,22.52,4.87,11.03,1.59,20.97-5.89,29.76-5.28,6.2-11.26,11.19-19.57,13.08-14.02,3.2-25.1,12.15-36.87,19.74-14.09,9.09-29.86,13.45-46.21,16.11.34-4.34,3.86-4.34,6.86-5.16,12.8-3.48,23.97-9.22,29.79-22.18Z"/>
  <path class="c" d="M317.32,147.25c-.74-3.76-1.47-7.52-2.21-11.28-.14-1.07-.52-1.96-1.62-2.36-1.72-5.66-3.5-11.21-8.23-15.34-2.02-1.77-3.21-4.43-3.64-7.24,1.73-3.21.6-6.7-.71-9.23-7.15-13.85-12.02-29.02-23.72-40.3-3.71-3.58-8.37-6.66-10.28-11.93,7.65,1.86,11.47,8.9,17.42,13.09,5.82,4.11,8.7,10.66,12.21,16.74,7.41,12.85,15.96,25.06,21.76,38.81,5.79,13.74,12.16,27.37,11.94,44.05-4.61-3.29-6.65-4.34-6.12,2.3.99,12.44.75,24.99-3.15,37.13-.43,1.35-.82,2.33-2.2,2.72,1.28-10.94,2.62-21.87,2.37-32.92-.03-1.52.33-2.94-1.28-3.83.01-2.17.02-4.34.04-6.51,1.31-1.54,1.07-2.8-.66-3.81-.39-2.1-.77-4.19-1.16-6.29,1.27-1.55,1.03-2.82-.73-3.79Z"/>
  <path class="f" d="M239.5,301.4c-5.82,12.96-16.99,18.7-29.79,22.18-3,.82-6.52.82-6.86,5.16-1.24.23-2.48.46-3.71.69-1.9-3.9-4.73-1.56-7.09-.9-18.06,5.08-36.04,8.29-53.87-1.01-1.04-.54-2.47-.27-3.66-.59-9.48-2.49-19.34-3.97-27.29-10.49,8.2,1.98,16.35,4.19,24.6,5.87,10.41,2.12,20.78,2.48,31.49,1.04,8.5-1.14,17.08-2.44,25.76-2.78,9.09-.36,17.62-3.61,25.8-7.83,8.03-4.14,16.41-7.59,24.64-11.34Z"/>
  <path class="f" d="M91.05,306.41c.07.45.14.9.22,1.35-.34.09-.68.18-1.03.25-3.12-.38-6.23-.75-9.35-1.13-3.22-3.19-6.93-5.42-11.25-6.95-12.79-4.52-22.41-13.2-30.01-24.25-9.39-13.67-19.75-26.71-27.43-41.52-.93-1.79-2.71-3.36-2.24-6.1,2.51-.29,2.96,1.78,3.72,3.28,16.83,33.6,42.98,56.98,77.34,71.34,1.55.65,3.36.83,4.02,2.76-1.28.25-2.56.5-3.84.75-.24-.11-.47-.22-.71-.33l.56.54Z"/>
  <path class="f" d="M266.9,49.56c1.91,5.27,6.57,8.35,10.28,11.93,11.7,11.28,16.57,26.46,23.72,40.3,1.31,2.53,2.45,6.01.71,9.23-2.07-1.02-2.83-2.93-3.62-4.97-6.14-15.89-15.33-29.69-28.31-40.76-3.6-3.07-5.56-8.14-10.9-9.1-3.04-1.9-5.17-4.55-6.54-7.85,3.19-.58,4.8-1.74,1.88-4.81-1.72-1.8-3.24-3.79-4.94-5.61-2.94-3.14-.01-3.15,1.9-3.73.33,2.82,3.14,2.9,4.73,4.34.3,1.66,1.29,2.34,2.93,2.09,3.35,2.39,6.1,5.34,8.16,8.92Z"/>
  <path class="c" d="M251.08,34.21c-1.91.58-4.84.59-1.9,3.73,1.7,1.82,3.23,3.8,4.94,5.61,2.92,3.07,1.31,4.23-1.88,4.81-8.49-5.31-14.36-13.75-22.77-19.17-1.95-1.26-3.62-4.05-5.5-4.12-9.14-.37-11.17-9.53-17.31-13.48-.55-.35-1.11-1.6-.89-2.08.5-1.1,1.65-.85,2.77-.7,5.64.75,11.07,2.2,15.82,5.39,8.44,5.68,16.76,11.53,25.06,17.39.78.55,1.11,1.74,1.66,2.63Z"/>
  <path class="c" d="M107.22,316.44c7.95,6.52,17.82,8,27.29,10.49,1.2.31,2.62.04,3.66.59,17.83,9.3,35.81,6.1,53.87,1.01,2.36-.66,5.19-3,7.09.9-9.04,5.12-19.25,5.33-29.11,6.09-5.19.4-10.32,1.67-15.72,1.19-5.12-.45-10.06-.43-14.43-3.68-2.32-1.72-5.2-1.63-7.94-1.57-15.15.35-25.44-8.86-35.64-18.28,1.24-.21,2.48-.41,3.72-.62,2.4,1.29,4.8,2.58,7.2,3.88Z"/>
  <path class="d" d="M213.73,99.88c8.21,13.35,14.61,27.45,16.12,43.24,2.49,26.08-3.27,49.77-20.92,69.77,1.03-6.1,5.64-10.28,8.31-15.52,16.12-31.79,14.09-62.75-3.43-93.25-1.06-1.84-2.63-3.41-2.36-5.78.76.52,1.52,1.03,2.29,1.55Z"/>
  <path class="f" d="M234.61,170.28c.16-3.81.33-7.63.48-11.44.04-1.04-.24-2.31,1.17-2.55,1.17-.19,1.96.69,2.44,1.67,1.03,2.09,2.98,4.09,2.54,6.45-1.17,6.26,3.17,10.26,6.42,13.9,4.8,5.38,5.28,11.09,4.62,17.49-3.78-.08-6.17-2.62-8.67-4.95.82-8.33-3.96-14.37-8.38-20.55-.07-.1-.41-.02-.62-.03Z"/>
  <path class="f" d="M319.84,167.65c1.61.89,1.24,2.31,1.28,3.83.25,11.06-1.09,21.99-2.37,32.92.14,1.39.68,2.83-.57,4.02-4.11,1.11-3.11,4.14-2.58,6.99,0,0,0,.02,0,.02-4.81,6.06-7.88,13.06-10.56,20.24-.86,2.31-.87,5.14-3.91,6-.38-6.08,2.78-11.15,5.19-16.21,8.38-17.61,10.32-36.59,12.65-55.54.1-.79.58-1.52.88-2.29Z"/>
  <path class="e" d="M234.61,170.28c.21,0,.54-.08.62.03,4.42,6.18,9.2,12.22,8.38,20.55-1.83-.58-3.66-1.16-5.48-1.73-4.97-1.72-5.02,1.88-5.44,5.09.08.8.16,1.6.24,2.4-1.55.44-2.25,1.44-1.97,3.07-.29.89-.57,1.77-.86,2.66-.39.08-.78.15-1.17.22-1.24-1.36-4.14-.18-4.44-2.96,4.46-9.39,7.56-19.26,10.13-29.31Z"/>
  <path class="f" d="M302.54,167.91c.41,12.87-2.81,25.18-5.67,37.54-.27,1.16-1.14,1.73-2.19,2.07,1.11-12.11,5.9-23.63,5.67-35.96-.03-1.48.79-2.83,2.19-3.64Z"/>
  <path class="e" d="M50.58,41.13c4.4-9.2,11.63-11.42,19.03-13.41-5.44,4.76-10.62,9.91-19.03,13.41Z"/>
  <path class="e" d="M180.69,9.43c-7.15-.95-14.31-1.91-21.83-2.91,7.48-3.22,9.16-3.08,21.83,2.91Z"/>
  <path class="f" d="M200.83,14.84c-5.64-1.52-11.29-3.04-16.93-4.56,6.05-.99,11.74-.5,16.72,3.23.07.45.14.89.21,1.33Z"/>
  <path class="c" d="M80.89,306.88c3.11.38,6.23.75,9.35,1.13-3.73,4.9-6.98,4.51-9.35-1.13Z"/>
  <path class="f" d="M295.07,117.4c5.13,1.71,2.73,6.59,4.13,9.87-5.04-1.75-2.79-6.56-4.13-9.87Z"/>
  <path class="c" d="M232.68,194.21c.42-3.2.47-6.81,5.44-5.09-.76,2.84-2.4,4.72-5.44,5.09Z"/>
  <path class="f" d="M300.99,137.06c.27,2.66,2.21,5.29.17,7.99-1.74-2.63-3.73-5.26-.17-7.99Z"/>
  <path class="f" d="M293.19,108.63c2.4,1.66,2.66,3.79,1.38,6.26-2.4-1.66-2.6-3.8-1.38-6.26Z"/>
  <path class="c" d="M315.6,215.42c-.53-2.85-1.53-5.88,2.58-6.99.04,2.67-.34,5.18-2.58,6.99Z"/>
  <path class="f" d="M302.46,160.13c.49,1.89,1.67,3.79-.17,5.6-1.95-1.93-2.31-3.82.17-5.6Z"/>
  <path class="d" d="M207.97,93.96c-2.62-.05-3.27-1.94-3.7-4.02,1.95.67,3.16,2.04,3.7,4.02Z"/>
  <path class="f" d="M302.37,152.34c.54,1.5,1.09,3.01-.41,4.31-2.07-1.65-1.61-3.06.41-4.31Z"/>
  <path class="f" d="M100.02,312.56c-1.24.21-2.48.41-3.72.62-.19-.81-.38-1.62-.56-2.42,1.85-.41,3.28.17,4.28,1.8Z"/>
  <path class="d" d="M204.17,89.83c-2.19.08-2.82-1.38-3.13-3.17,1.75.36,3.25.95,3.13,3.17Z"/>
  <path class="c" d="M230.95,199.68c-.27-1.63.43-2.63,1.97-3.07.39,1.71-.29,2.72-1.97,3.07Z"/>
  <path class="f" d="M291.05,103.82c1.24.37,1.59,1.34,1.67,2.49-1.47-.21-3.19-.25-1.67-2.49Z"/>
  <path class="f" d="M287.88,99.14c1.67-.09,2.55.71,2.65,2.39-1.54-.06-2.58-.68-2.65-2.39Z"/>
  <path class="c" d="M200.83,14.84c-.07-.44-.14-.89-.21-1.33.99.02,2.4-.18,2.1,1.32-.22,1.1-1.23.65-1.89.01Z"/>
  <path class="c" d="M258.74,40.64c-1.64.25-2.64-.43-2.93-2.09,1.62-.21,2.59.49,2.93,2.09Z"/>
  <path class="d" d="M209.2,95.41c-.78-.11-1.22-.5-1.13-1.35.84.06,1.16.56,1.13,1.35Z"/>
  <path class="d" d="M210.99,97.67c-.85-.19-1.33-.68-1.28-1.6.89.16,1.3.71,1.28,1.6Z"/>
  <path class="e" d="M96.98,230.55c-6.27-5.04-13.14-9.29-18.85-15.09-11.61-11.79-19.43-25.44-21.46-41.85,13.99,33.2,36.89,56.15,73.63,62.49,12,2.07,23.93,1.12,35.6-2.56,1.8-.57,3.86-1.33,5.58-.96,3.22.7-.18,1.84-.12,2.83-9.84,3.9-20.16,5.51-30.62,6.52-1.03-.8-2.09-.66-3.16-.09-1.15.04-2.29.09-3.44.13-.6-.1-1.2-.21-1.8-.31-2,.06-4.11-1.48-5.97.44,0,0-.16.2-.16.2-1.68-2.73-4-2.7-6.59-1.58l-.16.21c-.43-2.06-1.43-2.21-2.88-.89l.14.09c-.42-2.08-1.39-2.35-2.88-.89l.2.02c-1.04-2.67-3.01-2.85-5.36-2.05l-.34.22s.19.36.19.36c.22-1.49-.31-1.86-1.61-1.11,0,0,.13.07.13.07-.61-2.54-2.16-2.99-4.37-2.01,0,0,.32.04.31.04.04-.16.17-.36.11-.48-.12-.27-.33-.49-.5-.73-.53-.87-1.16-1.47-2.23-.77-.99-.98-1.83-2.55-3.46-.84,0,0,.35.01.35.02.07-.18.24-.39.19-.53-.1-.32-.31-.6-.48-.9Z"/>
  <path class="d" d="M203.24,219.18c-1.86,2.94-4.44,5.05-7.53,6.57.92-4.03,4.18-5.35,7.53-6.57Z"/>
  <path class="d" d="M208.78,213.05c-1.07,2.61-2.9,4.52-5.31,5.9.2-3.4,1.95-5.38,5.31-5.9Z"/>
  <path class="d" d="M134.22,244.73c-1.34.5-2.65.54-3.87-.36,1.35-.61,2.67-.83,3.87.36Z"/>
  <path class="d" d="M130.19,244.35c-1.36.46-2.66.41-3.84-.51,1.38-.63,2.7-.77,3.84.51Z"/>
  <path class="d" d="M126.17,243.82c-1.38.54-2.58.11-3.72-.68,1.26-.29,2.52-.57,3.77-.86,0,0,.16-.2.16-.2-.07.58-.14,1.16-.21,1.73Z"/>
  <path class="d" d="M137.59,241.84c1.07-.57,2.12-.71,3.16.09-1.07.75-2.13.88-3.16-.09Z"/>
  <path class="d" d="M193.27,227.6c-.31,1.07-1.08,1.49-2.13,1.53.25-1.15,1.01-1.59,2.13-1.53Z"/>
  <path class="d" d="M195.53,225.88c-.3,1.06-1.03,1.55-2.1,1.6.23-1.16.95-1.66,2.1-1.6Z"/>
  <path class="d" d="M132.35,241.65c.6.1,1.2.21,1.8.31-.69.42-1.29.33-1.8-.31Z"/>
  <path class="e" d="M183.87,239.62c1.29,4.1,4.75,1.47,7.1,2.16,11.3,3.31,22.6.89,33.87-.65,1.89-.26,3.86-2.78,5.51,0,1.3,2.2,1.99,4.78.6,7.26-1.73,3.09-4.04,5.87-4.82,9.45-11.71,5.74-23.61,10.9-36.02,15.1-9.06,3.06-18.24,2.72-27.34,4.01-2.28.32-4.6.29-6.91.42-1.95-3.25-4.4-5.93-7.5-8.23-7.88-5.87-14.84-12.76-21.14-20.34,18.53,1.46,36.54-.34,53.56-8.45.94-.45,2.05-.5,3.09-.74Z"/>
  <path class="f" d="M127.22,248.81c6.29,7.57,13.26,14.47,21.14,20.34,3.09,2.3,5.54,4.98,7.5,8.23-6.86,1.9-14.71-.02-18.72-3.63-7.8-7.02-15.47-14.85-21.05-24.1-1.29-2.14.82-3.18,2.66-2.96,2.88.36,6.01,0,8.48,2.12Z"/>
  <path class="f" d="M224.48,199.6c.3,2.78,3.2,1.6,4.44,2.96-.16.14-.31.3-.48.42-2.46,1.6-3.21,7.57-6.54,5.17-2.9-2.09.59-5.92,2.58-8.55Z"/>
  <path class="g" d="M126.22,242.29c-1.26.29-2.52.57-3.77.86-1-.22-2.01-.43-3.01-.65.07-.59.13-1.19.2-1.78,2.58-1.13,4.91-1.15,6.59,1.58Z"/>
  <path class="d" d="M119.63,240.72c-.06.59-.13,1.19-.2,1.78-2.96.05-5.69-.72-8.18-2.35.93-.29,1.86-.59,2.79-.88,0,0-.2-.02-.2-.02.66,1.29,1.72,1.25,2.88.88,0,0-.14-.09-.14-.09.66,1.3,1.73,1.24,2.88.88l.16-.21Z"/>
  <path class="g" d="M114.05,239.27c-.93.29-1.86.59-2.79.88-.91-.32-1.81-.64-2.72-.96.05-.65.09-1.31.15-1.97,2.35-.81,4.33-.63,5.37,2.04Z"/>
  <path class="f" d="M297.83,252.63c1.15,3.59-.09,6.65-2.23,9.41-6.31,8.15-14.9,13.19-23.95,17.58,4.52-7.03,11.87-11.18,17.56-17.06,3.09-3.19,4.97-7.35,8.61-9.94Z"/>
  <path class="f" d="M319.21,157.33c1.73,1.01,1.97,2.27.66,3.81-1.89-.98-2.12-2.25-.66-3.81Z"/>
  <path class="f" d="M317.32,147.25c1.76.97,1.99,2.24.73,3.79-1.91-.94-2.15-2.21-.73-3.79Z"/>
  <path class="f" d="M313.49,133.61c1.1.4,1.48,1.3,1.62,2.36-1.63-.03-3.21-.1-1.62-2.36Z"/>
  <path class="f" d="M300.64,246.88c.25,1.6-.42,2.6-1.95,3.05-.41-1.7.27-2.69,1.95-3.05Z"/>
  <path class="g" d="M102.68,234.74c2.2-.97,3.76-.53,4.37,2.01-1.72-.08-3.44-.18-4.37-2.01Z"/>
  <path class="g" d="M96.93,231.97c1.63-1.71,2.47-.14,3.46.84-1.29.3-2.59.61-3.46-.84Z"/>
  <path class="g" d="M96.98,230.55c.17.3.38.58.48.9.05.14-.12.35-.19.53-.3-.08-.61-.16-.92-.25.21-.4.42-.79.63-1.19Z"/>
  <path class="g" d="M102.61,233.58c.17.24.38.47.5.73.05.12-.07.32-.11.48-.37-.08-.75-.15-1.13-.23.25-.33.5-.65.74-.98Z"/>
  <path class="g" d="M106.92,236.69c1.3-.75,1.84-.38,1.61,1.11-.54-.37-1.08-.74-1.61-1.11Z"/>
  <path class="e" d="M91.05,306.41l-.56-.54c.23.11.47.22.71.33,0,0-.14.21-.14.21Z"/>
  <path class="g" d="M119.47,240.93c-1.16.36-2.23.42-2.88-.88,1.45-1.32,2.45-1.17,2.88.88Z"/>
  <path class="g" d="M116.73,240.13c-1.16.37-2.22.4-2.88-.88,1.49-1.46,2.46-1.2,2.88.88Z"/>
  <path class="b" d="M183.9,10.28c5.64,1.52,11.29,3.04,16.93,4.56.66.64,1.67,1.09,1.89-.01.3-1.51-1.11-1.3-2.1-1.32-4.98-3.73-10.67-4.22-16.72-3.23Z"/>
  <path class="b" d="M296.52,79.4c-3.51-6.09-6.39-12.64-12.21-16.74-5.95-4.19-9.77-11.24-17.42-13.09-2.06-3.58-4.8-6.53-8.16-8.92-.34-1.6-1.32-2.3-2.93-2.09-1.58-1.44-4.4-1.52-4.73-4.34-.54-.89-.88-2.08-1.66-2.63-8.31-5.87-16.63-11.72-25.06-17.39-4.75-3.2-10.18-4.65-15.82-5.39-1.11-.15-2.27-.4-2.77.71-.22.48.34,1.73.89,2.08,6.14,3.95,8.16,13.11,17.31,13.48,1.88.08,3.55,2.87,5.5,4.12,8.4,5.42,14.28,13.86,22.76,19.17,1.38,3.29,3.5,5.95,6.54,7.85,2.17,6.49,7.67,10.38,11.89,15.26,7.2,8.32,13.48,17.19,17.21,27.68.07,1.71,1.11,2.33,2.65,2.39.18.76.35,1.53.53,2.29-1.52,2.24.2,2.28,1.67,2.49.15.77.31,1.55.46,2.32-1.21,2.46-1.02,4.6,1.38,6.26.17.84.33,1.67.5,2.51,1.34,3.3-.91,8.12,4.13,9.87.6,3.26,1.19,6.53,1.79,9.79-3.56,2.73-1.57,5.36.17,7.99.4,2.43.8,4.86,1.2,7.29-2.01,1.25-2.48,2.66-.41,4.31.17,1.16.34,2.32.5,3.48-2.48,1.79-2.12,3.67-.17,5.6.08.73.17,1.45.25,2.18-1.4.81-2.21,2.16-2.19,3.64.22,12.34-4.56,23.85-5.67,35.96.26,2.4-.1,4.66-1.49,6.68-3.31.88-3.21,4.22-4.52,6.49-1.5,2.6-2.03,7.44-5.65,6.2-3.83-1.32-.01-5.07-.04-7.76-.01-1.04.48-2.22.15-3.11-1.11-2.97-3.24-5.36-6.56-4.49-3.49.92-9,18.21-7.22,21.75.51,1.02,2.27,1.7.91,3.09-.94.96-2.37.99-3.57.44-1.72-.78-3.32-1.82-5.01-2.69-11.76-6.09-22.96-13.29-35.39-18.03-1.54-5.37,4.2-8.7,3.79-13.75.29-.89.57-1.77.86-2.66,1.69-.35,2.37-1.36,1.97-3.07-.08-.8-.16-1.6-.24-2.39,3.04-.37,4.68-2.25,5.44-5.09,1.83.58,3.66,1.16,5.48,1.74,2.51,2.33,4.9,4.87,8.67,4.95,3.49,4.2,8.61,5.83,13.08,8.5,3.89,2.33,4.37.6,4.95-3.06,2.23-14.17-3.67-26.17-9.78-38.07-1.73-3.37-3.16-6.6-2.43-10.28,1.6-8.09-.77-15.77-2.71-23.31-1.92-7.48-4.12-15.14-11.21-20.07-2.79-1.94-3.87-5.46-4.3-9.01-.25-2.08-.93-4.14-1.68-6.11-.34-.9-1.01-1.96-2.28-1.94-1.3.02-1.89,1.07-2.05,2.08-.68,4.16-2.5,8.16-1.79,12.53.41,2.5,1.43,5.44-1.98,6.49-3.76,1.15-4.14-2.29-5.62-4.56-2.63-4.03-4.89-8.8-10.74-9.1-.76-.52-1.52-1.03-2.29-1.55.04-.35-.11-.58-.45-.66.02-.89-.39-1.44-1.28-1.6.01-.36-.16-.59-.51-.66.03-.79-.29-1.29-1.13-1.35l-.1-.11c-.55-1.98-1.75-3.35-3.7-4.02l-.1-.1c.13-2.22-1.38-2.82-3.12-3.17,0,0-.12-.11-.12-.11-1.44-4.59-5.96-5.81-9.25-8.19-30.69-22.21-72.48-23.2-104.29-2.68-30.93,19.94-46.07,56.77-38.64,94.6,5.18,26.37,20.02,46.19,41.9,61.05-2.61,4.44-2.32,8.99-.28,13.51,2.54,5.61,5,11.26,7.85,16.71,9.6,18.35,26.33,28.98,42.97,39.65,1.56,1,3.98,1.41,3.52,3.87-.41,2.24-2.13,3.66-4.5,3.92-1.46.16-2.99-.06-4.41.24-8.62,1.85-17.25-1.86-25.86.09-5.54.94-9.93-2.59-14.9-3.87-.66-1.93-2.47-2.11-4.02-2.76-34.36-14.36-60.51-37.74-77.34-71.34-.75-1.5-1.21-3.57-3.72-3.28-.47,2.74,1.31,4.3,2.24,6.1,7.68,14.81,18.04,27.84,27.43,41.52,7.59,11.06,17.22,19.74,30.01,24.25,4.32,1.53,8.03,3.76,11.25,6.95,2.36,5.64,5.61,6.03,9.35,1.13.34-.07.69-.16,1.03-.25,1.79.55,3.31,1.5,4.47,3,.19.81.37,1.62.56,2.42,10.2,9.42,20.49,18.63,35.64,18.28,2.74-.06,5.62-.16,7.94,1.57,4.37,3.25,9.31,3.22,14.43,3.67,5.4.48,10.53-.79,15.72-1.19,9.87-.76,20.07-.97,29.11-6.09,1.24-.23,2.48-.46,3.71-.69,16.34-2.66,32.11-7.02,46.21-16.11,11.77-7.59,22.85-16.54,36.87-19.74,8.31-1.9,14.29-6.89,19.57-13.08,7.48-8.78,10.76-18.73,5.89-29.76-3.48-7.87-3.17-15.01.56-22.52,1.86-3.75,3.76-7.65,3.65-12.08v-.02c2.25-1.81,2.62-4.33,2.59-6.99,1.26-1.18.72-2.63.57-4.02,1.38-.39,1.77-1.37,2.2-2.72,3.89-12.14,4.14-24.69,3.15-37.13-.53-6.63,1.51-5.59,6.12-2.3.22-16.68-6.15-30.32-11.94-44.05-5.8-13.74-14.35-25.96-21.76-38.81Z"/>
  <path class="b" d="M158.85,6.52c7.53,1,14.68,1.96,21.83,2.91-12.68-5.99-14.35-6.13-21.83-2.91Z"/>
  <path class="b" d="M50.58,41.13c8.41-3.5,13.58-8.65,19.03-13.41-7.39,2-14.63,4.21-19.03,13.41Z"/>
</svg>