<?xml version="1.0" encoding="UTF-8"?>
<svg id="a" data-name="图层 1" xmlns="http://www.w3.org/2000/svg" viewBox="0 0 336 180">
  <defs>
    <style>
      .b {
        fill: #a9acac;
      }

      .b, .c, .d {
        stroke-width: 0px;
      }

      .c {
        fill: #e9e9e9;
      }

      .d {
        fill: #1a1a1a;
      }
    </style>
  </defs>
  <path class="d" d="M263.48,58.54c.64-8.82-2.92-16.62-5.88-24.58-.68-1.82-3.24-3.71-1-5.72,1.98-1.77,4.53-3.02,7.32-1.15-.38,4.42.22,8.51,1.7,12.88,2.64,7.79,3.52,16.08,2.67,24.4-.46,4.5-3.04,7.96-5.78,11.31-1.74.28-3.51,1.4-3.46,2.84.07,2.11,2.23,2.94,4.19,3.45.11.28.31.44.6.48.03,2.81,1.92,3.22,4.13,3.22,1.14.86,2.33,1.67,3.42,2.59,1.58,1.32,4.43,1.97,3.97,4.53-.49,2.68-3.12,3.85-5.51,4.63-4.39,1.42-8.45.54-12.02-2.4-1.49-1.23-2.95-2.5-4.42-3.75-2.01-3.47-3.45-7.86-9.02-4.73-9.03,5.08-18.81,8.27-28.76,10.94-18.46,4.95-29.35.95-41.95-16.04-2.04-2.75-3.94-5.65-6.97-7.49-5.76-3.5-11.11-2.44-13.36,2.64-.8.93-.88,1.98-.53,3.1-1.11.82-.74,1.49.2,2.12.1.68.21,1.37.31,2.05-.66.87-.6,1.67.25,2.38.08,1.83.16,3.66.23,5.5-1.36,2.32-.97,4.95-.97,7.39-.04,12.79-6.74,21.34-17.26,27.33-8.1,4.61-15.95,10.11-25.28,11.75-7.21,1.27-9.35,5.58-10.43,11.94-1.84,10.92-5.18,13.39-16.02,13-1.5-3.42.92-6.4,1.07-9.64.95-2.29,1.8-4.63,2.86-6.86,1.15-2.4.36-3.44-2.13-3.37-9.27.29-14.86-5.13-19.84-12.09-5.27-7.36-9.28-15.41-13.72-23.22-.67-1.18-2.6-2.71-1.22-3.64,1.99-1.35,4.64-1.96,7.09-2.34,1.8-.28,2.14,1.55,2.4,3.01,1.72,9.66,6.29,18.03,11.85,25.93,3.01,4.28,6.85,7.39,12.27,8.2,4.17.62,6.63-.5,8.05-4.97,3.56-11.19,7.48-22.28,11.67-33.26,2.3-6.04,5.45-11.76,8.21-17.62.6-1.29,1.89-1.54,3-2.14,12.11-6.62,25.44-9.79,38.52-13.67,4.33-1.28,8.71-2.44,13.01-3.84,2.35-.76,4.52-.92,6.69.38-.46,3.26.31,6.46,2.92,8.24,4.84,3.29,7.74,8.06,10.66,12.75,4.91,7.89,11.89,10.74,20.73,9.5,11.88-1.66,23.04-5.77,34.03-10.39,2.88-1.21,3.09-2.62.8-4.64-5.28-4.65-10.11-9.95-15.88-13.87-10.54-7.16-21.96-11.39-35.07-6.86-5.51,1.9-11.29,2.99-16.95,4.45-.13-2.48-.64-4.23,3.36-4.96,6.99-1.28,13.69-4.17,20.5-6.39,14.12-1.67,26.06,3.92,37.35,11.41,5.62,3.73,11.01,7.79,16.45,11.78,1.97,1.44,3.51,1.15,5.25-.4,4.86-4.34,6.57-9.73,5.72-16.06ZM128.66,80.26c-1.26.69-2.52,1.39-3.77,2.08-5.66,1.76-8.57,6.33-11.01,11.19-6.16,12.28-8.23,25.75-10.9,39.01-.86,4.27,2,4.04,4.63,3.08,7.1-2.6,14.11-5.37,20.91-8.75,19.64-9.75,21.41-22.44,17.33-40.68-2.25-10.05-9.1-12.14-17.19-5.93ZM149.9,72.02c.07-1.16-.6-1.71-1.59-1.59-1.78.22-3.63.73-4.42,2.48-.46,1.02.58,1.59,1.57,1.3,1.59-.47,3.7,0,4.44-2.19Z"/>
  <path class="b" d="M153.34,76.57c2.25-5.08,7.6-6.14,13.36-2.64,3.03,1.84,4.94,4.74,6.97,7.49,12.6,16.99,23.49,20.99,41.95,16.04,9.95-2.67,19.73-5.86,28.76-10.94,5.57-3.13,7.01,1.26,9.02,4.73-1.43.07-2.92-.07-4.12.96-1.34,1.16-3.74,1.98-3.55,3.78.25,2.41,2.98,1.12,4.48,1.81,5.22,2.39,11.15,1.88,16.4,4.13,2.13.91,4.13,2.07,3.14,4.75-.79,2.13-1.77,4.51-4.87,4.2-2.68-.27-5.34-.26-7.82-1.75-12.98-7.83-26.67-11.06-41.73-6.88-13.43,3.73-26.7,2.1-39.75-2.22-2.1-.7-3.55-2.15-3.39-4.35.4-5.5-2.98-9.56-5.34-13.86-3.48-6.33-5.52-6.81-13.51-5.24Z"/>
  <path class="b" d="M83.83,163.15c10.84.39,14.18-2.08,16.02-13,1.07-6.36,3.22-10.67,10.43-11.94,9.33-1.64,17.19-7.15,25.28-11.75,10.52-5.99,17.23-14.55,17.26-27.33,0-2.44-.39-5.07.97-7.39.56,4.81,4.9,8.98,2.85,14.16-3.96,9.99-9.07,19.23-18.96,24.7-4.41,2.44-8.98,4.53-13.65,6.47-11.47,4.76-19.12,13.13-23.2,24.98-2.71,7.87-6.92,9.97-14.42,7.75-3.29-.97-5.59-2.93-2.58-6.64Z"/>
  <path class="d" d="M137.53,66.42c.87.51,1.74,1.01,2.87,1.67-2.98,1.69-5.76,2.84-8.83,3.04-22.38,1.49-42.97,8.7-62.38,19.57-4.68,2.62-9.84,3.41-14.9,4.66-1.01.25-2.35.5-2.84-.72-.5-1.23.69-2.08,1.56-2.54,4-2.07,8.01-4.16,12.15-5.94,15.09-6.48,30.3-12.66,46.48-16.02,1.01-.21,2.21-.1,2.8-1.28,7.7-.82,15.4-1.64,23.09-2.46Z"/>
  <path class="d" d="M256.15,17.47c-4.7,4.4-10.72,6.33-16.67,7.62-19.85,4.29-37.92,12.5-54.92,23.36-4.79,3.06-9.43,6.52-15.53,6.44,22.23-17.29,47.73-27.63,74.65-34.85,4.07-1.09,7.93-3.66,12.48-2.56Z"/>
  <path class="b" d="M263.23,81.96c-1.95-.51-4.11-1.34-4.19-3.45-.05-1.44,1.72-2.56,3.46-2.84,2.63,1.82,1.4,4.09.73,6.29Z"/>
  <path class="b" d="M267.96,85.67c-2.21,0-4.1-.41-4.13-3.22,2.03.24,3.53,1.15,4.13,3.22Z"/>
  <path class="b" d="M153,81.79c-.94-.63-1.31-1.31-.2-2.12,1.2.6,1.37,1.3.2,2.12Z"/>
  <path class="b" d="M153.56,86.23c-.85-.72-.91-1.51-.25-2.38,1.12.69,1.68,1.43.25,2.38Z"/>
  <path class="d" d="M258.32,16.74c-.77.28-1.54.57-2.3.85.47-1.09,1.52-.6,2.3-.85Z"/>
  <path class="c" d="M174.84,63.16c5.66-1.46,11.45-2.55,16.95-4.45,13.11-4.52,24.52-.29,35.07,6.86,5.77,3.92,10.6,9.22,15.88,13.87,2.29,2.02,2.08,3.43-.8,4.64-10.99,4.63-22.15,8.73-34.03,10.39-8.85,1.24-15.82-1.61-20.73-9.5-2.92-4.69-5.82-9.46-10.66-12.75-2.62-1.78-3.39-4.97-2.92-8.24.72.17,1.12-.13,1.25-.84Z"/>
  <path class="c" d="M263.48,58.54c.85,6.33-.85,11.73-5.72,16.06-1.74,1.55-3.29,1.85-5.25.4-5.44-3.99-10.83-8.05-16.45-11.78-11.29-7.49-23.24-13.07-37.35-11.41,1.9-2.8,5.11-3.26,7.95-4.1,8.28-2.45,16.64-4.66,24.99-6.87,3.15-.84,6.12-2.03,9.02-3.52,7.61-3.9,15.5.81,14.98,9.44-.39,6.37,2.4,9.73,7.84,11.78Z"/>
  <path class="d" d="M48.7,103.37c-.07,1.87-1.08,2.52-2.51,2.3-3.26-.51-3.34-3.57-3.8-5.78-.33-1.6,1.99-3.26,3.25-2.71,2.48,1.09,2.03,4.24,3.06,6.19Z"/>
  <path class="c" d="M128.66,80.26c.45,1.91,1.96,2.04,3.39,1.71,4.68-1.08,7.84,1.39,9.73,4.96,2.3,4.35.44,12.86-3.15,14.81-3.74,2.04-7.58,4.21-11.91,4.86-6.1.92-9.42-2.3-8.15-8.3.91-4.29,1.4-8.94,5.35-12.01,1.22-.95,1.42-2.44.97-3.96,1.26-.69,2.52-1.39,3.77-2.08Z"/>
  <path class="b" d="M149.9,72.02c-.73,2.19-2.84,1.72-4.44,2.19-1,.29-2.03-.28-1.57-1.3.79-1.75,2.64-2.26,4.42-2.48.99-.13,1.66.43,1.59,1.59Z"/>
</svg>