<?xml version="1.0" encoding="UTF-8"?>
<svg id="a" data-name="图层 1" xmlns="http://www.w3.org/2000/svg" viewBox="0 0 531.01 300.25">
  <defs>
    <style>
      .b {
        fill: #000;
        stroke-width: 0px;
      }
    </style>
  </defs>
  <path class="b" d="M3.02,19.41v-3.09l30.76-3.28v3.09l-13.74,2.82-3.19.36-13.83.09ZM28.05,81.84L7.94,15.77l16.47-1.73,14.1,53.24-1.64.18.36-1.37,15.29-54.96,9.28-1.09,15.56,53.69-1.64.18.27-1.64,14.65-55.15,5.28-.55-20.38,70.25-8.46.91-16.29-52.23,1.82-.09-.36,1.27-15.74,54.24-8.46.91ZM42.79,15.22v-3.09l29.85-3.09v3.09l-12.47,2.64-5.92.64-11.47-.18ZM81.1,11.22v-3.09l21.93-2.37v3.09l-9.65,2.37-2.64.36-9.65-.36Z"/>
  <path class="b" d="M123.78,83.11c-5.1.49-9.62-.09-13.56-1.73-3.94-1.64-7.04-4.32-9.28-8.05-2.25-3.73-3.37-8.42-3.37-14.06s1.21-10.54,3.64-14.7c2.43-4.15,5.6-7.45,9.51-9.87,3.91-2.43,8.08-3.85,12.51-4.28,4.73-.55,8.69-.06,11.88,1.46,3.19,1.52,5.58,3.76,7.19,6.73,1.61,2.97,2.41,6.4,2.41,10.28,0,2.06-.21,3.91-.64,5.55l-40.22,4.19v-3.28l21.57-2.27c2.12-.18,3.56-.91,4.32-2.18.76-1.27,1.14-3.3,1.14-6.1,0-4.06-.76-7.01-2.28-8.83-1.52-1.82-3.52-2.61-6.01-2.37-1.7.18-3.28,1.08-4.73,2.68-1.46,1.61-2.61,4.04-3.46,7.28-.85,3.25-1.27,7.48-1.27,12.69s.68,9.09,2.05,12.15c1.37,3.06,3.24,5.19,5.64,6.37,2.4,1.18,5.11,1.59,8.14,1.23,3.21-.3,5.88-1.21,8.01-2.73,2.12-1.52,3.94-3.4,5.46-5.64l1.73,1c-1.88,4.19-4.57,7.52-8.05,10.01-3.49,2.49-7.6,3.97-12.33,4.46Z"/>
  <path class="b" d="M149.26,84.2v-2.82l6.01-1c.06-1.82.09-3.82.09-6.01s.01-4.37.05-6.55c.03-2.18.05-4.12.05-5.82V15.5l-6.64.09v-2.46l20.2-6.1,1.18.64-.27,14.74v16.11l.27.82v35.76l-2.37,8.55-18.56.55ZM184.2,82.11c-3.28.36-6.31-.12-9.1-1.46-2.79-1.33-5.25-3.55-7.37-6.64l-1,.09,1.91-1.36c1.52,1.58,3,2.61,4.46,3.09,1.46.49,3,.67,4.64.55,2.12-.24,4.11-1.02,5.96-2.32,1.85-1.3,3.34-3.49,4.46-6.55,1.12-3.06,1.68-7.36,1.68-12.88,0-7.1-1.12-12.03-3.37-14.79-2.25-2.76-5.07-3.93-8.46-3.5-1.15.06-2.31.29-3.46.68-1.15.39-2.4,1.11-3.73,2.14-1.33,1.03-2.91,2.64-4.73,4.82l-1.27-2.55,2.09-.18c2.55-3.7,5.37-6.52,8.46-8.46,3.09-1.94,6.4-3.12,9.92-3.55,3.82-.42,7.25.21,10.28,1.91,3.03,1.7,5.44,4.4,7.23,8.1,1.79,3.7,2.68,8.4,2.68,14.1,0,4.98-.91,9.56-2.73,13.74-1.82,4.19-4.32,7.63-7.51,10.33-3.19,2.7-6.87,4.26-11.06,4.69Z"/>
  <path class="b" d="M5.93,113.41v-3.09l16.11-1.73v4.46l-1.46.18-14.65.18ZM5.93,178.29v-3.09l14.65-3,1.46-.18v4.55l-16.11,1.73ZM14.03,177.47c.12-5.22.2-10.52.23-15.92.03-5.4.05-11.01.05-16.83v-3c0-5.46-.02-10.86-.05-16.2-.03-5.34-.11-10.68-.23-16.02l16.02-1.64c-.12,5.22-.2,10.51-.23,15.88-.03,5.37-.05,10.82-.05,16.33v3c0,5.7.01,11.25.05,16.65.03,5.4.1,10.77.23,16.11l-16.02,1.64ZM22.04,176.57v-3.37l11.92-1.18c6.67-.73,11.88-3.99,15.61-9.78,3.73-5.79,5.6-13.51,5.6-23.16s-1.85-17.32-5.55-22.11c-3.7-4.79-8.8-6.83-15.29-6.1l-12.29,1.18v-3.46l13.65-1.37c7.46-.79,13.82-.1,19.06,2.05,5.25,2.15,9.27,5.61,12.06,10.37,2.79,4.76,4.19,10.63,4.19,17.61s-1.47,13.35-4.41,18.75c-2.94,5.4-7.17,9.77-12.69,13.1-5.52,3.34-12.1,5.43-19.75,6.28l-12.1,1.18Z"/>
  <path class="b" d="M104.3,177.11c-5.1.49-9.62-.09-13.56-1.73-3.94-1.64-7.04-4.32-9.28-8.05-2.25-3.73-3.37-8.42-3.37-14.06s1.21-10.54,3.64-14.7c2.43-4.15,5.6-7.45,9.51-9.87,3.91-2.43,8.08-3.85,12.51-4.28,4.73-.55,8.69-.06,11.88,1.46,3.19,1.52,5.58,3.76,7.19,6.73,1.61,2.97,2.41,6.4,2.41,10.28,0,2.06-.21,3.91-.64,5.55l-40.22,4.19v-3.28l21.57-2.27c2.12-.18,3.56-.91,4.32-2.18.76-1.27,1.14-3.31,1.14-6.1,0-4.06-.76-7.01-2.28-8.83-1.52-1.82-3.52-2.61-6.01-2.37-1.7.18-3.28,1.08-4.73,2.68-1.46,1.61-2.61,4.04-3.46,7.28-.85,3.25-1.27,7.48-1.27,12.69s.68,9.09,2.05,12.15c1.37,3.06,3.24,5.19,5.64,6.37,2.4,1.18,5.11,1.59,8.14,1.23,3.21-.3,5.88-1.21,8.01-2.73,2.12-1.52,3.94-3.4,5.46-5.64l1.73,1c-1.88,4.19-4.57,7.52-8.05,10.01-3.49,2.49-7.6,3.97-12.33,4.46Z"/>
  <path class="b" d="M127.33,131.43v-2.73l27.94-3v2.73l-9.37,2.18-9.74.91-8.83-.09ZM151.26,176.02l-20.48-47.68,16.02-1.73,14.47,37.22-2.09.27.55-1.46,12.47-38.67,4.37-.46-19.02,51.87-6.28.64ZM163.91,127.61v-2.73l17.75-1.91v2.73l-7.37,1.82-2,.27-8.37-.18Z"/>
  <path class="b" d="M209.04,177.11c-5.1.49-9.62-.09-13.56-1.73-3.94-1.64-7.04-4.32-9.28-8.05-2.25-3.73-3.37-8.42-3.37-14.06s1.21-10.54,3.64-14.7c2.43-4.15,5.6-7.45,9.51-9.87,3.91-2.43,8.08-3.85,12.51-4.28,4.73-.55,8.69-.06,11.88,1.46,3.19,1.52,5.58,3.76,7.19,6.73,1.61,2.97,2.41,6.4,2.41,10.28,0,2.06-.21,3.91-.64,5.55l-40.22,4.19v-3.28l21.57-2.27c2.12-.18,3.56-.91,4.32-2.18.76-1.27,1.14-3.31,1.14-6.1,0-4.06-.76-7.01-2.28-8.83-1.52-1.82-3.52-2.61-6.01-2.37-1.7.18-3.28,1.08-4.73,2.68-1.46,1.61-2.61,4.04-3.46,7.28-.85,3.25-1.27,7.48-1.27,12.69s.68,9.09,2.05,12.15c1.37,3.06,3.24,5.19,5.64,6.37,2.4,1.18,5.11,1.59,8.14,1.23,3.21-.3,5.88-1.21,8.01-2.73,2.12-1.52,3.94-3.4,5.46-5.64l1.73,1c-1.88,4.19-4.57,7.52-8.05,10.01-3.49,2.49-7.6,3.97-12.33,4.46Z"/>
  <path class="b" d="M240.44,177.66c.06-2.24.11-4.6.14-7.05.03-2.46.06-4.93.09-7.42.03-2.49.05-4.88.05-7.19v-46.59l-6.64.09v-2.46l20.38-6.1,1.36.73-.36,14.65v38.04c0,2.31.01,4.7.05,7.19.03,2.49.08,4.96.14,7.42.06,2.46.12,4.81.18,7.05l-15.38,1.64ZM234.25,178.29v-2.82l9.92-2,7.19-.82,10.56-.09v2.82l-27.66,2.91Z"/>
  <path class="b" d="M293.49,177.11c-5.22.55-9.75-.08-13.6-1.87-3.85-1.79-6.84-4.58-8.96-8.37-2.12-3.79-3.19-8.36-3.19-13.7s1.15-10.16,3.46-14.29c2.3-4.12,5.41-7.46,9.33-10.01,3.91-2.55,8.24-4.06,12.97-4.55,4.79-.49,9.15.12,13.06,1.82s7.02,4.35,9.33,7.96c2.3,3.61,3.46,8.14,3.46,13.6s-1.08,10.22-3.23,14.47c-2.15,4.25-5.16,7.66-9.01,10.24-3.85,2.58-8.39,4.14-13.6,4.69ZM293.49,173.93c3.28-.36,5.78-2.53,7.51-6.51s2.59-9.9,2.59-17.79-.86-13.71-2.59-17.29c-1.73-3.58-4.23-5.19-7.51-4.82-3.22.36-5.7,2.5-7.46,6.42-1.76,3.91-2.64,9.84-2.64,17.79s.88,13.65,2.64,17.29c1.76,3.64,4.25,5.28,7.46,4.91Z"/>
  <path class="b" d="M330.89,201.23c.06-2.79.11-5.54.14-8.24.03-2.7.06-5.29.09-7.78.03-2.49.05-4.79.05-6.92v-29.76c0-2.97-.02-5.4-.05-7.28-.03-1.88-.11-3.91-.23-6.1h-6.73v-2.18l19.56-7.83,1.18.82.91,6.92.09.55v35.85l-.18,1.27v6.01c0,2.12.01,4.44.05,6.96.03,2.52.06,5.13.09,7.83.03,2.7.08,5.44.14,8.24l-15.11,1.64ZM324.89,201.77v-2.64l9.83-1.91,9.19-1.09,9.01.09v2.64l-28.03,2.91ZM359.01,176.2c-3.03.3-5.84-.14-8.42-1.32-2.58-1.18-4.93-3.29-7.05-6.33l-1.09.09,1.91-1c1.39,1.27,2.79,2.08,4.19,2.41,1.39.33,3.03.44,4.91.32,2.37-.3,4.44-1.17,6.23-2.59,1.79-1.42,3.19-3.65,4.19-6.69,1-3.03,1.5-7.07,1.5-12.1,0-7.4-1-12.47-3-15.2-2-2.73-4.79-3.91-8.37-3.55-1.7.18-3.34.68-4.91,1.5-1.58.82-3.4,2.53-5.46,5.14l-1.55-.82.64-.09c2.24-3.94,4.96-6.96,8.14-9.05,3.19-2.09,6.63-3.35,10.33-3.78,3.76-.36,7.14.29,10.15,1.96,3,1.67,5.4,4.37,7.19,8.1,1.79,3.73,2.68,8.42,2.68,14.06s-1.02,10.36-3.05,14.51c-2.03,4.16-4.72,7.49-8.05,10.01-3.34,2.52-7.04,3.99-11.1,4.41Z"/>
  <path class="b" d="M414.43,177.11c-5.1.49-9.62-.09-13.56-1.73-3.94-1.64-7.04-4.32-9.28-8.05-2.25-3.73-3.37-8.42-3.37-14.06s1.21-10.54,3.64-14.7c2.43-4.15,5.6-7.45,9.51-9.87,3.91-2.43,8.08-3.85,12.51-4.28,4.73-.55,8.69-.06,11.88,1.46,3.19,1.52,5.58,3.76,7.19,6.73,1.61,2.97,2.41,6.4,2.41,10.28,0,2.06-.21,3.91-.64,5.55l-40.22,4.19v-3.28l21.57-2.27c2.12-.18,3.56-.91,4.32-2.18.76-1.27,1.14-3.31,1.14-6.1,0-4.06-.76-7.01-2.28-8.83-1.52-1.82-3.52-2.61-6.01-2.37-1.7.18-3.28,1.08-4.73,2.68-1.46,1.61-2.61,4.04-3.46,7.28-.85,3.25-1.27,7.48-1.27,12.69s.68,9.09,2.05,12.15c1.37,3.06,3.24,5.19,5.64,6.37,2.4,1.18,5.11,1.59,8.14,1.23,3.21-.3,5.88-1.21,8.01-2.73,2.12-1.52,3.94-3.4,5.46-5.64l1.73,1c-1.88,4.19-4.57,7.52-8.05,10.01-3.49,2.49-7.6,3.97-12.33,4.46Z"/>
  <path class="b" d="M447.19,177.57c.12-1.64.2-3.76.23-6.37.03-2.61.06-5.31.09-8.1.03-2.79.05-5.25.05-7.37v-7.55c0-3.03-.03-5.44-.09-7.23-.06-1.79-.15-3.75-.27-5.87l-6.64-.09v-2.18l19.84-7.83,1.18.73.73,13.01v15.56c0,2.12.01,4.58.05,7.37.03,2.79.06,5.48.09,8.05.03,2.58.08,4.66.14,6.23l-15.38,1.64ZM441.27,178.11v-2.82l9.74-2,10.01-1.09h9.92v2.82l-29.67,3.09ZM462.3,146.72l-3.55-5.55,2.91-.36c.85-3.58,2.08-6.66,3.69-9.24,1.61-2.58,3.41-4.56,5.41-5.96,2-1.39,3.97-2.21,5.92-2.46,2.18-.24,4.09.08,5.73.96,1.64.88,2.67,2.65,3.09,5.32-.06,2.06-.62,3.87-1.68,5.42-1.06,1.55-2.75,2.44-5.05,2.68-1.7.18-3.15-.15-4.37-1-1.21-.85-2.43-2.06-3.64-3.64l-2.09-2.37,2.91.36c-2.31,1.82-4.19,3.94-5.64,6.37-1.46,2.43-2.67,5.58-3.64,9.46Z"/>
  <path class="b" d="M26.14,271.66c-4.55.49-8.39.04-11.51-1.32-3.12-1.37-5.48-3.34-7.05-5.92-1.58-2.58-2.37-5.47-2.37-8.69,0-4.19,1.4-8.11,4.19-11.79,2.79-3.67,7.52-7.11,14.2-10.33v-.55l.64,1.55c-2.43,2.49-4.13,4.99-5.1,7.51-.97,2.52-1.46,5.02-1.46,7.51,0,3.09.65,5.7,1.96,7.83,1.3,2.12,3.09,3.7,5.37,4.73,2.27,1.03,4.9,1.4,7.87,1.09,2.55-.3,4.84-.96,6.87-1.96,2.03-1,3.93-2.38,5.69-4.14l2.55,1-1.09.09c-1.27,2.06-2.9,4.05-4.87,5.96-1.97,1.91-4.28,3.54-6.92,4.87-2.64,1.33-5.63,2.18-8.96,2.55ZM63.45,267.56c-2.79.24-5.32.14-7.6-.32s-4.47-1.53-6.6-3.23c-3.15-2.61-6.05-5.32-8.69-8.14-2.64-2.82-5.14-5.54-7.51-8.14-2.25-2.49-4.13-4.59-5.64-6.32-1.52-1.73-2.85-3.21-4-4.46-1.15-1.24-2.27-2.44-3.37-3.59-2.25-2.67-3.84-5.25-4.78-7.73-.94-2.49-1.41-5.01-1.41-7.55,0-4.91,1.74-8.98,5.23-12.19,3.49-3.21,8.02-5.13,13.6-5.73,5.58-.61,9.87.17,12.88,2.32,3,2.15,4.5,5.2,4.5,9.15,0,3.7-1.38,7.04-4.14,10.01-2.76,2.97-6.93,5.91-12.51,8.83v.64l-1.18-2c2.49-2.85,4.4-5.66,5.73-8.42,1.33-2.76,2-5.63,2-8.6s-.65-4.96-1.96-6.32c-1.31-1.37-3.11-1.93-5.41-1.68-2.25.24-4.1,1.2-5.55,2.87-1.46,1.67-2.18,3.75-2.18,6.23,0,1.52.27,3.08.82,4.69.55,1.61,1.61,3.44,3.19,5.51.91,1.09,1.88,2.18,2.91,3.28,1.03,1.09,2.38,2.49,4.05,4.19,1.67,1.7,3.9,3.94,6.69,6.73,2.67,2.67,5.08,5.04,7.23,7.1,2.15,2.06,4.23,4.05,6.23,5.96,2,1.91,4.1,3.87,6.28,5.87s4.64,4.25,7.37,6.73l-5.64-1,9.46.27-.18,2.64c-2.18.73-4,1.27-5.46,1.64s-2.91.64-4.37.82ZM53.62,252.18l-2.46-1.09.82-.09c1.52-2.67,2.81-5.37,3.87-8.1,1.06-2.73,1.96-5.6,2.68-8.6s1.27-6.17,1.64-9.51l6.55-.64c-1.03,3.88-2.09,7.34-3.19,10.37-1.09,3.03-2.4,5.92-3.91,8.64-1.52,2.73-3.52,5.73-6.01,9.01ZM62.08,226.61l-10.56-.36v-2.55l22.11-2.37v2.55l-9.56,2.55-2,.18Z"/>
  <path class="b" d="M102.57,207.41v-3.09l16.11-1.73v4.46l-1.46.18-14.65.18ZM102.57,272.29v-3.09l14.65-3,1.46-.18v4.55l-16.11,1.73ZM110.67,271.47c.12-5.22.2-10.52.23-15.92.03-5.4.05-11.01.05-16.83v-3c0-5.46-.02-10.86-.05-16.2-.03-5.34-.11-10.68-.23-16.02l16.02-1.64c-.12,5.22-.2,10.51-.23,15.88-.03,5.37-.05,10.82-.05,16.33v3c0,5.7.01,11.25.05,16.65.03,5.4.1,10.77.23,16.11l-16.02,1.64ZM118.68,270.57v-3.37l11.92-1.18c6.67-.73,11.88-3.99,15.61-9.78,3.73-5.79,5.6-13.51,5.6-23.16s-1.85-17.32-5.55-22.11c-3.7-4.79-8.8-6.83-15.29-6.1l-12.29,1.18v-3.46l13.65-1.37c7.46-.79,13.82-.1,19.06,2.05,5.25,2.15,9.27,5.61,12.06,10.37,2.79,4.76,4.19,10.63,4.19,17.61s-1.47,13.35-4.41,18.75c-2.94,5.4-7.17,9.77-12.69,13.1-5.52,3.34-12.1,5.43-19.75,6.28l-12.1,1.18Z"/>
  <path class="b" d="M200.94,271.11c-5.1.49-9.62-.09-13.56-1.73-3.94-1.64-7.04-4.32-9.28-8.05-2.25-3.73-3.37-8.42-3.37-14.06s1.21-10.54,3.64-14.7c2.43-4.15,5.6-7.45,9.51-9.87,3.91-2.43,8.08-3.85,12.51-4.28,4.73-.55,8.69-.06,11.88,1.46,3.19,1.52,5.58,3.76,7.19,6.73,1.61,2.97,2.41,6.4,2.41,10.28,0,2.06-.21,3.91-.64,5.55l-40.22,4.19v-3.28l21.57-2.27c2.12-.18,3.56-.91,4.32-2.18.76-1.27,1.14-3.31,1.14-6.1,0-4.06-.76-7.01-2.28-8.83-1.52-1.82-3.52-2.61-6.01-2.37-1.7.18-3.28,1.08-4.73,2.68-1.46,1.61-2.61,4.04-3.46,7.28-.85,3.25-1.27,7.48-1.27,12.69s.68,9.09,2.05,12.15c1.37,3.06,3.24,5.19,5.64,6.37,2.4,1.18,5.11,1.59,8.14,1.23,3.21-.3,5.88-1.21,8.01-2.73,2.12-1.52,3.94-3.4,5.46-5.64l1.73,1c-1.88,4.19-4.57,7.52-8.05,10.01-3.49,2.49-7.6,3.97-12.33,4.46Z"/>
  <path class="b" d="M246.54,271.93c-3.52.36-6.73.32-9.65-.14-2.91-.45-5.7-1.29-8.37-2.5l.73-12.47,5.82-.64,3.09,13.1-4.91-.18v-3.28c2.06,1.09,4,1.88,5.82,2.37,1.82.49,3.91.58,6.28.27,3.46-.36,6.11-1.27,7.96-2.73,1.85-1.46,2.78-3.43,2.78-5.92,0-1.94-.59-3.55-1.77-4.82s-3.59-2.21-7.23-2.82l-5.28-1.18c-4.06-.79-7.25-2.26-9.55-4.41-2.31-2.15-3.46-5.17-3.46-9.05,0-4.79,1.8-8.93,5.41-12.42,3.61-3.49,8.75-5.6,15.42-6.32,3.03-.36,5.81-.32,8.33.14,2.52.46,5.11,1.23,7.78,2.32l-.64,11.47-5.19.64-4.19-12.56,4.37,1.09v2.73c-1.82-1.03-3.43-1.74-4.82-2.14-1.4-.39-3.16-.5-5.28-.32-2.79.3-5.04,1.21-6.73,2.73-1.7,1.52-2.55,3.43-2.55,5.73,0,1.64.61,3.06,1.82,4.28,1.21,1.21,3.58,2.15,7.1,2.82l5.37,1.09c4.79.97,8.28,2.59,10.46,4.87,2.18,2.27,3.28,5.29,3.28,9.05,0,3.52-.9,6.63-2.68,9.33-1.79,2.7-4.34,4.9-7.64,6.6-3.31,1.7-7.27,2.79-11.88,3.28Z"/>
  <path class="b" d="M280.39,271.57c.06-1.58.11-3.65.14-6.23.03-2.58.06-5.26.09-8.05.03-2.79.05-5.25.05-7.37v-7.28c0-3.03-.02-5.57-.05-7.6-.03-2.03-.11-4.11-.23-6.23h-6.73v-2.18l20.93-7.64,1.18.73-.36,14.65v14.01c0,2.12.01,4.58.05,7.37.03,2.79.08,5.48.14,8.05.06,2.58.12,4.63.18,6.14l-15.38,1.64ZM274.56,272.2v-2.82l9.55-1.91,7.1-.73,9.92-.18v2.82l-26.57,2.82ZM287.67,211.23c-2.12.24-3.96-.26-5.51-1.5-1.55-1.24-2.32-2.99-2.32-5.23,0-2.12.77-3.96,2.32-5.51,1.55-1.55,3.38-2.44,5.51-2.68,2.18-.24,4.03.26,5.55,1.5,1.52,1.24,2.27,2.93,2.27,5.05,0,2.25-.76,4.14-2.27,5.69-1.52,1.55-3.37,2.44-5.55,2.68Z"/>
  <path class="b" d="M327.25,293.59c-5.58.61-9.93.53-13.06-.23-3.12-.76-5.29-2-6.51-3.73-1.21-1.73-1.82-3.66-1.82-5.78,0-2.49,1.03-4.9,3.09-7.23,2.06-2.34,5.22-4.38,9.46-6.14l.18.46c-1.33,1.76-2.38,3.32-3.14,4.69-.76,1.37-1.14,3.02-1.14,4.96,0,3.34,1.14,5.78,3.41,7.33,2.28,1.55,5.41,2.11,9.42,1.68,6.13-.61,10.71-2.06,13.74-4.37,3.03-2.31,4.55-5.16,4.55-8.55,0-1.46-.59-2.81-1.77-4.05-1.18-1.24-3.29-1.68-6.32-1.32l-10.1,1c-2.79.3-4.96.48-6.51.55-1.55.06-3.05-.06-4.5-.36v-.36c-5.16-1.09-7.73-3.91-7.73-8.46,0-2.18.67-4.46,2-6.83,1.33-2.37,3.76-4.82,7.28-7.37v-.82l1.64.64c-.97,1.52-1.7,2.82-2.18,3.91-.49,1.09-.73,2.31-.73,3.64,0,1.46.53,2.52,1.59,3.18,1.06.67,2.81.85,5.23.55l13.29-1.36c5.03-.55,9.04-.36,12.01.55,2.97.91,5.13,2.35,6.46,4.32,1.33,1.97,2,4.29,2,6.96,0,3.28-1.17,6.51-3.5,9.69-2.34,3.18-5.73,5.96-10.19,8.33s-9.84,3.88-16.15,4.55ZM329.07,251.91c-4.73.49-8.66.17-11.78-.96-3.13-1.12-5.46-2.83-7.01-5.14-1.55-2.3-2.32-5-2.32-8.1,0-4.85,1.74-9.07,5.23-12.65,3.49-3.58,8.81-5.73,15.97-6.46,3.94-.42,7.31-.29,10.1.41,2.79.7,5,1.83,6.64,3.41l.46.46c2.55,2.61,3.82,6.07,3.82,10.37,0,3.09-.77,5.95-2.32,8.55-1.55,2.61-3.87,4.81-6.96,6.6-3.09,1.79-7.04,2.96-11.83,3.5ZM329.07,249c2.61-.3,4.6-1.73,5.96-4.28,1.37-2.55,2.05-5.92,2.05-10.1,0-4.49-.7-7.87-2.09-10.15-1.4-2.28-3.34-3.26-5.82-2.96-2.55.24-4.52,1.65-5.92,4.23-1.4,2.58-2.09,6.08-2.09,10.51,0,4.19.67,7.42,2,9.69,1.33,2.28,3.31,3.29,5.92,3.05ZM342.72,223.7v-1.37l.55-.09,13.1-6.55,1.64.82v7.1l-15.29.09Z"/>
  <path class="b" d="M368.29,271.57c.12-1.58.2-3.65.23-6.23.03-2.58.06-5.26.09-8.05.03-2.79.05-5.25.05-7.37v-7.55c0-2.97-.03-5.38-.09-7.23-.06-1.85-.15-3.87-.27-6.05h-6.64v-2.18l19.84-7.83,1.18.73.73,10.1v18.47c0,2.12.01,4.58.05,7.37.03,2.79.06,5.48.09,8.05.03,2.58.08,4.66.14,6.23l-15.38,1.55ZM362.47,272.2v-2.82l9.46-1.91,7.19-.73,9.74-.09v2.82l-26.39,2.73ZM399.78,268.29c.06-1.58.11-3.65.14-6.23.03-2.58.06-5.26.09-8.05.03-2.79.05-5.28.05-7.46v-13.2c0-3.52-.52-5.92-1.55-7.19-1.03-1.27-2.61-1.82-4.73-1.64-1.76.18-3.91,1.15-6.46,2.91-2.55,1.76-5.07,4.31-7.55,7.64l-.27-4.28,1.64-.18c3.46-4.91,6.67-8.31,9.65-10.19,2.97-1.88,6.13-3.03,9.46-3.46,4.31-.42,7.81.67,10.51,3.28,2.7,2.61,4.05,6.89,4.05,12.83v12.01c0,2.18.01,4.67.05,7.46.03,2.79.08,5.46.14,8.01.06,2.55.12,4.61.18,6.19l-15.38,1.55ZM394.14,268.93v-2.82l9.28-1.91,7.1-.73,10.01-.18v2.82l-26.39,2.82Z"/>
  <path class="b" d="M452.28,271.11c-5.1.49-9.62-.09-13.56-1.73-3.94-1.64-7.04-4.32-9.28-8.05-2.25-3.73-3.37-8.42-3.37-14.06s1.21-10.54,3.64-14.7c2.43-4.15,5.6-7.45,9.51-9.87,3.91-2.43,8.08-3.85,12.51-4.28,4.73-.55,8.69-.06,11.88,1.46,3.19,1.52,5.58,3.76,7.19,6.73,1.61,2.97,2.41,6.4,2.41,10.28,0,2.06-.21,3.91-.64,5.55l-40.22,4.19v-3.28l21.57-2.27c2.12-.18,3.56-.91,4.32-2.18.76-1.27,1.14-3.31,1.14-6.1,0-4.06-.76-7.01-2.28-8.83-1.52-1.82-3.52-2.61-6.01-2.37-1.7.18-3.28,1.08-4.73,2.68-1.46,1.61-2.61,4.04-3.46,7.28-.85,3.25-1.27,7.48-1.27,12.69s.68,9.09,2.05,12.15c1.37,3.06,3.24,5.19,5.64,6.37,2.4,1.18,5.11,1.59,8.14,1.23,3.21-.3,5.88-1.21,8.01-2.73,2.12-1.52,3.94-3.4,5.46-5.64l1.73,1c-1.88,4.19-4.57,7.52-8.05,10.01-3.49,2.49-7.6,3.97-12.33,4.46Z"/>
  <path class="b" d="M485.04,271.57c.12-1.64.2-3.76.23-6.37.03-2.61.06-5.31.09-8.1.03-2.79.05-5.25.05-7.37v-7.55c0-3.03-.03-5.44-.09-7.23-.06-1.79-.15-3.75-.27-5.87l-6.64-.09v-2.18l19.84-7.83,1.18.73.73,13.01v15.56c0,2.12.01,4.58.05,7.37.03,2.79.06,5.48.09,8.05.03,2.58.08,4.66.14,6.23l-15.38,1.64ZM479.13,272.11v-2.82l9.74-2,10.01-1.09h9.92v2.82l-29.67,3.09ZM500.15,240.72l-3.55-5.55,2.91-.36c.85-3.58,2.08-6.66,3.69-9.24,1.61-2.58,3.41-4.56,5.41-5.96,2-1.39,3.97-2.21,5.92-2.46,2.18-.24,4.09.08,5.73.96,1.64.88,2.67,2.65,3.09,5.32-.06,2.06-.62,3.87-1.68,5.42-1.06,1.55-2.75,2.44-5.05,2.68-1.7.18-3.15-.15-4.37-1-1.21-.85-2.43-2.06-3.64-3.64l-2.09-2.37,2.91.36c-2.31,1.82-4.19,3.94-5.64,6.37-1.46,2.43-2.67,5.58-3.64,9.46Z"/>
</svg>