<svg id="a" data-name="图层 1" xmlns="http://www.w3.org/2000/svg" viewBox="0 0 1045 1069">
    <defs>
        <style>
            .c,.d,.e,.f,.g,.h{stroke-width:0}.c,.f{fill:#dfdee0}.d{fill:#3f4040}.e{fill:#d4d2d4}.f{opacity:.67}.g{fill:#c6c6c6}.h{fill:#0f0f11}</style>
    </defs>
    <path class="g"
        d="M27.08 589.69l5.25 21.48 150.82 140.47 290.11 258.98s45.99 38.39 52.86 40.39 17.65-2.59 21.26-7.3 24.63-29.83 24.63-29.83l257.73-308.04-21.35-123.57-781.3 7.42z" />
    <path
        d="M22.42 572.36l5.23 21.29L177.7 732.86l288.64 256.65s45.75 38.05 52.59 40.02 17.56-2.57 21.15-7.23 24.5-29.57 24.5-29.57L821 687.46 799.75 565l-777.33 7.36z"
        stroke-width="0" fill="#8c8c8c" />
    <path class="f"
        d="M225.15 345.08c.31-.68.97-1.2 1.7-.49.34.32.4.93.61 1.45-1.1.22-1.59.32-2.08.42-.09-.47-.4-1.03-.24-1.39z" />
    <path class="g"
        d="M345.55 867.07c2.22 1.19 4.3 2.91 6.66 3.49 2.31.56 3.98 4.53 6.56 2.1 2.38-2.24 3.28-5.8 3.32-9.06.08-6.72-1.96-13.43-.85-20.13.81-4.91-2.63-4.16-5.24-4.8-2.73.04-3.96-2.28-5.63-3.76-43.61-38.36-87.19-76.77-130.76-115.17-3.82-3.82-3.12-7.59.15-11.31 27.07-30.72 54.12-61.45 81.23-92.13 3.95-4.47 8.7-4.39 13.68 0 37.44 32.99 74.87 65.99 112.34 98.95 1.67 1.47 2.98 3.58 6.01 3.48-5.14-3.74-6.08-10.56-11.07-14.28-2.95-2.2-3.14-4.16-.74-6.68-3.14-2.98-7.62-2.62-11.25-4.51-2.83-1.47-5.36-3.07-4.54-6.51.74-3.1 1.55-6.73 5.4-7.66 3.8-.92 5.74 1.54 6.98 4.68.96 2.44 2.37 3.79 4.71 1.69 1.99-1.79 4.25-3.7 1.73-6.87-2.53-3.19-6.28-5.55-6.96-10.03-1.41-1.34-2.77-2.73-4.23-4.02-37.36-33.02-74.73-66.04-112.11-99.05-30.22-26.69-60.46-53.36-90.71-80.02-3.31-2.92-6.48-5.8-5.04-10.88-1.52-2.74 1.01-3.89 2.28-5.35 10.91-12.5 21.92-24.9 32.85-37.38 1.22-1.39 2.96-2.47 3.48-5.64-10.16 11.53-19.68 22.32-29.19 33.12-1.03 1.17-2.02 2.38-3.11 3.51-1.41 1.47-2.6 3.85-5.19 1.68-2.91-2.45-.46-4.1.97-5.77 4.19-4.85 8.46-9.63 11.85-15.25-5.19 5.88-10.37 11.77-16.03 18.18-1.35-3.36 1.35-4.16 1.68-5.99-2.29-.63-2.94 4.99-5.56 1.72-1.53-1.9-3.58-2.93-5.2-4.5-1.54-1.5.57-2.75 1.49-3.81 4.3-5.01 8.71-9.93 12.2-15.7-5.19 5.89-10.39 11.79-15.68 17.79-2.26-2.56 1.14-3.4.25-5.4-2.31 3.56-4.48 2.67-7.11.27-4.83-4.4-8.73-9.81-14.63-13.07-3.18-1.75-2.76-3.96-.42-6.57 9.62-10.69 19.17-21.45 28.52-32.37 3.09-3.61 4.89-.21 7.28 1.23-.19-2.56-3.38-2.78-2.67-5.64 3.33.41 4.6 4.05 7.78 4.9-.41-.64-.62-1.15-.99-1.51q-5.17-5.07.76-9.18 2.73-1.89 4.71-.17c2.91 2.55 5.8 5.11 9.45 6.85-2.63-2.32-5.02-5.04-7.95-6.88-5.39-3.37-3.38-6.51-.35-9.94 11.34-12.85 22.66-25.72 33.99-38.58 1.29-1.46 2.5-3 3.89-4.38 2.12-2.1 1.68-4.78 1.32-7.15-.31-2.04-3.01-4.1-3.99-1.73-2.7 6.58-10.44 6.41-13.95 11.68-1.96 2.96-4.66 5.42-7.52 7.69-.2-5.88 5.16-8.01 7.66-12.02 2.83-4.54 7.85-7.46 9.76-13.04 1.21-3.55 6.07-3.54 8.47-6.7 7.96-10.51 15.45-21.61 24.45-31.04 5.78-6.05 8.53-14.53 16.06-18.97 1.39-.82 3.96-2.57 2.12-4.58-.37-.4-.71-.57-1.04-.63l6.7-7.6c6.81-7.73 18.59-8.47 26.32-1.66l478.46 421.75c7.73 6.81 8.47 18.59 1.66 26.32l-279.14 316.68c-6.81 7.73-18.59 8.47-26.32 1.66L342.6 867.78c.05-.18.11-.37.27-.56.68-.8 1.78-.65 2.69-.17z" />
    <path class="f"
        d="M238.96 770.05c1.34.74 2.49 1.85 3.66 2.88 8.93 7.85 17.84 15.72 26.76 23.58 9.36 8.25 18.71 16.5 28.08 24.74 1.61 1.42 3.3 2.76 3.96 4.94.33 1.1 1.04 2.39-.17 3.18-1.41.92-1.87-.59-2.6-1.42-1.4-1.6-2.78-3.24-4.37-4.64-17.22-15.24-34.48-30.45-51.74-45.64-1.74-1.53-3.33-3.24-5.63-4.1-1.32-.49-3.43-1.23-2.22-3.18.88-1.42 2.88-1.1 4.27-.33z" />
    <path class="c"
        d="M27.08 589.69L342.59 867.8c.05-.18.11-.37.27-.56.68-.8 1.78-.65 2.69-.17 2.22 1.19 4.3 2.91 6.66 3.49 2.31.56 3.98 4.53 6.56 2.1 2.38-2.24 3.28-5.8 3.32-9.06.08-6.72-1.96-13.43-.85-20.13.81-4.91-2.63-4.16-5.24-4.8-2.73.04-3.96-2.28-5.63-3.76-43.61-38.36-87.19-76.77-130.76-115.17-3.82-3.82-3.12-7.59.15-11.31 27.07-30.72 54.12-61.45 81.23-92.13 3.95-4.47 8.7-4.39 13.68 0 37.44 32.99 74.87 65.99 112.34 98.95 1.67 1.47 2.98 3.58 6.01 3.48-5.14-3.74-6.08-10.56-11.07-14.28-2.95-2.2-3.14-4.16-.74-6.68-3.14-2.98-7.62-2.62-11.25-4.51-2.83-1.47-5.36-3.07-4.54-6.51.74-3.1 1.55-6.73 5.4-7.66 3.8-.92 5.74 1.54 6.98 4.68.96 2.44 2.37 3.79 4.71 1.69 1.99-1.79 4.25-3.7 1.73-6.87-2.53-3.19-6.28-5.55-6.96-10.03-1.41-1.34-2.77-2.73-4.23-4.02-37.36-33.02-74.73-66.04-112.11-99.05-30.22-26.69-60.46-53.36-90.71-80.02-3.31-2.92-6.48-5.8-5.04-10.88-1.52-2.74 1.01-3.89 2.28-5.35 10.91-12.5 21.92-24.9 32.85-37.38 1.22-1.39 2.96-2.47 3.48-5.64-10.16 11.53-19.68 22.32-29.19 33.12-1.03 1.17-2.02 2.38-3.11 3.51-1.41 1.47-2.6 3.85-5.19 1.68-2.91-2.45-.46-4.1.97-5.77 4.19-4.85 8.46-9.63 11.85-15.25-5.19 5.88-10.37 11.77-16.03 18.18-1.35-3.36 1.35-4.16 1.68-5.99-2.29-.63-2.94 4.99-5.56 1.72-1.53-1.9-3.58-2.93-5.2-4.5-1.54-1.5.57-2.75 1.49-3.81 4.3-5.01 8.71-9.93 12.2-15.7-5.19 5.89-10.39 11.79-15.68 17.79-2.26-2.56 1.14-3.4.25-5.4-2.31 3.56-4.48 2.67-7.11.27-4.83-4.4-8.73-9.81-14.63-13.07-3.18-1.75-2.76-3.96-.42-6.57 9.62-10.69 19.17-21.45 28.52-32.37 3.09-3.61 4.89-.21 7.28 1.23-.19-2.56-3.38-2.78-2.67-5.64 3.33.41 4.6 4.05 7.78 4.9-.41-.64-.62-1.15-.99-1.51q-5.17-5.07.76-9.18 2.73-1.89 4.71-.17c2.91 2.55 5.8 5.11 9.45 6.85-2.63-2.32-5.02-5.04-7.95-6.88-5.39-3.37-3.38-6.51-.35-9.94 11.34-12.85 22.66-25.72 33.99-38.58 1.29-1.46 2.5-3 3.89-4.38 2.12-2.1 1.68-4.78 1.32-7.15-.31-2.04-3.01-4.1-3.99-1.73-2.7 6.58-10.44 6.41-13.95 11.68-1.96 2.96-4.66 5.42-7.52 7.69-.2-5.88 5.16-8.01 7.66-12.02 2.83-4.54 7.85-7.46 9.76-13.04 1.21-3.55 6.07-3.54 8.47-6.7 7.96-10.51 15.45-21.61 24.45-31.04 5.78-6.05 8.53-14.53 16.06-18.97 1.39-.82 3.96-2.57 2.12-4.58-.37-.4-.71-.57-1.04-.63L25.42 563.37c-6.81 7.73-6.07 19.51 1.66 26.32zm200.38-243.65c-1.1.22-1.59.32-2.08.42-.09-.47-.4-1.03-.24-1.39.31-.68.97-1.2 1.7-.49.34.32.4.93.61 1.45zm11.5 424.01c1.34.74 2.49 1.85 3.66 2.88 8.93 7.85 17.84 15.72 26.76 23.58 9.36 8.25 18.71 16.5 28.08 24.74 1.61 1.42 3.3 2.76 3.96 4.94.33 1.1 1.04 2.39-.17 3.18-1.41.92-1.87-.59-2.6-1.42-1.4-1.6-2.78-3.24-4.37-4.64-17.22-15.24-34.48-30.45-51.74-45.64-1.74-1.53-3.33-3.24-5.63-4.1-1.32-.49-3.43-1.23-2.22-3.18.88-1.42 2.88-1.1 4.27-.33z" />
    <path class="c"
        d="M27.08 589.69L342.59 867.8c.05-.18.11-.37.27-.56.68-.8 1.78-.65 2.69-.17 2.22 1.19 4.3 2.91 6.66 3.49 2.31.56 3.98 4.53 6.56 2.1 2.38-2.24 3.28-5.8 3.32-9.06.08-6.72-1.96-13.43-.85-20.13.81-4.91-2.63-4.16-5.24-4.8-2.73.04-3.96-2.28-5.63-3.76-43.61-38.36-87.19-76.77-130.76-115.17-3.82-3.82-3.12-7.59.15-11.31 27.07-30.72 54.12-61.45 81.23-92.13 3.95-4.47 8.7-4.39 13.68 0 37.44 32.99 74.87 65.99 112.34 98.95 1.67 1.47 2.98 3.58 6.01 3.48-5.14-3.74-6.08-10.56-11.07-14.28-2.95-2.2-3.14-4.16-.74-6.68-3.14-2.98-7.62-2.62-11.25-4.51-2.83-1.47-5.36-3.07-4.54-6.51.74-3.1 1.55-6.73 5.4-7.66 3.8-.92 5.74 1.54 6.98 4.68.96 2.44 2.37 3.79 4.71 1.69 1.99-1.79 4.25-3.7 1.73-6.87-2.53-3.19-6.28-5.55-6.96-10.03-1.41-1.34-2.77-2.73-4.23-4.02-37.36-33.02-74.73-66.04-112.11-99.05-30.22-26.69-60.46-53.36-90.71-80.02-3.31-2.92-6.48-5.8-5.04-10.88-1.52-2.74 1.01-3.89 2.28-5.35 10.91-12.5 21.92-24.9 32.85-37.38 1.22-1.39 2.96-2.47 3.48-5.64-10.16 11.53-19.68 22.32-29.19 33.12-1.03 1.17-2.02 2.38-3.11 3.51-1.41 1.47-2.6 3.85-5.19 1.68-2.91-2.45-.46-4.1.97-5.77 4.19-4.85 8.46-9.63 11.85-15.25-5.19 5.88-10.37 11.77-16.03 18.18-1.35-3.36 1.35-4.16 1.68-5.99-2.29-.63-2.94 4.99-5.56 1.72-1.53-1.9-3.58-2.93-5.2-4.5-1.54-1.5.57-2.75 1.49-3.81 4.3-5.01 8.71-9.93 12.2-15.7-5.19 5.89-10.39 11.79-15.68 17.79-2.26-2.56 1.14-3.4.25-5.4-2.31 3.56-4.48 2.67-7.11.27-4.83-4.4-8.73-9.81-14.63-13.07-3.18-1.75-2.76-3.96-.42-6.57 9.62-10.69 19.17-21.45 28.52-32.37 3.09-3.61 4.89-.21 7.28 1.23-.19-2.56-3.38-2.78-2.67-5.64 3.33.41 4.6 4.05 7.78 4.9-.41-.64-.62-1.15-.99-1.51q-5.17-5.07.76-9.18 2.73-1.89 4.71-.17c2.91 2.55 5.8 5.11 9.45 6.85-2.63-2.32-5.02-5.04-7.95-6.88-5.39-3.37-3.38-6.51-.35-9.94 11.34-12.85 22.66-25.72 33.99-38.58 1.29-1.46 2.5-3 3.89-4.38 2.12-2.1 1.68-4.78 1.32-7.15-.31-2.04-3.01-4.1-3.99-1.73-2.7 6.58-10.44 6.41-13.95 11.68-1.96 2.96-4.66 5.42-7.52 7.69-.2-5.88 5.16-8.01 7.66-12.02 2.83-4.54 7.85-7.46 9.76-13.04 1.21-3.55 6.07-3.54 8.47-6.7 7.96-10.51 15.45-21.61 24.45-31.04 5.78-6.05 8.53-14.53 16.06-18.97 1.39-.82 3.96-2.57 2.12-4.58-.37-.4-.71-.57-1.04-.63L25.42 563.37c-6.81 7.73-6.07 19.51 1.66 26.32zm200.38-243.65c-1.1.22-1.59.32-2.08.42-.09-.47-.4-1.03-.24-1.39.31-.68.97-1.2 1.7-.49.34.32.4.93.61 1.45zm11.5 424.01c1.34.74 2.49 1.85 3.66 2.88 8.93 7.85 17.84 15.72 26.76 23.58 9.36 8.25 18.71 16.5 28.08 24.74 1.61 1.42 3.3 2.76 3.96 4.94.33 1.1 1.04 2.39-.17 3.18-1.41.92-1.87-.59-2.6-1.42-1.4-1.6-2.78-3.24-4.37-4.64-17.22-15.24-34.48-30.45-51.74-45.64-1.74-1.53-3.33-3.24-5.63-4.1-1.32-.49-3.43-1.23-2.22-3.18.88-1.42 2.88-1.1 4.27-.33zM421.2 697.77v-.01.01z" />
    <path class="f" d="M421.2 697.77v-.01.01z" />
    <path class="d"
        d="M612.51 124.78c-7.45 4.45-14.86 2.85-22.52-.23-.68 3.54-2.42 4.02-6.29 4.27-13.06.85-19.97-9.01-27.96-15.69-30.8-25.74-60.77-52.47-91.05-78.84-5.44-4.74-10.86-9.49-17.02-13.3-9.53-5.9-17.46-4.49-23.37 5.09-7.98 12.95-13.5 27.19-20.15 40.83-5.04 10.33-9.92 20.74-14.85 31.12-.66 1.39-1.5 2.76-1.1 4.43 2.05-1.17 2.52-3.45 3.42-5.3 9.21-19.12 18.25-38.32 27.41-57.46 2.6-5.42 4.64-11.23 9.21-15.46 3.12-2.89 5.97-4.61 10.64-1.45 5.15 3.48 10.44 6.69 15.13 10.83 106.61 94.09 213.23 188.17 319.89 282.19 77.72 68.52 155.5 136.97 233.31 205.38 4.98 4.38 8.25 10.76 14.24 13.68 4.82 2.34 4.5 5.72 4.1 9.61-.13 1.25-1.51 2.41-.17 3.73 5.71-3.51 3.95-8.26 1.76-12.68-3.54-7.17-8.84-13.23-14.66-18.51-22.5-20.44-45.27-40.6-68.05-60.72-7.25-6.4-13.36-13.92-20.76-20.2-2.61-2.21-3.74-7.54-4.06-10.59-.87-8.34-6.66-14.73-7.21-23.37-.29-4.52-1.03-13.31-10.53-14.37-3.85-.43-1.36-5.32-.35-8.23L612.51 124.79z" />
    <path class="h"
        d="M1021.65 552.38c-1.56-.97-2.44.29-3.58.98-24.64 14.87-49.34 29.63-73.94 44.56-39.22 23.8-78.38 47.72-117.57 71.58-1.15.7-2.51 1.16-2.97 2.63-2.48 1.65-5.2 2.05-8.09 1.61-4.1-1.42-8.21-2.83-12.31-4.25-12.81-11.42-25.61-22.84-38.43-34.25-10.24-9.12-10.46-9.28-19.17 1.15-3.6 4.31-5.89 4.47-10.15.69-119.17-105.52-238.45-210.9-357.72-316.31q-10.63-9.4-1.17-20.32c.26-.29.48-.63.77-.88 3.11-2.64 2.77-4.71-.36-7.4-13.91-11.95-27.67-24.07-41.37-36.25-6.79-6.04-12.69-16.59-6.59-27.67 5.25-9.54 9.11-19.83 13.76-29.7 9.71-20.64 19.53-41.23 29.31-61.84 1.29-.54 1.85-1.42 1.33-2.81.33-.71.66-1.42.98-2.13 2.83-2.31 3.72-5.53 4.17-8.94.33-.71.67-1.42 1-2.14 2.19-1.24 2.7-3.28 2.63-5.59.34-.7.68-1.41 1.03-2.11 2.16-1.26 2.76-3.26 2.63-5.59.79-1.64 1.57-3.29 2.36-4.93 2.05-1.17 2.52-3.45 3.42-5.3 9.21-19.12 18.25-38.32 27.41-57.46 2.6-5.42 4.64-11.23 9.21-15.46 3.12-2.89 5.97-4.61 10.64-1.45 5.15 3.48 10.44 6.69 15.13 10.83C560.62 127.72 667.24 221.8 773.9 315.82c77.72 68.52 155.5 136.97 233.31 205.38 4.98 4.38 8.25 10.76 14.24 13.68 4.82 2.34 4.5 5.72 4.1 9.61-.13 1.25-1.51 2.41-.17 3.73-.67 1.91-1.93 3.28-3.73 4.18zM354.93 244.62c12.41 10.66 23.35 22.9 35.97 33.37 3.47 2.88 5.93 4.2 8.79-.28 3.16-4.94 5.7-1.6 8.31.7 55.18 48.66 110.35 97.33 165.54 145.98 64.7 57.04 129.36 114.13 194.21 171.01 4.77 4.18 5.44 7.63 1.48 12.1-2.16 2.44-1.37 3.93.74 5.77 12.5 10.9 24.96 21.86 37.35 32.88 2 1.78 3.84 2.55 6.21.94 5.94-4.03 11.84-8.13 17.86-12.04 3.73-2.42 3.21-5.03.54-7.61-3.18-3.07-6.7-5.86-9.77-8.95-7.75-7.83-16.49-14.47-24.68-21.76-1.65-1.47-1.69-2.91-.55-4.6 6.94-10.27 13.97-20.49 20.81-30.82 11.45-17.28 22.76-34.64 34.18-51.94 3.1-4.69 6.53-9.19 8.21-14.67.63-2.04 1.6-4.77-1.32-5.36-2.77-.57-6.9-2.88-8.49.66-2.84 6.33-8.32 10.67-11.51 16.34-5.38 9.57-12.71 17.61-18.85 26.53-5.48 7.96-10.62 16.18-16.44 23.97-5.89 7.88-13.14 15.08-16.48 24.79-1.04 3.02-1.29 11.06.33 15.72-3.45-.85-6.63-2.15-8.45-4.54-5.06-6.6-11.71-11.42-17.8-16.84-28.87-25.68-58.47-50.57-86.68-76.96-32.49-30.39-66.49-59.04-99.44-88.89-.98-.88-1.82-1.92-3.18-3.36 3.41-.53 4.62 1.82 6.14 3.16 41.19 36.2 82.33 72.45 123.48 108.7 1.17 1.03 2.32 2.09 3.52 3.09 1.74 1.45 3.23 1.88 3.25-1.19.03-5.26 3.07-8.04 7.67-9.66 3.18-1.12 4.81-4 6.38-6.58 1.74-2.87 3.44-5.71 6.17-7.66 1.63-1.17 2.24-2.02.55-3.55-1.75-1.59-3.3-1.37-4.16.72-1.61 3.92-4.78 6.61-7.34 9.77-.97 1.19-1.98 2.95-3.64 2.61-3.45-.7-4.12 1.68-5.47 3.86-3.66 5.9-6.32 5.9-11.15.89-3.65-3.78-7.75-7.12-11.58-10.72-1.77-1.66-4.83-3.1-3.39-6.07 1.5-3.1 3.78-6.97 7.54-6.45 3.37.47 3.74-1.35 5.15-3.05 2.86-3.44 5.75-6.93 9.11-9.85 2.29-1.99 1-2.83-.33-4.02-1.26-1.13-2.4-1.96-3.62.3-1.47 2.72-3.19 5.33-5.02 7.83-2.17 2.95-4.16 6.45-8.93 4.44-3.04-1.28-2.87 1.7-3.79 3.13-3.94 6.1-5.2 6.3-10.64 1.52-3.96-3.48-7.96-6.91-11.81-10.5-2.39-2.23-6.61-4.1-2.96-8.4 2.85-3.36 5.4-8.51 10.64-2.29 2.23-6.31 6.58-10.24 10.72-14.32.91-.89 2.87-1.13 2.25-2.88-.34-.96-1.44-1.94-2.42-2.31-1.95-.74-2.88.98-3.44 2.34-1.16 2.79-3.19 4.88-5.08 7.1-2.5 2.93-4.62 6.73-9.38 2.73-1.85-1.56-2.37.77-3.17 2.05-4.96 7.98-6.11 8.13-13.07 1.97-4.24-3.75-8.44-7.55-12.72-11.25-2.66-2.3-2.66-4.62-.21-6.95 2.33-2.21 4-6.8 8.35-3.16 2.52 2.11 3.63 1.98 4.87-1.18 1.74-4.44 4.95-7.88 8.82-10.65 1.12-.8 2.6-1.54 2.02-3.12-.36-.96-1.44-1.91-2.42-2.33-1.69-.73-2.51.73-3 1.98-1.41 3.58-4.47 5.87-6.68 8.81-2.34 3.12-4.8 4.5-8.15 1.2-2.15-2.12-3.01-.57-4.22 1.43-4.85 8.01-6.06 8.12-13.04 1.95-3.8-3.36-7.52-6.83-11.43-10.05-3.21-2.64-4.58-5.06-1.08-8.64 3-3.07 5.67-5.71 9.58-1.37.64.71 1.43 1.28 2.43 2.17 2.69-5.96 6.96-10.27 11.56-14.28.86-.75 2.29-1.15 1.84-2.57-.48-1.55-1.84-2.55-3.29-3.12-1.42-.56-2.04.61-2.5 1.75-1.27 3.19-4.06 5.2-6.04 7.83-2.88 3.83-5.81 6.62-10.2 1.66-1.56-1.76-2.93-1.26-3.96.94-.73 1.56-1.93 2.9-2.95 4.31-2.4 3.33-4.88 3.15-7.76.44-3.98-3.74-8.17-7.26-12.26-10.88-6.67-5.9-6.64-6.94.04-13.09 1.04-.96 4.07-1.32 1.85-3.72-1.65-1.78-3.19-4.07-5.53.12-4.55 8.14-6.1 8.16-13.01 2.05-3.8-3.36-7.44-6.93-11.45-10.02-4.2-3.24-4.04-6.17-.31-9.49 1.02-.91 1.88-1.98 2.85-2.95 1.68-1.67 1.18-3.08-.46-4.39-2.13-1.7-2.75-.3-3.84 1.44-5.14 8.27-6.16 8.35-13.46 1.89-3.36-2.98-6.73-5.94-10.08-8.92-5.71-5.07-5.7-6.27-.23-11.46 1.02-.97 3.46-1.1 2.73-3.17-.4-1.13-1.72-2.26-2.89-2.72-2.73-1.08-2.38 1.91-3.27 3.05-4.55 5.85-5.8 6.03-11.54.99-3.52-3.09-7.02-6.2-10.53-9.31-6.6-5.84-6.7-6.77-.06-12.47 1.75-1.51 3.14-2.33.76-4.31-1.67-1.4-2.57-2.25-4.36.45-5.27 7.95-5.98 7.86-13.18 1.51-3.36-2.97-6.73-5.94-10.09-8.92-5.8-5.15-5.78-6.18-.28-11.4 1.03-.97 3.51-1.19 2.77-3.17-.48-1.27-2.01-2.65-3.33-3-2.08-.54-1.97 1.97-2.83 3.09-4.57 5.97-5.81 6.14-11.49 1.14-3.81-3.35-7.61-6.72-11.4-10.09-5.56-4.95-5.51-6.66.35-11.22.61-.48 1.36-.78 1.98-1.24 1.58-1.2 1.66-2.51.17-3.88-1.27-1.18-2.58-1.86-4-.26-1.17 1.31-2.37 2.61-3.42 4.01-2.65 3.53-5.28 3.99-8.68.72-4.5-4.32-9.19-8.48-14.05-12.38-4.14-3.33-3.58-6.66.35-8.81 5.96-3.26 8.94-9.59 14.41-13.06 7.83-4.98 12.62-13.32 20.91-17.87 3.1-1.7 4.78-5.85 7.97-8.12 6.42-4.58 11.53-10.6 17.32-15.87 3.07-2.79 5.99-2.85 9.21.2 5.24 4.96 10.9 9.47 16.17 14.4 2.64 2.46 4.32 2.85 7.08-.13 11.85-12.77 11.96-12.68 25.07-1.17q8.82 7.74.53 16.39c-1.2 1.25-2.62 2.3-3.99 3.38-1.72 1.36-2.87 2.66-.77 4.71 3.42 3.35.95 5.96-1.32 8.43-2.11 2.29-4.41 4.4-6.56 6.65-.93.97-2.13 2.24-.63 3.45s2.39-.4 3.32-1.32c2.76-2.71 4.92-5.96 8.42-8.02 2.46-1.45 4.2-1.41 6.24.45 3.75 3.42 7.65 6.67 11.4 10.09 2.35 2.14 4.34 2.15 6.43-.36 2.12-2.55 4.3-5.07 6.67-7.39 3.51-3.45 7.16-4.4 11.18-.44 3.33 3.28 6.85 6.41 10.54 9.28 4.11 3.2 3.82 6.52.68 9.92-2.63 2.84-5.64 5.33-8.4 8.06-1.08 1.07-2.42 2.33-.72 3.93 1.69 1.6 2.78.24 3.84-.95 2.73-3.05 5.5-6.08 8.18-9.18 2.83-3.28 5.71-3.62 9.02-.63 5.94 5.36 11.96 10.64 18 15.88 3.09 2.68 3.53 5.52.69 8.55-6.32 6.74-12.73 13.4-19.09 20.1-.94.99-1.88 1.98-2.75 3.04-.71.86-1.9 1.83-.81 2.99 1.42 1.52 2.46.08 3.32-.88 6.42-7.18 14.02-13.18 20.02-20.81 4.51-5.74 6.94-5.61 12.53-.69 25.05 22.04 50.08 44.11 75.13 66.17 5.94 5.23 12.95 7.83 20.57 9.93 4.42 1.22 8.06 5.65 11.8 8.91 7.05 6.15 13.92 12.51 20.89 18.74.54.49 1.58 1.14 2.01.93 6.32-3.03 8.5 2.76 11.95 5.61 6.12 5.05 11.96 10.45 18.16 15.41 2.86 2.29 5.44 1.31 5.32-2.58-.13-4.56-.2-9.21-3.64-13.09-2.5-2.82-5.13-5.15-4.25-10.43.98-5.88-5.36-9.94-9.34-13.29-5.99-5.04-7.7-11.29-9.2-18.09-1.11-5.01-3.59-6.05-7.48-2.75-2.21 1.88-4.13 4.17-5.88 6.51-2.89 3.86-6.23 3.9-9.51 1.04-14.42-12.56-28.66-25.33-43.1-37.87-2.53-2.2-1.23-5.63-3.45-7.83-6.97-6.94-11.46-14.9-10.66-25.27.13-1.65-2.02-3.62-3.39-5.2-4.21-4.84-4.04-11.18-4.76-16.76-.98-7.6-4.6-13.67-9.08-18.85-4.92-5.68-8.57-12.47-14.9-17.06-2.99-2.17-6.23-3.92-9.17-6.16-2.75-2.1-4.87.4-6.53 1.96-3.11 2.93-5.85 6.28-8.61 9.57-1.66 1.98-3.6 3.35-7.3 4.72 5.66-6.42 10.12-12.08 15.23-17.09 4.06-3.99 3.08-6.24-.79-9.63-33.34-29.17-66.7-58.32-99.64-87.94-14.8-13.31-29.23-27.04-44.1-40.3-4.31-3.84-7.78-5.63-12.12-.23-3.12 3.88-8.68 2.69-12.61 5.56-6.85 4.99-14.26 9.21-21.35 13.89-2.59 1.72-4.72 1.23-5.68-1.36-.77-2.06-2.3-5.07 1.37-6.37 1.32-.47 2.54-.88 3.47-1.98 1.2-1.4 2.11-3.06 1.63-4.8-.63-2.25-2.77-1.69-4.47-1.62-4.63.18-9.12 3.4-13.92-1.26-1.84-1.79-5.02.88-3.72 4.69.36 1.06.83 2.55-.75 2.89-1.43.31-1.71-1.12-2.14-2.24-.69-1.8.93-5.45-1.91-5.16-2.77.28-6.12 1.66-7.9 4.5-2.97 4.75-5.98 9.5-8.55 14.47-15.08 29.12-30.02 58.31-45.03 87.47-3.29 6.39-6.94 12.6-9.2 19.48-.81 3.42-4.06 5.75-4.23 9.46-2.83 2.14-2.94 4.1-.09 6.54zM745.4 407.63c1.33-1.66 2.74-3.23 4.73-4.25 3.8-1.94 4.19-4.32.55-6.91-1.19-.85-2.09-2.7-3.9-1.86-1.86.87-1.33 2.58-.81 4.07.96 2.77-.83 4.5-2.47 6.08-7.51 7.26-12.72 16.37-19.59 24.14-.86.98-2.27 2.19-.85 3.44s2.42-.3 3.3-1.27c1.7-1.87 3.35-3.79 5.31-6.01 4.39-5.59 9.03-11.53 13.73-17.43zM549.69 302.44c-1.51 1.76-2.94 3.3-.41 5.29 3.2 2.52 2.09 5.16-.09 7.48-2.38 2.54-5.1 4.74-7.59 7.18-1.2 1.18-2.87 2.51-.81 4.32 1.69 1.48 2.78.17 3.86-1.02 3.13-3.44 5.96-7.15 9.93-9.79 2.54-1.69 1.59-3.55-.4-5.13-2.61-2.07-2.27-4.26-.14-6.44 2.71-2.77 4.79-6.16 8.11-8.33 1-.65 2.27-1.33 1.69-2.63-.42-.96-1.49-1.87-2.48-2.28-1.4-.57-2.01.67-2.48 1.78-1.72 4.48-6.31 6.2-9.19 9.58zm-10.74 46.59c-1.53 1.07-2.35 2.06-.75 3.67 1.44 1.45 2.73 1.84 4.38.04 3.67-3.99 6.7-8.57 11.26-11.76 2.1-1.47.79-3.16-.68-4.27-1.74-1.32-3.26-1.06-4.33 1.87-2.77 3.35-5.67 7.52-9.88 10.46zm166.13 98c2.2-1.62.58-2.57-.5-3.56-1.13-1.04-2.69-2.45-3.72-.26-2.3 4.84-6.37 8.2-9.64 12.22-1.47 1.81-1.16 3.06.52 4.33 1.64 1.24 2.4.32 3.11-1.58 3.13-3.6 5.98-8.03 10.23-11.15zm-64.09-35.59c-1.68 1.84-.73 3.15.83 4.29 1.73 1.26 2.12-.21 2.94-1.35 2.91-4.08 5.96-8.13 9.98-11.18 2.36-1.79 1.09-2.73-.25-3.99-1.61-1.51-2.7-1.68-3.88.69-1.01 2.03-2.73 3.71-4.13 5.54-.03-.03-.07-.05-.1-.08-1.79 2.03-3.55 4.08-5.37 6.08zm-11.24-30.16c1.66-1.76 1.04-3.1-.6-4.34-1.82-1.37-2.66-.36-3.51 1.28-2.28 4.37-5.81 7.75-9.36 11.03-1.37 1.27-2.3 2.01-.53 3.56 1.43 1.25 2.66 1.35 3.96-.18 1.76-2.07 3.59-4.09 5.39-6.13 0 0 .01 0 .02.01 1.54-1.75 3.04-3.54 4.64-5.24zM466.56 256.84c-1.01 1.2-2.27 2.35-.63 3.92 1.62 1.55 2.82.49 3.84-.8 2.89-3.68 6.57-6.51 10.11-9.49.93-.78 2.99-1.06 2.13-2.84-.54-1.12-1.77-2.13-2.93-2.66-1.96-.9-1.94 1.2-2.64 2.18-.45.63-.93 1.24-2.2 2.93-1.36 2.25-5.18 3.79-7.68 6.76zm10.64 18.78c1.34-1.07 2.62-1.92 1.08-3.62-1.23-1.36-2.6-2.39-4.35-.49-3.66 3.96-6.74 8.47-11.37 11.49-1.61 1.05-.83 2.35.3 3.33 1.01.87 2.12 2 3.24.08.49-.83.97-1.66 1.54-2.62 3.12-2.69 6.26-5.53 9.56-8.18zm39.56 25.09c-1.03 1.45-2.56 2.73-.49 4.38 1.82 1.44 2.73-.19 3.81-1.27 3.28-3.3 5.81-7.33 9.75-9.97 1.01-.67 2.18-1.39 1.5-2.68-.5-.95-1.53-1.83-2.53-2.26-1.32-.56-2.07.59-2.64 1.66-2.22 4.22-6.69 6.36-9.4 10.14zm49.08 44.58c-1.83 1.44-1.52 2.36-.11 3.61 1.46 1.28 2.83 1.39 3.66-.59 2.06-4.93 6.88-7.18 10.32-10.76.74-.77 2.41-1.12 1.51-2.55-.69-1.09-1.82-2.07-2.98-2.64-1.55-.75-1.71.92-2.33 1.8-1.1 1.58-2.32 3.08-3.66 4.85-1.99 1.98-4.01 4.37-6.42 6.27zm82.91 44.97c-1.01 1.15-1.41 2.33 0 3.47 1.12.89 2.14.64 3.03-.37 3.33-3.77 6.69-7.52 9.94-11.35 1.44-1.7.12-2.87-1.15-3.8-1.72-1.26-2.15.18-2.93 1.37-1.26 1.93-2.79 3.69-4.21 5.52l-.09-.07c-1.54 1.74-3.08 3.48-4.6 5.23zm24.55 21.8c-1.06 1.21-1.19 2.39.22 3.45 1.21.9 2.17.34 3-.59 3.21-3.61 6.38-7.26 9.6-10.87 1.39-1.56.81-2.75-.56-3.9-1.91-1.59-2.47-.23-3.36 1.25-1.08 1.8-2.56 3.37-3.26 4.27-2.32 2.63-3.98 4.51-5.64 6.4zm-158.91-85.54c-.98 1.38-2.8 2.55-.81 4.34 2.02 1.82 3.01-.12 4.18-1.32 3.23-3.31 5.76-7.31 9.87-9.73.99-.58 1.98-1.6 1.23-2.85-.56-.93-1.53-1.85-2.52-2.24-1.4-.55-1.93.79-2.19 1.21-2.14 5.16-7.08 6.8-9.76 10.6zm235.89 160.59c-1.3 5.02-5.46 7.92-8.34 11.76-1 1.34-2.87 2.67-.7 4.35 2.15 1.66 3.17-.52 4.12-1.77 2.9-3.82 4.82-8.35 9.28-10.99 2.06-1.22.06-2.59-.91-3.66-1.28-.99-2.76-2.34-3.44.32zm-87.77-130.7c1.12-1.33.71-2.51-.59-3.42-1.25-.87-2.72-1.13-3.46.43-1.96 4.13-5.56 6.88-8.26 10.37-.92 1.19-2.36 2.35-.72 3.94 1.65 1.59 2.76.27 3.81-.91 1.55-1.72 3.07-3.47 4.6-5.21 0 0 .02.01.02.02 1.53-1.74 3.09-3.46 4.59-5.22zm-138.22-75.08c-1.17 1.06-2.93 1.63-.99 3.45 1.25 1.17 2.49 1.82 3.99.27 3.76-3.91 6.78-8.51 11.41-11.61 1.6-1.07.42-2.39-.66-3.33-1.27-1.11-2.33-1.23-3.17.56-.49 1.04-1.24 1.96-1.87 2.93-2.31 3.25-5.84 5.13-8.71 7.73zm205.15 187.63c2.5-1.91.78-2.81-.44-3.96-1.32-1.25-2.41-1.69-3.53.47-2.42 4.64-5.39 8.92-9.05 12.7-1.14 1.18-1.13 2.47.24 3.46 1.6 1.16 2.43.06 3.01-1.32 2.75-4.23 5.76-8.29 9.78-11.35zM624.97 342.93c-.83.97-1.19 2.02-.13 3.08 1 .99 2.1 1.03 3.04-.01 3.41-3.75 6.79-7.52 10.13-11.33.91-1.04.73-2.15-.36-3.03-1.11-.9-2.15-.71-3.06.3-1.69 1.88-3.36 3.8-5.03 5.7l.04.04c-1.55 1.75-3.11 3.5-4.63 5.27zM498.63 260.3c-1.4 1.01-.86 1.97.11 2.81.96.83 1.9 2.14 3.29.34 3.3-4.28 7.35-7.8 11.56-11.13 1.69-1.34 1.46-2.5.03-3.77-1.38-1.22-2.99-1.69-3.65.41-1.43 4.53-6.57 5.37-8.35 9.07-1.14.88-2.04 1.6-2.98 2.28zm6.27 7.12c-3.21-2.84-3.15.96-4.32 2.18-3.07 3.22-5.56 7-9.38 9.48-1.32.86-2.08 1.89-.79 3.28 1.1 1.19 2.42 1.26 3.48-.07 2.93-3.66 6.59-6.55 9.31-8.84 2.2-2.33 4.22-3.79 1.69-6.03zm-15.87 36.99c-1.28.85-2.72 1.92-1.24 3.7 1.27 1.52 2.62 1.3 3.85-.19 3.2-3.88 6.78-7.34 10.73-10.46 1.69-1.33 1.72-2.85-.02-4.32-1.59-1.34-2.72-1.21-3.58 1.24-2.8 3.4-5.63 7.3-9.72 10.03zm87.32-5.59c-.77 1.3-2.31 2.38-.65 3.95 1.65 1.57 2.72.21 3.83-.91 3.12-3.13 5.45-7 9.29-9.45 1.75-1.12 1.26-2.68.01-3.91-1.85-1.81-3.06-.69-4.03 1.07-1.27 4.49-6.27 5.56-8.45 9.25zM779.2 512.28c1.74-.79.71-2.25-.36-3.26-1.37-1.29-2.83-1.51-3.82.27-2.43 4.36-4.91 8.68-8.14 12.52-1.06 1.26-2.04 2.66-.24 3.9 2.3 1.58 2.27-.99 3.1-2 .49-.6.94-1.22 1.5-1.94 3.15-2.61 3.63-7.54 7.96-9.5zM587.34 317.25c1.92-1.05 1.41-2.45 0-3.69-1.46-1.28-2.75-1.38-3.66.58-1.85 3.98-4.94 6.78-8.44 9.31-1.66 1.21-3.81 3.06-1.63 5.19 2.24 2.19 3.17-.83 4.42-1.96 1.14-1.03 2.07-2.29 3.43-3.84 1.68-1.66 3.23-4.15 5.89-5.6zm15.49 68.64c.82-.74 2.37-1.15 1.45-2.59-.58-.91-1.64-1.81-2.65-2.07-1.39-.36-1.74 1.1-2.35 2.1-2.43 4.03-5.54 7.51-9.21 10.45-.91.73-2.27 1.32-1.64 2.65.46.96 1.51 1.85 2.51 2.28 1.43.62 2-.65 2.89-2.73 2.18-3.18 5.37-6.83 9-10.09zm107.78 39.97c1.71-1.83.8-3.14-.78-4.28-1.71-1.24-2.05.29-2.97 1.32-3.2 3.6-4.71 8.47-8.71 11.43-1.23.91-1.34 1.79-.17 2.76 1.09.91 2.15.67 3.04-.32 1.68-1.87 3.33-3.77 5-5.66-.01 0-.02-.02-.03-.03 1.54-1.74 3.03-3.52 4.62-5.22zm49.36 43.17c1.42-1.62.61-2.81-.75-3.88-1.75-1.38-2.61-.51-3.52 1.17-2.1 3.91-4.2 7.84-7.36 11.06-1.17 1.19-2.02 2.62-.23 3.9 1.83 1.3 2.13-.53 2.88-1.58 1.23-1.74 2.61-3.37 3.11-4.01 2.54-2.88 4.21-4.77 5.87-6.66zM564.4 371.46c-2.17 1.22-2.01 2.56-.27 4.07 1.66 1.43 2.36.82 3.49-.89 2.68-4.06 5.83-7.8 9.73-10.78.94-.72 2.28-1.32 1.71-2.63-.42-.97-1.47-1.89-2.46-2.32-1.57-.68-1.73.97-2.35 1.87-1 1.43-2.11 2.79-2.94 3.89-2.55 2.39-4.1 5.22-6.91 6.8zm40.29-12.3c1.74-1.35 1.79-2.26.25-3.59-1.39-1.2-2.68-1.6-3.71.4-2.35 4.56-5.76 8.15-9.91 11.12-1.17.84-2.05 1.98-.79 3.38 1.36 1.51 2.66 1.12 3.87-.32 1.37-1.63 2.81-3.2 4.22-4.8l-.12-.12c2.05-2.05 3.93-4.31 6.19-6.07zm74.58 65.85c1.64-1.33 1.97-2.17.38-3.59-1.41-1.25-2.97-1.6-3.82.29-2.14 4.74-6.05 8.05-9.23 11.93-1.16 1.41-1.66 2.76.13 3.89 1.94 1.23 2.09-.77 2.82-1.75 1.04-1.4 2.15-2.75 3.86-4.92 1.47-1.5 3.47-3.93 5.87-5.86zm55.92 22.56c1.68-1.81.84-3.15-.76-4.3-1.74-1.25-2.14.21-2.95 1.36-2.68 3.77-4.66 8.03-8.01 11.34-.84.83-1.58 2.02-.4 3 1.17.97 2.13-.02 2.92-.9 1.42-1.59 2.82-3.19 4.23-4.79-.02-.01-.03-.03-.05-.04 1.67-1.89 3.3-3.81 5.01-5.66zm48.85 43.75c1.48-1.55 1.86-3-.19-4.27-1.65-1.02-2.83-.56-3.67 1.29-1.85 4.09-4.32 7.78-7.45 11.02-.81.84-1.65 1.97-.44 2.97 1.18.97 2.14-.05 2.93-.92 1.56-1.73 3.09-3.49 4.63-5.24l-.06-.06c1.41-1.6 2.78-3.25 4.25-4.8zM552.13 277.54c-1.32.99-2.77 1.84-1.06 3.58 1.27 1.28 2.39.62 3.47-.46 3.26-3.27 5.8-7.23 9.87-9.76 1.54-.96 1.3-2.81-.19-3.94-1.57-1.19-2.88-.7-3.97 1.84-2.03 2.87-4.68 6.17-8.12 8.75zm47.05 69.06c-.93.84-1.94 1.48-.8 2.74 1.12 1.24 2.31 1.15 3.49-.07 3.51-3.6 6.19-7.98 10.58-10.78 1.68-1.07.49-2.37-.58-3.31-1.22-1.07-2.23-1.32-3.18.48-.9 1.7-2.15 3.21-3.14 4.63-2.22 2.22-4.22 4.35-6.37 6.3zm25.41 21.43c-1.05 1.19-2.28 2.51-.51 3.93 2.16 1.74 2.34-.65 3.24-1.69 2.89-3.37 5.3-7.2 9.21-9.61 1.85-1.14 1.5-2.44.06-3.73-1.57-1.4-2.73-1.26-3.69 1.66-2.42 2.74-5.37 6.08-8.31 9.43zm119.56 24.54c.83-.95.04-1.75-.71-2.33-.59-.46-1.38-.87-1.99-.11-.65.82-.56 1.74.17 2.53.87.67 1.87.67 2.53-.09zM420.7 653.84c19.17 16.89 38.33 33.79 57.5 50.68 5.44 4.79 6.1 4.76 10.81-.53 4.54-5.1 8.95-10.32 13.6-15.31 3.02-3.24 3.04-5.82-.39-8.84-39.19-34.58-78.33-69.22-117.42-103.91-3.78-3.35-6.62-3.02-9.77.83-4.2 5.13-8.55 10.16-13.19 14.88-3.98 4.04-3.52 6.93.66 10.57 19.58 17.01 38.97 34.24 58.43 51.39l-.22.25z" />
    <path class="f"
        d="M348.32 330.65c1.46 1.29 2.92 2.59 4.39 3.88 4.78 1.65 8.25 4.8 10.57 9.26.59.51 1.17 1.03 1.76 1.54 12.95 8.92 24.72 19.18 35.11 31.01 1.17 1.03 2.34 2.07 3.51 3.1 7.17 3.67 12.98 8.88 17.6 15.46l4.38 3.87c3.52.73 5.87 2.79 7.03 6.21 7.03 6.19 14.05 12.39 21.08 18.58 2.53-.35 3.53 1.88 5.15 3.07 7.03 8.52 15.22 15.72 24.54 21.63.6.53 1.21 1.06 1.81 1.59 11.49 12.42 24.55 23.02 37.6 33.73 6.2 5.09 11.84 11.1 17.85 16.58.75-.58 1.52-1.23 2.52-.56 1.28.87.81 1.91.19 2.93l4.2 2.25c4.19 1.98 8.83 3.52 8.99 9.36.56.49 1.11.98 1.67 1.47 1-.82 2.14-1.22 3.11-.18 6.26 6.68 14.45 10.93 21.19 17 9.38 8.44 18.18 17.52 28.32 25.13 2.25 1.69 5 2.71 6.76 5.27 2.41 3.5 5.41 3.26 8.16.05-92.18-81.3-184.37-162.59-276.55-243.89-.99 1.71-1.99 3.42-2.98 5.14l.09 1.65c1.58 1.25 2.71 2.68 1.95 4.87z" />
    <path class="d"
        d="M205.19 474.6c-1.44 5.07 1.73 7.96 5.04 10.88 30.25 26.66 60.49 53.33 90.71 80.02 37.38 33 74.74 66.02 112.11 99.05 1.46 1.29 2.82 2.68 4.23 4.02 14.47 12.78 28.94 25.55 43.41 38.33 10.22 9.03 20.44 18.05 30.65 27.1 32.14 28.47 64.24 56.97 96.47 85.33 1.74 1.53 3.62 5.5 6.42 3.04 2.86-2.51-.41-5.35-1.82-7.61-1.3-2.09-3.33-3.79-5.22-5.45-21.11-18.55-42.03-37.32-63.43-55.53C446.49 688.02 371.23 619.97 295 553.03c-27.93-24.52-55.35-49.62-83.23-74.2-1.78-1.57-1.77-7.09-6.57-4.24z" />
    <path class="h"
        d="M592.53 754.51c-7.75-6.83-15.45-13.71-23.26-20.46-3.45-2.98-4.12-5.76-.74-9.32 4.17-4.37 8.1-8.96 12.07-13.52 2.38-2.74 4.81-2.98 7.53-.56 15.76 13.95 31.52 27.89 47.3 41.82 3.19 2.82 2.91 5.5.15 8.5-3.83 4.16-7.59 8.39-11.13 12.78-3.41 4.23-6.42 3.86-10.21.34-7.13-6.63-14.57-12.94-21.87-19.38.06-.06.11-.13.17-.19zm27.08 13.81c1.68-1.46.55-2.75-.48-3.98-.12-.15-.28-.35-.44-.37-2.55-.39-2.41-6.7-5.66-3.58-2.06 1.98 1.61 4.66 3.5 6.59.99.55 1.26 2.92 3.07 1.34zM250.49 452.1c-3.16-2.72-3.57-5.19-.64-8.33 4.12-4.41 8.14-8.92 12.02-13.54 2.81-3.33 5.44-3.02 8.44-.36 15.6 13.81 31.21 27.59 46.87 41.33 2.76 2.42 2.97 4.74.53 7.47-4.16 4.64-8.27 9.33-12.36 14.03-2.72 3.12-5.29 3.21-8.42.35-7.62-6.95-15.44-13.69-23.19-20.5-7.75-6.82-15.43-13.71-23.26-20.43zm13.95 1.69c1.87-2.09-.38-3.78-2.01-5.2-.58-.5-1.11-1.12-1.46-1.79-.97-1.87-2.33-2.84-4.13-1.33-1.73 1.45-1.07 3.12.36 4.52.69.68 1.45 1.29 2.37 2.1 1.53.46 2.53 4.31 4.87 1.7zM621.09 734.86c-5.69-5.02-11.36-10.05-17.08-15.04-2.52-2.19-3.77-4.63-1.31-7.52 4.41-5.18 8.92-10.28 13.49-15.34 2.26-2.51 4.7-2.21 7.14-.05 11.36 10.05 22.75 20.07 34.13 30.11 3.02 2.66 3.36 5.43.54 8.54a571.43 571.43 0 0 0-11.98 13.56c-2.7 3.16-5.29 3.38-8.41.53-5.46-4.98-11.06-9.8-16.61-14.69l.09-.1zm20.33 8c2.08-2.3-1.92-3.43-3.08-5.17-.31-.47-.81-.88-1.31-1.14-1.51-.78-2.78-3.82-4.7-1.46-1.52 1.87 1.37 2.72 2.21 4.07.3.48.81.83 1.36 1.36 1.93.52 3.49 4.58 5.51 2.34zm-14-10.14c1.2 1.12 2.51 1.04 3.46-.33 1.43-2.06-.91-2.03-1.71-2.74-1.16-1.04-2.49-2.01-4.23-.22-.14 1.66 1.45 2.33 2.48 3.29zm-4.74-6.14c-.06.45-.18.9-.13 1.34.01.11.83.28.88.2.22-.38.29-.84.42-1.31-.53-.1-.86-.16-1.18-.22zM272.46 426.44c-2.76-2.38-3.1-4.69-.61-7.45 4.17-4.63 8.3-9.3 12.39-14.01 2.53-2.91 5.11-3.18 8.04-.59 11.36 10.08 22.74 20.14 34.13 30.18 2.7 2.38 3.01 4.73.5 7.48-4.33 4.74-8.61 9.55-12.82 14.4-2.52 2.91-4.81 2.49-7.44.1-5.48-4.97-11.08-9.81-16.63-14.7-5.85-5.15-11.65-10.35-17.55-15.42zm18.42 5.35c1.56-1.86-2.37-4.83-4.78-6.63-1.69-1.26-3.28-2.67-4.95-3.97-.76-.6-1.66-1.21-2.52-.26-.78.86-.4 1.92.24 2.62 1.69 1.85 3.52 3.57 5.19 5.23 2.52 1.14 4.38 5.92 6.82 3zm5.14-14.07c1.53-2.03-1.67-3.47-3.15-4.72-1.32-1.11-2.99-4.08-4.49-2.41-2.29 2.54 1.46 3.61 2.7 5.41 1.75.43 2.94 4.39 4.95 1.73z" />
    <path class="c"
        d="M625.81 562.89c-2.75 3.2-5.74 3.45-8.16-.05-1.77-2.56-4.52-3.59-6.76-5.27-10.14-7.61-18.94-16.69-28.32-25.13-6.74-6.07-14.93-10.32-21.19-17-.98-1.04-2.12-.64-3.11.18 10.52 9.3 21.04 18.61 31.57 27.91 9.37 8.27 18.43 16.92 28.18 24.7 19.28 15.37 37.43 32.03 56.21 47.96 7.7 6.53 14.97 13.53 22.67 20.04 6.65 5.62 13.68 10.82 20.77 15.89 4.15 2.97 6.09 7.47 8.48 11.49 1.69 2.86 3.75 3.64 6.38 4.05 1.58.25 3.27-.23 3.68-2.12.62-2.88-.03-6.23-2.45-7.31-5.89-2.61-8.22-9.26-14.3-11.57-3.36-1.28-4.46-5.28-7.1-7.6-28.87-25.37-57.71-50.77-86.56-76.16z" />
    <path class="h"
        d="M646.35 712.21c-4.67-4.12-9.34-8.25-14.03-12.36-2.7-2.37-2.93-4.77-.45-7.52 4.31-4.77 8.52-9.62 12.75-14.47 2.2-2.52 4.57-2.8 7.09-.59 9.52 8.34 19 16.72 28.5 25.08 2.72 2.4 2.77 4.93.4 7.6-4.13 4.67-8.27 9.33-12.36 14.03-2.73 3.13-5.41 3.21-8.48.38-4.43-4.09-9.03-8.01-13.56-12 .05-.05.09-.1.14-.15zm19.08 5.6c1.91-1.96-.39-3-1.51-4.11-1.48-1.46-3.19-3.52-5.32-1.41-1.93 1.91.56 2.88 1.6 4.17 1.62.81 2.91 3.73 5.23 1.35zM350.39 366.37c4.68 4.13 9.33 8.3 14.06 12.36 2.48 2.13 3.22 4.37.91 7-4.38 4.98-8.77 9.95-13.23 14.86-2.16 2.38-4.53 2.75-7.13.45-9.34-8.28-18.7-16.54-28.11-24.74-2.81-2.45-2.84-4.9-.5-7.56 4.12-4.69 8.3-9.33 12.41-14.03 2.58-2.94 5.14-3 8.03-.38 4.47 4.07 9.06 8.01 13.59 12.01l-.02.03zm-25.12 4.44c-.94-.18-1.82-.83-2.55.23-.62.91-.46 1.94.3 2.64 3.29 3.02 6.61 6 9.99 8.91.92.79 2.21 1.05 3.14-.01.94-1.07.32-2.45-.39-3.17-1.58-1.6-3.47-2.89-5.16-4.24-2.31-.9-2.75-3.86-5.34-4.36zM339.75 581.97c-3.64-3.21-7.25-6.47-10.95-9.62-2.96-2.52-3.21-5.06-.58-7.97 5.21-5.77 10.39-11.57 15.53-17.41 2.41-2.75 4.84-2.86 7.52-.46 7.11 6.34 14.2 12.7 21.38 18.95 2.79 2.43 2.88 4.83.52 7.5-5.16 5.82-10.34 11.62-15.46 17.47-2.8 3.2-5.44 2.98-8.4.1-3.06-2.98-6.38-5.69-9.59-8.52.01-.01.02-.02.03-.04zm-3.32-15.89c-.92-.98-1.55-1.77-2.75-.72-1.18 1.03-1.51 2.28-.19 3.46 6.01 5.35 12.05 10.69 18.09 16.01.91.8 2.07 1.46 3.03.34.96-1.12.11-2.16-.79-2.96-2.88-2.57-5.79-5.12-9.86-8.7-1.79-1.74-4.77-4.48-7.54-7.43zm30.09 5.91c1.51-1.93.79-2.94-.63-4.32-1.7-1.65-3.02-2.01-4.74.01-1.73 2.02-1.08 3.03 1.04 3.59 1.27 1.96 2.35 3.25 4.34.71zM534.88 708.65c3.27 2.72 3.29 5.35.51 8.43-5.09 5.64-10.07 11.38-15.08 17.1-2.52 2.87-5.06 3.2-8.02.53-6.95-6.26-13.95-12.47-21.01-18.6-2.99-2.6-3.08-5.15-.53-8.01 5.2-5.81 10.43-11.59 15.56-17.46 2.68-3.07 5.17-2.76 7.96-.17 3.28 3.05 6.7 5.95 10.07 8.91 3.51 3.09 6.95 6.27 10.54 9.25zm-34.84 2.1c-1.15-1.23-1.78-2.81-3.43-.85-1.12 1.33-1.35 2.64.31 3.97 5.09 4.09 10.08 8.29 15.11 12.45.9.74 1.89 1.77 3.02.74 1.51-1.38.18-2.42-.81-3.31-2.45-2.22-4.96-4.39-7.44-6.58.06-.06.11-.13.17-.19-2.33-2.06-4.83-3.96-6.93-6.23zm8.27-9.67c1.59 1.28 2.88 2.49 4.79.27 1.59-1.86.99-2.93-.55-4.27-1.44-1.26-2.72-2.28-4.36-.23-1.5 1.39-1.71 2.75.12 4.23zm8.07 28.4l1.24-.36c-.15-.29-.23-.72-.46-.83-.21-.1-.58.16-.9.27.04.32.08.62.12.92zM310.12 532.91c2.58-2.92 5.22-5.79 7.71-8.78 2.34-2.83 4.75-3.05 7.47-.63 5.09 4.53 10.18 9.07 15.28 13.59 2.59 2.29 2.39 4.6.2 7.06-5.18 5.82-10.35 11.65-15.47 17.52-2.53 2.91-5.07 3.21-8 .56-4.91-4.44-9.86-8.84-14.87-13.17-2.6-2.25-2.75-4.49-.52-7.01 2.71-3.06 5.41-6.14 8.12-9.2.03.02.05.05.08.07zm5.95 21.11c1.24.25 2.47 1.64 3.59.04.87-1.25-.43-1.97-.95-2.95-1.91-3.63-5.77-4.96-8.54-7.55-1-.93-2.2-2.11-3.48-.79-1.42 1.47 2 1.12 1.35 2.99-.35 1.02 1.45 2.07 2.75 2.58 2.94.78 2.08 5.05 5.27 5.69zM354.39 453.97c12.61 10.61 9.47 11.74 21.12-1.44 10.85-12.27 11.1-9.71-1.34-20.64-13.36-11.73-10.8-11.85-22.11.99-10.28 11.66-10.98 9.1 1.45 20.31.29.26.58.52.88.77zM559.19 680.07c12.72 10.99 9.96 11.73 21.5-1.42 10.68-12.18 10.92-9.74-1.32-20.72-14.07-12.63-11.98-10.42-21.7.55-10.7 12.07-11.86 9.76 1.52 21.59zM316.18 509.99c12.19 10.23 9.4 12.41 21.58-1.45 10.6-12.06 10.45-9.88-1.48-20.24-13.79-11.97-10.42-12.6-22.84 1.13-10.87 12-8.99 9.87 1 19.01.57.52 1.17 1.03 1.75 1.55zM648.87 669.93c12.87 10.98 10.14 11.9 21.6-1.21 10.75-12.29 11.52-9.76-1.45-21.11-13.48-11.8-10.55-11.86-21.97 1.07-10.49 11.87-11.13 9.7 1.82 21.25zM383.08 395.11c-13.08-11.13-10.11-11.96-22.06 1.37-10.54 11.76-9.88 9.85 1.39 19.89 2.18 1.94 4.59 3.66 6.53 5.81 3.92 4.32 7.31 4.19 10.97-.35 3.29-4.08 6.85-7.95 10.45-11.77 3.24-3.43 3.16-6.31-.7-9.19-2.33-1.74-4.4-3.82-6.59-5.75zM585.14 703.15c-.44-.39-.88-.77-1.32-1.16-12.11-10.61-10.29-9.1-1-19.67 11.93-13.56 9-13.2 22.44-1.43 12.54 10.98 11.93 8.83 1.46 20.81-11.48 12.82-8.64 12.78-21.58 1.45zm12.54-13.63q-6.25 1.49-2.4 6.71c1.83-2.2 2.04-4.38 2.4-6.71zM694.57 670.06c-12.88-11.35-10.33-10.91-21.18 1.37-10.67 12.08-11.72 9.99 1.19 21.3 12.77 11.19 10.22 12.64 22.49-1.45 9.76-11.21 10.89-9.62-1.19-20.06-.44-.38-.88-.77-1.32-1.16zM526.94 611.65c-13.06-11.47-10.37-11.48-21.56 1.23-10.36 11.77-11.63 9.31 1.4 20.68 13.59 11.86 10.33 12.11 21.52-.43 11.57-12.97 11.36-10.02-1.37-21.48zM325.66 473.32c12.41 10.54 9.42 11.95 21.17-1.26 11.16-12.54 10.61-10.01-1.45-20.69-13.4-11.87-10.42-11.93-22.03.99-11.09 12.35-10.18 9.54.98 19.8.43.4.88.77 1.32 1.16zM429.55 565.17c12.61 10.71 9.48 11.87 21.07-1.18 11.27-12.67 10.9-10.04-1.54-21.07-13-11.53-10.42-11.83-21.99 1.29-10.58 11.99-10.42 9.19 1.14 19.8.43.39.87.77 1.31 1.16zM408.71 417.76c-12.75-10.96-9.86-11.54-21.5 1.64-10.4 11.77-10.59 9.37 1.09 19.79 2.76 2.46 5.62 4.8 8.29 7.34 2.91 2.77 5.4 2.41 7.93-.48 3.84-4.39 7.65-8.81 11.69-13.02 3.25-3.38 3.45-6.19-.48-9.14-2.48-1.87-4.69-4.08-7.02-6.13zM497.93 670.76c13.03 11.23 10.11 11.72 21.57-1.3 10.89-12.37 11.02-9.63-1.47-20.67-13.62-12.04-10.39-12.18-22.32 1.36-10.4 11.8-10.86 8.83 2.22 20.61zM351.52 496.18c12.4 10.46 9.38 12.12 21.15-1.1 11.28-12.68 10.76-10.25-1.62-21.12-12.05-10.59-9.72-12.36-21.68 1.16-11.15 12.6-10.06 9.94 1.28 20.28.29.26.58.52.88.77zM377.58 519.16c12.35 10.5 9.41 12.05 21.11-1.17 10.87-12.29 10.93-9.97-1.32-20.7-12.78-11.19-10.44-12.3-21.25.02-11.88 13.54-11.48 10.06 1.46 21.85zM484.03 568.59c12.99 11.26 9.99 11.59 21.5-1.39 10.65-12.02 10.66-9.55-1.33-20.25-2.62-2.33-5.32-4.57-7.86-6.98-2.9-2.75-5.46-2.42-7.99.46-3.98 4.54-7.94 9.1-12.01 13.56-2.87 3.14-2.49 5.81.67 8.43 2.39 1.99 4.69 4.11 7.02 6.17zM361.83 510.74c-13.16-11.72-10.39-11.56-22.01 1.45-10.53 11.78-10.46 9.56 1.35 19.83 13.76 11.96 10.18 13.03 22.81-1.06 11.13-12.41 9.41-9.64-2.15-20.21zM471.91 647.6c13.36 11.7 9.93 11.66 21.32-1.17 10.97-12.35 11.27-9.46-1.15-20.58-2.46-2.21-5.07-4.27-7.45-6.56-2.96-2.85-5.57-3.05-8.37.26-3.9 4.61-7.88 9.14-11.99 13.55-2.93 3.15-2.6 5.73.62 8.35 2.41 1.96 4.69 4.1 7.02 6.16zM328.15 430.7c1.6 1.41 3.2 2.84 4.82 4.24 6.64 5.76 6.84 5.75 12.9-1.02 3.11-3.48 6.13-7.05 9.3-10.47 2.94-3.18 3.08-5.93-.47-8.85-4.65-3.83-9.12-7.88-13.59-11.93-3.2-2.91-6.03-3-8.95.44-3.78 4.45-7.63 8.83-11.62 13.09-2.94 3.14-2.56 5.75.57 8.38 2.38 2 4.68 4.1 7.01 6.16l.03-.03zM368.51 556.25c11.18 9.23 8.75 12.55 20.79-1.47 10.83-12.61 11.46-9.7-1.57-21.09-12.85-11.23-10.14-11.86-21.66 1.08-11.15 12.51-10.29 9.84 1.13 20.32.43.4.88.77 1.32 1.16zM302.39 408.02c12.22 10.46 9.79 11.75 20.8-.77 11.58-13.16 11.46-10.1-1.7-21.93-12.31-11.07-10.63-10.39-20.89 1.24-11.17 12.65-11.32 9.77 1.79 21.46zM562.86 598.64c4 2.88 2.88 7.5.79 9.11-5.02 3.87-8.33 9.13-12.81 13.34-2.38 2.24-4.73 2.45-7.22.24-2.92-2.58-5.87-5.12-8.77-7.72-11.31-10.12-11.47-8.36-1.14-20.07 11.85-13.41 9.37-12.02 21.66-1.43 2.48 2.19 4.81 4.59 7.49 6.52zm-18.81 7.37c1.63 1.53 2.75.67 3.84-.6 1.11-1.3 2.65-2.61.8-4.4-1.48-1.44-2.77-.78-3.93.65-.57 1.34-2.77 2.42-.71 4.35zM401.76 540.59c-10.51-9.4-11.27-7.65-.96-19.09 12.15-13.49 9.35-12.92 22.52-1.27 11.51 10.18 12.92 7.82 1.39 20.75-12.24 13.71-9.07 11.16-21.2 1.16-.58-.52-1.17-1.03-1.75-1.55zm13.38-7.8c2.55-2.45.57-3.91-1-5.53l-.42-.81c-.11.28-.23.57-.34.85-.27 1.39-.39 2.85-1.78 3.69-.86-.18-2.24-.86-2.28.43-.04 1.19 1.41.63 2.27.56.71 2.4 1.82 2.46 3.56.8zM571.36 715.39c-11.58 13.13-8.54 12.81-21.9 1.01-12.41-10.97-12.06-8.71-1.43-20.81 11.4-12.98 8.7-12.47 21.54-1.29 12.86 11.47 12.6 8.85 1.8 21.1zm-14.33-7.17c.03.75 1.89 1.95 2.74.56 1.07-1.73 1.63-3.81 2.15-5.81.07-.27-1.31-1.43-2.49-.11.65 2.33-2.49 3.21-2.4 5.35zM553.85 635.34c12.02 10.47 11.3 8.81 1.38 19.94-12.19 13.68-8.89 13.16-22.38 1.41-12.71-11.08-12.11-8.63-1.44-20.66 11.34-12.79 8.4-12.86 21.56-1.45.29.25.59.51.88.77zm-13.09 13.36c2.28 2.08 3.39-.05 4.65-1.4 1.18-1.26 1.74-2.62.08-3.95-1.91-1.53-3.57-.96-5.06.63-1.1 1.69-1.22 3.3.33 4.72zM451.73 500.64c-13.47-11.81-10.28-11.65-21.92 1.37-10.15 11.35-10.62 9.26 1.48 19.82 14.38 12.57 10.44 12.59 23.08-1.53 9.51-10.61 9.76-8.7-.89-18.12-.58-.52-1.17-1.03-1.75-1.55zM460.24 502.77c-3.23-2.61-3.57-5.17-.64-8.32 4.11-4.41 8.08-8.96 11.98-13.56 2.52-2.98 4.99-3.33 7.91-.63 2.57 2.38 5.25 4.63 7.88 6.95 12.72 11.2 11.98 8.55 1.36 20.57-11.38 12.88-8.4 12.55-21.47 1.15-2.34-2.06-4.6-4.2-7.02-6.15zm11.1-1.95c-1.02.99-1.72 2.24-.29 3.43 1.45 1.21 2.99.95 3.9-.6.79-1.37 2.15-2.89.66-4.63-2.26-1.27-3.12.69-4.26 1.81zM564.81 555.52c2.49 2.19 4.92 4.45 7.47 6.56 3.09 2.55 3.02 5.13.45 7.98-4.17 4.64-8.29 9.34-12.43 14-2.35 2.64-4.8 3-7.57.51-4.92-4.44-9.87-8.85-14.89-13.19-2.98-2.57-3.09-5.12-.49-8.01 3.01-3.33 5.94-6.73 8.88-10.11q6.91-7.92 14.58-1.19c1.32 1.16 2.63 2.32 3.95 3.48l.04-.04zm-9.24 8.91c2.62 1.63 4.74-.35 6.94-1.17.81-.3.3-1.55-.32-1.92-2.44-1.43-4.69.32-6.8.26-.82 1.31-.84 2.19.18 2.83zM462.03 464.82c11.77 10.41 11.18 7.94 1.18 19.26-12.61 14.28-8.93 13.06-22.62 1.24-12.06-10.42-11.93-8.33-1.37-20.2 11.37-12.78 8.5-12.77 21.49-1.45.44.38.87.77 1.31 1.16zm-16.56 16.04c1.5.99 3.26-.29 4.41-1.59 1.1-1.24.78-2.54-.56-3.42-1.4-.92-2.53-.29-3.56 1.05-.52 1.22-1.77 2.99-.3 3.96zM555.24 631.72c-3.59-2.94-3.91-5.82-.58-9.3 4.03-4.21 7.79-8.68 11.62-13.08 2.51-2.89 5.07-3.25 7.97-.53 2.56 2.39 5.24 4.63 7.86 6.96 12.07 10.75 12.25 8.29 1.32 20.67-11.16 12.64-8.8 12.18-21.18 1.44-2.33-2.06-4.61-4.18-7.01-6.15zm14.15-2.1c1.46 1.71 2.73-.2 3.64-1.29 1.01-1.2 3.14-2.38 1.51-4.26-1.3-1.5-2.29.13-3.31 1.11.44 1.9-3.74 2.22-1.84 4.44zM503.16 585.47c-3.48-2.8-3.68-5.58-.56-8.85 3.09-3.25 5.95-6.71 8.93-10.07q6.57-7.4 13.76-1.01c1.75 1.56 3.5 3.11 5.25 4.66 11.51 10.27 11.74 7.89 1.21 19.9-11.9 13.57-9.07 12.21-21.54 1.53-2.34-2.06-4.61-4.21-7.04-6.17zm13.96-2.87c3.66-.42 4.83-2.56 6.72-5.94-4.21.99-5.03 3.36-6.72 5.94zM545.98 538.89c3.35 2.65 3.37 5.26.52 8.33-3.83 4.13-7.68 8.28-11.18 12.69-3.41 4.29-6.5 4.08-10.11.38-2.17-2.22-4.66-4.12-6.97-6.2-11.54-10.35-11.49-8.39-1.26-19.97 11.73-13.29 9-12.65 21.98-1.37 2.33 2.06 4.59 4.22 7.02 6.15zm-22.66 11.53c1.73 1.25 2.89.1 3.88-1.19.86-1.13 1.6-2.73.35-3.63-1.68-1.21-3.15.38-4.43 1.19-1.17 1.4-1.16 2.64.2 3.63zM480.02 589.13c10.46-11.92 8.69-11.37 20.47-.87 13.17 11.74 13.38 8.63 1.62 21.93-10.83 12.24-7.98 11.99-20.72.99-13.11-12.03-12.97-8.83-1.37-22.05zm14.28 10.28c.7-1.8.24-3.05-1.73-3.49-.32-.07-.98.1-1.04.3-.52 1.68 1.46 1.98 1.85 3.19-.87.99-1.74 1.99-2.6 2.98l-2.23-1.84c.35-1.04 2.36-.99 1.76-2.56-.14-.37-1.04-.77-1.45-.66-1.92.5-1.32 2.03-1.18 3.34.12 1.92 1.19 2.74 3.06 2.61 2.91.3 4.06-1.03 3.57-3.87zM597.73 584.55c3.52 2.74 3.79 5.49.77 8.8-3.94 4.3-7.76 8.7-11.58 13.1-2.8 3.22-5.6 3.79-8.87.57-2.35-2.31-4.97-4.35-7.42-6.56-12.11-10.91-12.16-8.65-1.46-20.77 11.29-12.8 8.82-12.45 21.55-1.28 2.33 2.06 4.57 4.23 7.02 6.14zm-21.19 11.32c.8.54 1.85 1.2 2.41.15.79-1.48 1.38-3.45.37-4.84-.87-1.18-1.94.19-2.73.96-1.1 1.23-1.93 2.45-.05 3.73zm11.02-11.72c-.05-.86-.91-1.31-1.73-.95-2.15.95-4.42 1.92-2.66 5.58.5-2.59 4.56-1.53 4.4-4.63zM474.55 565.29c.29.26.58.51.87.77 11.79 10.66 12.51 8.21 1.34 20.7-11.7 13.09-8.57 12.42-21.46 1.17-13.49-11.78-12.39-8.59-1.47-21.38 10.74-12.04 8.32-12.14 20.71-1.27zm-6.61 13.86c.63-.9 2.43-3.02.13-2.73-2.47.31-2.83-6.64-6.01-1.36-1.43 2.37-1.05 3.07 1.76 3.03.61 3.01 1.9 4.22 4.13 1.05zM436.59 462.14c-11.94 13.55-8.96 11.46-22.06.14-11.98-10.35-11.76-8.11-1.34-19.76 11.97-13.38 8.39-12.96 21.92-1.45 12.48 11.22 12.76 8.27 1.47 21.07zm-17.15-3.51c1.5.99 2.94.38 4.05-.88 1.29-1.47 1.68-3.19.06-4.52-1.65-1.36-3.2-.45-4.5 1.01-1.06 1.54-1.47 3.17.39 4.4zM456.67 544.43c-10.57-9.86-11.52-7.56-1.11-19.1 12.38-13.74 8.72-13.51 22.79-1.24 11.99 10.46 12.06 8.21 1.29 20.3-11.36 12.76-8.33 12.56-21.66 1.21-.43-.39-.88-.77-1.31-1.17zm11.9-14.31c-2.81 1.26-4.08 2.53-4.15 4.74-.79 3.02.32 3.88 3.16 2.8 2.13-.39 3.25-1.78 3.88-3.87-2.16.05-2.62 2.13-4.02 2.94-.71-.62-1.42-1.23-2.12-1.85.92-1.34 1.83-2.68 3.25-4.76zM392.38 577.33c-9.8-8.85-11.7-7.23-.95-19.11 12.16-13.44 9.1-13.29 22.4-1.47 12.66 11.26 12.7 8.11 1.33 20.98-11.62 13.16-8.41 11.9-21.02 1.15-.58-.52-1.17-1.03-1.75-1.55zm11.03-7.26c1.63-.57 3.39-.4 4.27-2.19.8-1.63-.25-1.94-1.64-1.98-1.76-.04-2.1-5.64-5.02-1.3-.74 1.1-2.51 1.16-2.82 3.19 3.22-2.69 1.73 3.49 5.21 2.28zM635.01 662.49c10.05 8.85 10.13 8.92 1.3 18.78-13.12 14.66-9.18 13.62-23.61 1.22-11.65-10.01-11.18-8.57-1.42-19.55 12.12-13.62 9.05-13.19 22.41-1.62.44.39.88.77 1.32 1.16zm-14.62 12.53c2.01 1.7 3.82 1.62 5.57-.32 1.46-1.61 2.24-3.49.34-5.07-2.2-1.83-4.34-.79-6.15.97-1.61 1.59-1.45 2.99.24 4.42zM417.75 581.17c12.05-13.48 8.51-13.24 22.29-1.23 12.39 10.81 12.31 8.25 1.32 20.59-11.35 12.75-8.26 12.7-21.47 1.15-12.35-11.36-13.16-8.18-2.13-20.52zm16.1 8.4c-2.72.11-2.94-3.84-5.17-2.86-1.4.61-2.53 2.43-3.17 3.97-.54 1.29.97 1.56 1.83 1.16 2.03-.93 2.52 6.86 4.53 2.22 1.36-2.4 2.96-4.52 1.97-4.48zM550.23 677.12c3.77 2.91 3.9 5.8.66 9.25-4.12 4.39-8.05 8.96-12.02 13.5-2.4 2.74-4.85 2.85-7.53.46-4.93-4.39-9.87-8.79-14.84-13.14-3.02-2.64-2.7-5.21-.17-8 3.13-3.45 6.14-7.03 9.2-10.54 6.42-7.36 6.67-7.37 14.16-.75 1.31 1.16 2.62 2.31 3.94 3.46 2.19 1.92 4.28 3.97 6.58 5.75zm-20.67 5.31c2.96 5.16 4.94 3 6.87.13l.86-.43c-.3-.11-.6-.23-.91-.34-3.2-4.63-4.14 1.59-6.82.64zM399.51 493.91c-3.63-2.87-4.1-5.71-.72-9.23 4.17-4.34 8.1-8.91 12.07-13.44 2.25-2.56 4.55-2.63 7.05-.45 2.93 2.55 5.83 5.13 8.79 7.65 12.32 10.49 10.59 8.73 1.18 19.32-12.06 13.58-8.6 13.3-22.24 1.52-2.04-1.8-4.01-3.69-6.14-5.37zm18.78-3.49c1.43-1.52 2.38-3.39.65-5.07-1.74-1.69-3.96-1.35-5.72.22-1.83 1.63-1.77 3.67-.63 5.8 2.13 1.1 4.05.79 5.69-.95zM378.6 475.3c-11.29-10.04-10.48-8.07-1.14-18.53 12.37-13.86 8.84-13.95 23.12-1.37 11.97 10.54 11.44 8.26 1.26 19.8-11.95 13.54-8.79 12.37-21.49 1.64-.59-.51-1.17-1.02-1.75-1.54zm10.9-7.46c1.71 1.31 2.56-.95 3.42-2.03 1.13-1.41.93-2.96-.61-4-1.5-1.01-2.92-.65-4.03.76-.95 2.1-.18 4.19 1.22 5.27zM595.62 602.23c.51-.59 1.03-1.17 1.55-1.75q8.11-9.16 17.5-.86c1.02.9 2.04 1.81 3.07 2.71 11.64 10.3 11.87 8.14 1.05 20.35-11.71 13.23-9.12 11.99-21.68 1.2-12.76-11.61-12.74-8.72-1.49-21.64zm6 13.17c-1.21 1.36-2.27 2.82-.65 4.46.69.7 1.32.44 2.11-.61 2.73-3.63 3.52-4.59 3.04-5-1.88-1.1-3.25-.25-4.49 1.15zm7.82-4.83c1.31 1.3 2.42.26 3.31-.8.92-1.1 1.39-2.29.18-3.53-1.21-1.25-2.33-.97-3.38.21-1.04 1.36-1.38 2.86-.11 4.12zM586.68 659.49c-11.32-10.01-11.03-8.51-1.16-19.56 12.08-13.52 8.93-13.15 22.34-1.37 12.04 10.57 12.6 8.28 1.72 20.73-11.57 13.24-9.17 12.09-21.59 1.37l-1.31-1.16zm14.86-7.5c2.55-2.15-2-3.08-1.35-5.13-2.33 1.93-2.21-4.81-4.33-1.4-.81 1.31-5.39 4.59.45 6.23 1.29 4.8 3.83 1.47 5.23.3zM487.63 526.9c-5.46-4.9-5.49-5.45-.48-11.19 2.68-3.07 5.39-6.12 8.1-9.17q6.16-6.94 13.32-.62c1.6 1.41 3.22 2.81 4.8 4.24 12.12 10.91 12.38 8.23 1.44 20.61-11.73 13.27-8.95 11.96-21.51 1.14-1.89-1.67-3.8-3.33-5.68-5.01zm21-8.35c.61-1.32 1.88-3 .24-4.21-1.79-1.33-3.4.51-4.64 1.37-1.7 1.17-.26 2.71.52 4 1.71.92 3.11.52 3.88-1.15zM622.02 646.07c-11.56-10.19-11.32-8.91-1.36-20.01 11.73-13.08 9.07-13.28 22.41-1.34 11.73 10.49 13.27 8.04 1.54 21.14-11.6 12.95-9.17 11.72-21.27 1.37-.44-.38-.88-.77-1.31-1.15zm16.97-12.87c1.23-1.57 1.3-3.16-.4-4.43-1.2-.89-2.63-.94-3.48.39-.96 1.5-1.32 3.18.44 4.53 1.32 1.01 2.49.72 3.44-.49zm-12.07 9.69c2.29 1.49 3.27-1.93 5.11-2.74 1.09-.48.92-2.21-.24-2.9-1.7-1.01-2.92-.14-3.72 1.62.74 1.66-3.56 2.45-1.15 4.02zM443.77 604.22c12.15-13.75 8.94-13.17 22.23-1.4 11.91 10.54 12.85 7.8 1.43 20.56-11.9 13.3-8.61 12.31-21.46 1.38-12.65-11.45-12.76-8.6-2.2-20.54zm9.55 7.66c-1.51 1.75-1.76 3.38.03 4.96 1.9 1.68 3.16.2 4.25-1.14 1.1-1.35 3.18-2.56 1.37-4.71-2.22-1.31-4-1.04-5.65.88z" />
    <path class="d"
        d="M815.49 673.74c-4.1-1.42-8.21-2.83-12.31-4.25-.48 1.29.33 2.2.87 3.22 5.22 9.84 3.58 18.92-3.52 27.04-29.69 33.92-59.49 67.75-89.25 101.62-1.21 1.38-2.43 2.75-4.13 4.68 5.98-.31 6.81-5.07 9.56-7.72 12.56-12.13 23.93-25.4 35.75-38.21 19.55-21.18 37.84-43.51 56.44-65.56 3.93-4.66 7.69-9.93 5.09-16.8-.71-1.89.45-2.9 1.5-4.04z" />
    <path class="h"
        d="M562.47 548.37c1.31 1.16 2.62 2.33 3.95 3.48 7.51 6.52 13.44 5.02 17.45-4.28 1.05-2.44.26-4.15-1.46-5.68-5.39-4.78-10.77-9.58-16.24-14.27-2.61-2.24-5.28-2.29-7.65.53-.13.15-.26.29-.4.43-8.1 8.24-8.1 8.51.43 16.29 1.29 1.18 2.63 2.32 3.94 3.48 0 0-.02.02-.02.03zM401.15 405.6c1.89 1.67 3.7 3.44 5.7 4.97 2.17 1.67 3.98 5.33 7.26 3.31 3.92-2.42 7.3-5.78 8.76-10.41.51-1.61-.65-2.92-1.88-3.99-5.4-4.73-10.8-9.45-16.17-14.21-2.7-2.39-5.19-2.19-7.6.4-.13.14-.26.29-.4.42-8.17 7.98-8.16 8.58.37 16.08 1.31 1.15 2.62 2.31 3.93 3.46l.02-.03zM670.12 643.86c.87.77 1.75 1.54 2.62 2.31 9.41 8.32 9.77 8.22 17.4-1.52 2.22-2.83 2.38-5.12-.34-7.54-5.22-4.65-10.43-9.32-15.64-13.98-2.98-2.66-5.77-2.88-8.43.53-1.31 1.68-2.75 3.27-4.23 4.81-2.71 2.83-2.49 5.48.35 8.02 2.75 2.46 5.53 4.88 8.3 7.33-.01.01-.02.03-.04.04zM428.15 429.48l3.51 3.09c8.16 7.22 11.58 6.59 17.23-3.01 1.6-2.72.9-4.75-1.29-6.66-5.29-4.6-10.56-9.24-15.81-13.88-2.7-2.39-5.21-2.26-7.62.4-.13.14-.26.29-.4.43-8.13 8.11-8.11 8.59.44 16.16 1.31 1.16 2.63 2.32 3.95 3.48zM481.37 476.53c1.6 1.41 3.21 2.82 4.81 4.24 6.91 6.12 14.23 3.94 17.15-5.01.73-2.24-.13-3.76-1.67-5.12-5.38-4.76-10.78-9.51-16.19-14.24-2.64-2.31-5.22-2.31-7.64.37a256.41 256.41 0 0 0-3.1 3.48c-4.64 5.37-4.61 6.19.55 10.85 2.02 1.82 4.08 3.6 6.11 5.4l-.03.04zM508.62 500.59c1.89 1.67 3.71 3.44 5.7 4.98 2.18 1.69 4.12 5.34 7.28 3.37 3.89-2.43 7.34-5.84 8.84-10.43.67-2.06-1.18-3.54-2.64-4.84-4.95-4.38-9.95-8.69-14.86-13.11-3.33-3-6.18-2.65-8.85.84-.82 1.08-1.7 2.15-2.71 3.05-4.28 3.78-3.78 7.09.67 10.37 2.34 1.72 4.4 3.82 6.58 5.74l-.02.02zM454.8 452.99c2.19 1.93 4.37 3.88 6.58 5.8 5.23 4.55 5.81 4.44 11.56-2.1 5.09-5.79 5.11-6.86.03-11.38-4.51-4.02-9.15-7.89-13.6-11.97-3.23-2.96-6.1-3.11-8.9.45-.48.61-1.04 1.16-1.56 1.74q-6.11 6.82.64 12.81c1.75 1.55 3.51 3.09 5.26 4.64l-.02.02zM643.2 619.95c-2.49-2.19-4.94-4.43-7.47-6.57-3.48-2.94-4.11-5.96-.61-9.36 1.26-1.22 2.42-2.56 3.48-3.95 2.53-3.34 5.41-3.61 8.49-.93 5.44 4.74 10.8 9.57 16.15 14.41 1.99 1.8 2.26 3.79.77 6.24-6.03 9.88-9.23 10.45-17.76 2.9l-3.07-2.71.03-.03zm4.33-5.47c1.32 1.18 2.47.89 3.44-.42.86-1.17.44-2.19-.6-3.01-1.12-.88-2.13-.7-3.02.38-.88 1.08-.9 2.08.18 3.05zM535.57 524.48c1.46 1.28 2.91 2.57 4.37 3.85 6.95 6.1 14.33 3.96 17.27-4.95.72-2.19-.07-3.79-1.62-5.17-5.38-4.77-10.74-9.55-16.17-14.26-2.61-2.27-5.01-2.15-7.63.42-8.62 8.42-8.68 9.06.27 17.04 1.16 1.03 2.33 2.06 3.5 3.08v-.02zM347.42 358.27c1.17 1.03 2.33 2.06 3.5 3.09 8.3 7.23 11.28 6.67 17.19-3.03 1.47-2.41 1.23-4.38-.82-6.2-5.39-4.77-10.79-9.53-16.18-14.3-2.71-2.39-5.23-2.17-7.61.47-.13.14-.27.28-.41.41-8.13 7.82-8.11 8.69.38 16.12 1.32 1.15 2.63 2.32 3.94 3.47l.03-.03z" />
    <path class="d"
        d="M1021.65 552.38c-1.56-.97-2.44.29-3.58.98-24.64 14.87-49.34 29.63-73.94 44.56-39.22 23.8-78.38 47.72-117.57 71.58-1.15.7-2.51 1.16-2.97 2.63 9.17-2.9 16.68-8.88 24.79-13.66 29.46-17.36 58.71-35.07 87.97-52.77 27.3-16.52 54.51-33.18 81.73-49.81 1.42-.87 3.34-1.38 3.57-3.51z" />
    <path class="h"
        d="M601.46 558.68c1.02.9 2.04 1.8 3.06 2.69 8.98 7.87 8.9 8.12.85 16.66-3.01 3.2-5.61 3.6-8.89.59-4.57-4.2-9.19-8.37-13.97-12.32-4.21-3.48-4.35-6.45-.48-10.57 7.31-7.8 7.1-7.99 15.08-.92 1.45 1.29 2.91 2.57 4.37 3.85l-.02.02zm-2.92 8.69c1.61-1.85 1.1-3.72-.26-5.19-1.85-2.01-4.23-1.05-5.7.36-1.73 1.66-1.21 3.87.32 5.54 2.26 1.78 4 1.16 5.63-.71zM693.53 664.57c-9.25-8.24-9.19-8.9-.45-17.54 2.64-2.61 4.93-2.7 7.55-.38 5.38 4.77 10.71 9.58 16.09 14.34 2.75 2.44 2.47 4.8.35 7.59-7.17 9.46-8.08 9.6-16.99 1.77-1.17-1.03-2.33-2.05-3.49-3.08l-3.06-2.7zm12.87-.83c1.49-1.55-.81-2.71-1.87-3.48-1.33-.96-2.53-3.83-4.62-1.64-1.6 1.68 1 2.42 1.64 3.61 1.54.95 3 3.42 4.85 1.5zM374.21 381.85c-2.19-1.93-4.24-4.06-6.6-5.75-4.59-3.29-4.85-6.6-.62-10.34 1.01-.9 1.89-1.97 2.74-3.04 2.75-3.47 5.58-3.67 8.88-.63 4.29 3.96 8.77 7.72 13.14 11.59 5.81 5.16 5.83 5.67.52 11.65q-6.21 7-13.26.8c-1.61-1.41-3.21-2.83-4.82-4.25l.03-.03zm2.34-6.22c1.94.97 4.46 3.52 6.22 1.76 2.16-2.16-1.48-3.75-2.31-5.69-.79-1.86-2.6-.8-3.82-.35-1.15 1.64-1.73 3.45-.08 4.28zM627.91 582.16c2.04 1.8 4.1 3.58 6.13 5.41 5.37 4.84 5.45 5.97.75 11.38-1.02 1.18-2.07 2.32-3.12 3.48-2.36 2.6-4.91 2.97-7.62.56-5.39-4.77-10.8-9.52-16.12-14.37-2.61-2.38-2.44-4.77-.16-7.6 7.64-9.51 8.07-9.63 17.11-1.59l3.06 2.7-.03.03zm-1.36 10.23c1.52-2.03 2.24-4.27-.37-5.22-2.41-.88-4.26-5.49-7.86-1.62-3.07 3.29-.15 4.64 2.23 6.93 1.52 1.65 3.48 3.28 6-.08z" />
    <path class="d"
        d="M219.6 719.74c43.58 38.4 87.15 76.81 130.76 115.17 1.68 1.48 2.9 3.8 5.63 3.76-43.75-38.48-87.48-76.96-131.26-115.4-1.55-1.36-2.71-3.4-5.14-3.53zM534.49 1002.8c23.31-26.45 46.63-52.9 69.94-79.35-.13-.11-.25-.22-.38-.34-23.31 26.44-46.62 52.88-69.92 79.33l.36.36z" />
    <path class="c"
        d="M400.14 376.33c-10.39-11.83-22.16-22.09-35.11-31.01 10.37 11.85 22.15 22.09 35.11 31.01z" />
    <path class="h"
        d="M558.51 748.72c-3.02 3.32-6 6.67-9.06 9.95-2.81 3.01-2.84 5.64.45 8.41 5.07 4.27 10.08 8.63 14.89 13.19 2.44 2.31 4.37 2.07 6.39-.19 5.72-6.4 11.41-12.82 17.1-19.25 1.96-2.22 1.46-4.29-.58-6.12-5.23-4.68-10.46-9.37-15.77-13.97-2.51-2.18-4.97-1.86-7.13.68-1.51 1.78-3.04 3.56-4.56 5.33 5.97 6.57 13.92 11.2 19.34 18.32-.38.4-.76.81-1.14 1.21-6.64-5.86-13.29-11.71-19.93-17.57zM594.6 782.99c-1.6-1.42-3.21-2.83-4.81-4.25q-6.47-5.69-12.36.96t.77 12.31c4.23 3.74 8.52 7.39 12.66 11.23 2.92 2.71 5.54 1.95 8.11-.33 7.58-6.71 7.56-9.41.02-16.07-1.46-1.29-2.92-2.57-4.37-3.86zM531.47 750.8c1.61 1.42 3.21 2.84 4.83 4.25 5.8 5.09 6.44 5.04 11.74-.79 6.22-6.85 6.21-6.97-.91-13.26-3.8-3.35-7.66-6.65-11.37-10.1-3.11-2.89-5.57-2.46-8.42.58-8.03 8.55-8.12 8.52.62 16.23l3.51 3.09.02-.02z" />
    <path class="d"
        d="M558.51 748.72c6.64 5.86 13.29 11.71 19.93 17.57.38-.4.76-.81 1.14-1.21-5.42-7.12-13.37-11.75-19.34-18.32-.58.65-1.15 1.31-1.73 1.96z" />
    <path class="c"
        d="M421.25 394.89c-4.61-6.58-10.43-11.79-17.6-15.46 4.62 6.57 10.43 11.78 17.6 15.46zM438.29 690.94c-1.81-1.34-3.46-3.89-5.92-1.8-1.94 1.65-.39 3.63.85 4.99 1.97 2.15 4.97 2.13 6.81.61 1.99-1.65-1.02-2.56-1.74-3.8zM363.28 343.79c-2.32-4.46-5.79-7.6-10.57-9.26 2.33 4.45 5.79 7.61 10.57 9.26zM556.6 514.14c-.16-5.85-4.81-7.38-8.99-9.36 1.51 4.55 6.08 6.16 8.99 9.36zM421.2 697.76c.96.57 1.86 1.4 2.89 1.63 1.43.32 2.57-.42 2.99-1.93.26-.96.11-1.91-.67-2.59-1.43-1.26-2.39-.19-3.32.78-.65.68-1.26 1.41-1.89 2.12zM432.66 404.97c-1.15-3.42-3.5-5.48-7.03-6.21 1.13 3.44 3.48 5.49 7.03 6.21z" />
    <path class="d"
        d="M700.1 815.98l4.96-5.62c-.16-.16-.32-.33-.48-.49l-4.96 5.62c.16.16.32.33.48.49zM374.37 131.77c2.83-2.31 3.72-5.53 4.17-8.94-2.47 2.48-3.66 5.55-4.17 8.94z" />
    <path class="c"
        d="M458.89 426.62c-1.62-1.19-2.62-3.42-5.15-3.07.68 2.77 1.79 4.8 5.15 3.07zM346.28 324.13c.99-1.71 1.99-3.42 2.98-5.14-3.8-.31-4.35.63-2.98 5.14z" />
    <path class="d"
        d="M383.2 112.99c2.16-1.26 2.76-3.26 2.63-5.59-1.8 1.43-2.66 3.3-2.63 5.59zM379.54 120.69c2.19-1.24 2.7-3.28 2.63-5.59-1.85 1.4-2.65 3.3-2.63 5.59z" />
    <path class="c"
        d="M348.32 330.65c.76-2.19-.36-3.62-1.95-4.87.2 1.8-1.89 4.52 1.95 4.87zM254.8 415.12c1.46-1.65 2.91-3.3 4.37-4.95-.11-.13-.22-.25-.33-.37l-4.26 4.83c.08.17.15.33.23.5zM250.96 418.48c-1.21 1.37-2.42 2.74-4.74 5.37 3.19-1.93 4.39-3.39 4.74-5.37zM266.83 401.14c-1.82.95-3.2 2.17-4 4.21 2.38-.7 2.89-2.81 4-4.21zM543.41 502.53c.62-1.02 1.09-2.07-.19-2.93-.99-.67-1.76-.02-2.52.56l2.71 2.38zM375.12 826.06c-.74.25-1.32.28-1.62.58-.55.56-.68 1.36.17 1.72.3.13 1.03-.29 1.3-.66.23-.31.1-.91.14-1.65z" />
    <path class="d" d="M372.06 136.71c1.29-.54 1.85-1.42 1.33-2.81-1.39.49-1.63 1.52-1.33 2.81z" />
    <path class="c"
        d="M485.25 449.84c-.6-.53-1.21-1.06-1.81-1.59-.16.65-.66 1.55-.4 1.91.73 1.02 1.51.19 2.21-.31zM243.22 422.83c-.05.14-.11.28-.16.41.21-.07.42-.14.64-.22-.16-.07-.32-.13-.47-.2z" />
    <path class="e"
        d="M269.38 796.51c-8.92-7.86-17.83-15.73-26.76-23.58-1.17-1.03-2.32-2.14-3.66-2.88-1.39-.76-3.39-1.09-4.27.33-1.21 1.95.9 2.68 2.22 3.18 2.3.86 3.89 2.56 5.63 4.09 17.26 15.2 34.52 30.4 51.74 45.65 1.58 1.4 2.97 3.04 4.37 4.64.73.83 1.19 2.34 2.6 1.42 1.21-.79.5-2.08.17-3.18-.66-2.18-2.35-3.52-3.96-4.94-9.36-8.24-18.72-16.49-28.08-24.74zM227.46 346.04c-.21-.53-.27-1.13-.61-1.45-.73-.71-1.39-.19-1.7.49-.16.35.14.92.24 1.39.49-.1.97-.2 2.08-.42z" />
    <path class="d"
        d="M356.74 238.39c2.51.73 5.28 1.41 6.9-1.19 1.66-2.68-.68-4.72-2.17-6.69-.57-.76-1.46-1.27-2.2-1.9 2.26-6.87 5.91-13.09 9.2-19.48 15-29.16 29.95-58.35 45.03-87.47 2.57-4.97 5.59-9.72 8.55-14.47 1.77-2.84 5.12-4.21 7.9-4.5 2.84-.29 1.22 3.36 1.91 5.16.43 1.12.71 2.55 2.14 2.24 1.58-.34 1.11-1.83.75-2.89-1.3-3.81 1.88-6.48 3.72-4.69 4.79 4.66 9.29 1.44 13.92 1.26 1.7-.07 3.84-.62 4.47 1.62.49 1.74-.43 3.4-1.63 4.8-.94 1.1-2.15 1.51-3.47 1.98-3.68 1.3-2.14 4.31-1.37 6.37.96 2.59 3.09 3.07 5.68 1.36 7.08-4.68 14.5-8.9 21.35-13.89 3.93-2.87 9.49-1.68 12.61-5.56 4.34-5.4 7.82-3.61 12.12.23 14.87 13.26 29.29 26.99 44.1 40.3 32.94 29.61 66.3 58.77 99.64 87.94 3.87 3.39 4.85 5.65.79 9.63-5.11 5.01-9.57 10.67-15.23 17.09 3.7-1.36 5.63-2.73 7.3-4.72 2.76-3.29 5.49-6.64 8.61-9.57 1.65-1.56 3.77-4.06 6.53-1.96 2.94 2.24 6.18 4 9.17 6.16 6.33 4.58 9.98 11.38 14.9 17.06 4.49 5.18 8.1 11.25 9.08 18.85.72 5.58.55 11.92 4.76 16.76 1.37 1.58 3.52 3.55 3.39 5.2-.8 10.38 3.69 18.33 10.66 25.27 2.21 2.2.92 5.63 3.45 7.83 14.43 12.55 28.68 25.31 43.1 37.87 3.28 2.86 6.62 2.82 9.51-1.04 1.75-2.33 3.67-4.63 5.88-6.51 3.89-3.3 6.38-2.25 7.48 2.75 1.5 6.8 3.21 13.04 9.2 18.09 3.98 3.35 10.32 7.41 9.34 13.29-.88 5.28 1.75 7.61 4.25 10.43 3.44 3.88 3.51 8.53 3.64 13.09.11 3.89-2.46 4.87-5.32 2.58-6.2-4.95-12.04-10.36-18.16-15.41-3.45-2.85-5.63-8.64-11.95-5.61-.43.21-1.47-.44-2.01-.93-6.98-6.23-13.84-12.59-20.89-18.74-3.74-3.26-7.38-7.69-11.8-8.91-7.62-2.11-14.63-4.7-20.57-9.93-25.04-22.05-50.07-44.12-75.13-66.17-5.59-4.92-8.02-5.05-12.53.69-6 7.63-13.6 13.63-20.02 20.81-.86.96-1.9 2.4-3.32.88-1.08-1.16.1-2.13.81-2.99.87-1.05 1.81-2.05 2.75-3.04 6.36-6.7 12.76-13.36 19.09-20.1 2.84-3.03 2.4-5.86-.69-8.55-6.04-5.24-12.06-10.52-18-15.88-3.32-2.99-6.19-2.65-9.02.63-2.68 3.1-5.44 6.13-8.18 9.18-1.06 1.18-2.15 2.55-3.84.95-1.69-1.6-.36-2.86.72-3.93 2.76-2.73 5.77-5.21 8.4-8.06 3.14-3.39 3.43-6.72-.68-9.92-3.69-2.87-7.21-6-10.54-9.28-4.02-3.97-7.67-3.01-11.18.44-2.36 2.32-4.54 4.84-6.67 7.39-2.09 2.51-4.08 2.5-6.43.36-3.75-3.42-7.65-6.67-11.4-10.09-2.04-1.86-3.78-1.9-6.24-.45-3.5 2.06-5.66 5.31-8.42 8.02-.93.91-1.82 2.53-3.32 1.32-1.5-1.21-.3-2.48.63-3.45 2.15-2.25 4.45-4.36 6.56-6.65 2.27-2.47 4.73-5.08 1.32-8.43-2.09-2.05-.94-3.36.77-4.71 1.37-1.08 2.79-2.13 3.99-3.38q8.3-8.63-.53-16.39c-13.11-11.51-13.22-11.61-25.07 1.17-2.76 2.98-4.45 2.59-7.08.13-5.27-4.93-10.93-9.45-16.17-14.4-3.22-3.05-6.15-2.99-9.21-.2-5.79 5.27-10.9 11.3-17.32 15.87-3.19 2.27-4.87 6.42-7.97 8.12-8.29 4.55-13.08 12.89-20.91 17.87-5.47 3.47-8.44 9.8-14.41 13.06-3.93 2.15-4.49 5.48-.35 8.81 4.86 3.91 9.55 8.06 14.05 12.38 3.4 3.27 6.03 2.8 8.68-.72 1.05-1.4 2.25-2.7 3.42-4.01 1.43-1.6 2.73-.92 4 .26 1.48 1.37 1.41 2.67-.17 3.88-.62.47-1.37.77-1.98 1.24-5.86 4.57-5.91 6.28-.35 11.22 3.79 3.37 7.59 6.74 11.4 10.09 5.69 5.01 6.92 4.84 11.49-1.14.86-1.12.75-3.63 2.83-3.09 1.32.34 2.85 1.72 3.33 3 .74 1.98-1.74 2.19-2.77 3.17-5.5 5.22-5.52 6.25.28 11.4 3.36 2.98 6.72 5.95 10.09 8.92 7.2 6.36 7.92 6.44 13.18-1.51 1.79-2.7 2.69-1.84 4.36-.45 2.38 1.98.99 2.81-.76 4.31-6.63 5.7-6.54 6.63.06 12.47 3.51 3.1 7.01 6.21 10.53 9.31 5.74 5.05 6.98 4.87 11.54-.99.89-1.14.54-4.13 3.27-3.05 1.17.46 2.49 1.59 2.89 2.72.73 2.07-1.71 2.21-2.73 3.17-5.46 5.19-5.48 6.39.23 11.46 3.36 2.98 6.72 5.95 10.08 8.92 7.3 6.46 8.33 6.38 13.46-1.89 1.08-1.74 1.71-3.14 3.84-1.44 1.64 1.31 2.14 2.72.46 4.39-.97.96-1.83 2.04-2.85 2.95-3.72 3.31-3.89 6.25.31 9.49 4.01 3.09 7.65 6.66 11.45 10.02 6.91 6.11 8.46 6.09 13.01-2.05 2.34-4.19 3.88-1.9 5.53-.12 2.22 2.4-.81 2.76-1.85 3.72-6.68 6.15-6.71 7.19-.04 13.09 4.09 3.62 8.28 7.14 12.26 10.88 2.89 2.72 5.36 2.89 7.76-.44 1.02-1.41 2.22-2.75 2.95-4.31 1.03-2.2 2.39-2.7 3.96-.94 4.39 4.96 7.32 2.17 10.2-1.66 1.98-2.63 4.78-4.64 6.04-7.83.45-1.14 1.07-2.31 2.5-1.75 1.45.57 2.81 1.57 3.29 3.12.44 1.42-.98 1.82-1.84 2.57-4.6 4.01-8.87 8.32-11.56 14.28-1-.88-1.79-1.46-2.43-2.17-3.91-4.33-6.58-1.69-9.58 1.37-3.5 3.57-2.13 5.99 1.08 8.64 3.92 3.22 7.63 6.69 11.43 10.05 6.98 6.16 8.19 6.06 13.04-1.95 1.21-2 2.07-3.55 4.22-1.43 3.35 3.3 5.81 1.92 8.15-1.2 2.21-2.95 5.27-5.23 6.68-8.81.49-1.24 1.31-2.7 3-1.98.98.42 2.07 1.37 2.42 2.33.58 1.58-.9 2.31-2.02 3.12-3.87 2.77-7.08 6.21-8.82 10.65-1.24 3.17-2.35 3.29-4.87 1.18-4.35-3.64-6.03.95-8.35 3.16-2.45 2.33-2.45 4.65.21 6.95 4.28 3.7 8.48 7.5 12.72 11.25 6.96 6.16 8.11 6 13.07-1.97.8-1.28 1.32-3.61 3.17-2.05 4.76 4.01 6.87.2 9.38-2.73 1.89-2.21 3.92-4.31 5.08-7.1.56-1.35 1.49-3.07 3.44-2.34.98.37 2.09 1.35 2.42 2.31.61 1.75-1.35 1.98-2.25 2.88-4.14 4.08-8.49 8.01-10.72 14.32-5.24-6.22-7.8-1.07-10.64 2.29-3.65 4.3.57 6.18 2.96 8.4 3.85 3.59 7.86 7.02 11.81 10.5 5.43 4.78 6.69 4.57 10.64-1.52.92-1.42.74-4.41 3.79-3.13 4.76 2.01 6.76-1.49 8.93-4.44 1.83-2.5 3.55-5.11 5.02-7.83 1.22-2.26 2.36-1.44 3.62-.3 1.33 1.19 2.62 2.03.33 4.02-3.36 2.92-6.25 6.41-9.11 9.85-1.42 1.7-1.79 3.52-5.15 3.05-3.75-.52-6.03 3.35-7.54 6.45-1.44 2.97 1.62 4.41 3.39 6.07 3.83 3.6 7.93 6.94 11.58 10.72 4.83 5.01 7.49 5.01 11.15-.89 1.35-2.18 2.02-4.56 5.47-3.86 1.65.33 2.67-1.42 3.64-2.61 2.56-3.16 5.73-5.84 7.34-9.77.86-2.09 2.41-2.31 4.16-.72 1.69 1.53 1.08 2.39-.55 3.55-2.73 1.95-4.43 4.78-6.17 7.66-1.57 2.58-3.19 5.46-6.38 6.58-4.6 1.62-7.64 4.39-7.67 9.66-.02 3.08-1.51 2.64-3.25 1.19-1.2-1-2.35-2.05-3.52-3.09-41.15-36.25-82.29-72.51-123.48-108.7-1.52-1.33-2.73-3.69-6.14-3.16 1.36 1.45 2.21 2.48 3.18 3.36 32.95 29.85 66.95 58.5 99.44 88.89 28.21 26.39 57.81 51.28 86.68 76.96 6.09 5.42 12.73 10.24 17.8 16.84 1.83 2.38 5 3.69 8.45 4.54-1.62-4.65-1.36-12.7-.33-15.72 3.33-9.7 10.59-16.91 16.48-24.79 5.82-7.78 10.97-16.01 16.44-23.97 6.14-8.92 13.46-16.96 18.85-26.53 3.19-5.67 8.66-10 11.51-16.34 1.59-3.55 5.73-1.23 8.49-.66 2.92.6 1.95 3.32 1.32 5.36-1.68 5.47-5.11 9.97-8.21 14.67-11.41 17.3-22.73 34.67-34.18 51.94-6.85 10.33-13.87 20.55-20.81 30.82-1.14 1.69-1.11 3.13.55 4.6 8.18 7.29 16.92 13.93 24.68 21.76 3.06 3.09 6.59 5.89 9.77 8.95 2.68 2.59 3.2 5.19-.54 7.61-6.02 3.91-11.92 8.01-17.86 12.04-2.38 1.61-4.21.84-6.21-.94-12.4-11.02-24.85-21.98-37.35-32.88-2.1-1.84-2.9-3.33-.74-5.77 3.96-4.47 3.29-7.92-1.48-12.1-64.85-56.87-129.51-113.96-194.21-171.01-55.19-48.65-110.36-97.32-165.54-145.98-2.61-2.3-5.15-5.64-8.31-.7-2.86 4.48-5.33 3.16-8.79.28-12.61-10.47-23.56-22.71-35.97-33.37-2.84-2.44-2.74-4.4.09-6.54.57.1 1.16.15 1.71.31zm53.62 16.41c15.97-13.89 31.84-27.89 47.86-41.72 11.41-9.85 23.05-19.43 34.52-29.22 2.2-1.88 4.1-4.13 6.06-6.29.72-.8 2.05-1.79.96-2.92-1.2-1.25-2.48-.24-3.55.64-3.58 2.95-7.27 5.79-10.73 8.87-12.7 11.33-24.96 23.2-38.09 34-13.91 11.44-26.41 24.43-40.45 35.69-.58.46-1.1 1.1-.6 2.13 1.61.79 2.91-.21 4.02-1.18zm100.56-46.27c3.31 3.2 6.26 3.25 9.43-.34 3.2-3.61 2.65-6.45-.88-9.38-4.05-3.35-7.89-6.95-11.87-10.39-3.91-3.38-6.58-1.09-9.35 1.92-2.85 3.1-2.18 5.41.82 7.78 2.14 1.69 4.11 3.58 6.16 5.39 1.91 1.66 3.88 3.27 5.69 5.03zm48.69 41.63c3.45 3.98 6.59 2.37 9.35-.51 2.95-3.06 1.85-5.82-1.23-8.36-4.21-3.46-8.26-7.11-12.29-10.78-3.54-3.23-6.31-1.53-9.07 1.13-3.17 3.05-1.85 5.39 1 7.69 2.27 1.83 4.4 3.84 6.59 5.77 1.9 1.67 4.01 3.16 5.65 5.06zm152.4 111.46c-.93-4.04-3.07-5.14-6.06-5.34 1.72 1.51 3.43 3.03 6.06 5.34zm-10.34-9.68c.92-.67.17-1.36-.31-1.9-.51-.58-1.25-1.07-1.96-.55-.91.67-.11 1.31.28 1.91.58.52 1.28 1.06 1.99.53z" />
    <path class="d"
        d="M731.68 425.06c4.39-5.59 9.03-11.53 13.73-17.43 1.33-1.66 2.74-3.23 4.73-4.25 3.8-1.94 4.19-4.32.55-6.91-1.19-.85-2.09-2.7-3.9-1.86-1.86.87-1.33 2.58-.81 4.07.96 2.77-.83 4.5-2.47 6.08-7.51 7.26-12.72 16.37-19.59 24.14-.86.98-2.27 2.19-.85 3.44s2.42-.3 3.3-1.27c1.7-1.87 3.35-3.79 5.31-6.01zM558.87 292.86c-1.71 4.48-6.3 6.21-9.18 9.58-1.51 1.76-2.94 3.3-.41 5.29 3.2 2.52 2.09 5.16-.09 7.48-2.38 2.54-5.1 4.74-7.59 7.18-1.2 1.18-2.87 2.51-.81 4.32 1.69 1.48 2.78.17 3.86-1.02 3.13-3.44 5.96-7.15 9.93-9.79 2.54-1.69 1.59-3.55-.4-5.13-2.61-2.07-2.27-4.26-.14-6.44 2.71-2.77 4.79-6.16 8.11-8.33 1-.65 2.27-1.33 1.69-2.63-.42-.96-1.49-1.87-2.48-2.28-1.4-.57-2.01.67-2.49 1.77zM548.83 338.57c-2.77 3.35-5.67 7.52-9.88 10.46-1.53 1.07-2.35 2.06-.75 3.67 1.44 1.45 2.73 1.84 4.38.04 3.67-3.99 6.7-8.57 11.26-11.76 2.1-1.47.79-3.16-.68-4.27-1.74-1.32-3.26-1.06-4.33 1.87zM694.85 458.19c3.13-3.6 5.98-8.03 10.23-11.15 2.2-1.62.58-2.57-.5-3.56-1.13-1.04-2.69-2.45-3.72-.26-2.3 4.84-6.37 8.2-9.64 12.22-1.47 1.81-1.16 3.06.52 4.33 1.64 1.24 2.4.32 3.11-1.58zM646.36 405.36c-1.79 2.03-3.55 4.08-5.37 6.08-1.68 1.84-.73 3.15.83 4.29 1.73 1.26 2.12-.21 2.94-1.35 2.91-4.08 5.96-8.13 9.98-11.18 2.36-1.79 1.09-2.73-.25-3.99-1.61-1.51-2.7-1.68-3.88.69-1.01 2.03-2.73 3.71-4.13 5.54-.03-.03-.07-.05-.1-.08zM625.11 386.52c1.54-1.75 3.04-3.54 4.64-5.24 1.66-1.76 1.04-3.1-.6-4.34-1.82-1.37-2.66-.36-3.51 1.28-2.28 4.37-5.81 7.75-9.36 11.03-1.37 1.27-2.3 2.01-.53 3.56 1.43 1.25 2.66 1.35 3.96-.18 1.76-2.07 3.59-4.09 5.39-6.13 0 0 .01 0 .02.01zM474.24 250.08c-1.36 2.25-5.18 3.79-7.68 6.76-1.01 1.2-2.27 2.35-.63 3.92 1.62 1.55 2.82.49 3.84-.8 2.89-3.68 6.57-6.51 10.11-9.49.93-.78 2.99-1.06 2.13-2.84-.54-1.12-1.77-2.13-2.93-2.66-1.96-.9-1.94 1.2-2.64 2.18-.45.63-.93 1.24-2.2 2.93zM467.64 283.79c3.12-2.69 6.26-5.53 9.56-8.18 1.34-1.07 2.62-1.92 1.08-3.62-1.23-1.36-2.6-2.39-4.35-.49-3.66 3.96-6.74 8.47-11.37 11.49-1.61 1.05-.83 2.35.3 3.33 1.01.87 2.12 2 3.24.08.49-.83.97-1.66 1.54-2.62zM526.16 290.58c-2.22 4.22-6.69 6.36-9.4 10.14-1.03 1.45-2.56 2.73-.49 4.38 1.82 1.44 2.73-.19 3.81-1.27 3.28-3.3 5.81-7.33 9.75-9.97 1.01-.67 2.18-1.39 1.5-2.68-.5-.95-1.53-1.83-2.53-2.26-1.32-.56-2.07.59-2.64 1.66zM572.26 339.02c-1.99 1.98-4.01 4.37-6.42 6.27-1.83 1.44-1.52 2.36-.11 3.61 1.46 1.28 2.83 1.39 3.66-.59 2.06-4.93 6.88-7.18 10.32-10.76.74-.77 2.41-1.12 1.51-2.55-.69-1.09-1.82-2.07-2.98-2.64-1.55-.75-1.71.92-2.33 1.8-1.1 1.58-2.32 3.08-3.66 4.85zM653.36 385.03c-1.54 1.74-3.08 3.48-4.6 5.23-1.01 1.15-1.41 2.33 0 3.47 1.12.89 2.14.64 3.03-.37 3.33-3.77 6.69-7.52 9.94-11.35 1.44-1.7.12-2.87-1.15-3.8-1.72-1.26-2.15.18-2.93 1.37-1.26 1.93-2.79 3.69-4.21 5.52l-.09-.07zM678.94 405.66c-2.32 2.63-3.98 4.51-5.64 6.4-1.06 1.21-1.19 2.39.22 3.45 1.21.9 2.17.34 3-.59 3.21-3.61 6.38-7.26 9.6-10.87 1.39-1.56.81-2.75-.56-3.9-1.91-1.59-2.47-.23-3.36 1.25-1.08 1.8-2.56 3.37-3.26 4.27zM524.15 315.92c-2.14 5.16-7.08 6.8-9.76 10.6-.98 1.38-2.8 2.55-.81 4.34 2.02 1.82 3.01-.12 4.18-1.32 3.23-3.31 5.76-7.31 9.87-9.73.99-.58 1.98-1.6 1.23-2.85-.56-.93-1.53-1.85-2.52-2.24-1.4-.55-1.93.79-2.19 1.21zM753.72 486.79c-1.28-.99-2.76-2.34-3.44.32-1.3 5.02-5.46 7.92-8.34 11.76-1 1.34-2.87 2.67-.7 4.35 2.15 1.66 3.17-.52 4.12-1.77 2.9-3.82 4.82-8.35 9.28-10.99 2.06-1.22.06-2.59-.91-3.66zM657.92 361.64c1.53-1.74 3.09-3.46 4.59-5.22 1.12-1.33.71-2.51-.59-3.42-1.25-.87-2.72-1.13-3.46.43-1.96 4.13-5.56 6.88-8.26 10.37-.92 1.19-2.36 2.35-.72 3.94 1.65 1.59 2.76.27 3.81-.91 1.55-1.72 3.07-3.47 4.6-5.21 0 0 .02.01.02.02zM533.01 273.6c-2.31 3.25-5.84 5.13-8.71 7.73-1.17 1.06-2.93 1.63-.99 3.45 1.25 1.17 2.49 1.82 3.99.27 3.76-3.91 6.78-8.51 11.41-11.61 1.6-1.07.42-2.39-.66-3.33-1.27-1.11-2.33-1.23-3.17.56-.49 1.04-1.24 1.96-1.87 2.93zM719.66 480.31c2.75-4.23 5.76-8.29 9.78-11.35 2.5-1.91.78-2.81-.44-3.96-1.32-1.25-2.41-1.69-3.53.47-2.42 4.64-5.39 8.92-9.05 12.7-1.14 1.18-1.13 2.47.24 3.46 1.6 1.16 2.43.06 3.01-1.32zM629.6 337.66c-1.55 1.75-3.11 3.5-4.63 5.27-.83.97-1.19 2.02-.13 3.08 1 .99 2.1 1.03 3.04-.01 3.41-3.75 6.79-7.52 10.13-11.33.91-1.04.73-2.15-.36-3.03-1.11-.9-2.15-.71-3.06.3-1.69 1.88-3.36 3.8-5.03 5.7l.04.04zM501.61 258.03c-1.14.88-2.04 1.6-2.98 2.28-1.4 1.01-.86 1.97.11 2.81.96.83 1.9 2.14 3.29.34 3.3-4.28 7.35-7.8 11.56-11.13 1.69-1.34 1.46-2.5.03-3.77-1.38-1.22-2.99-1.69-3.65.41-1.43 4.53-6.57 5.37-8.35 9.07zM503.21 273.45c2.2-2.33 4.22-3.79 1.69-6.03-3.21-2.84-3.15.96-4.32 2.18-3.07 3.22-5.56 7-9.38 9.48-1.32.86-2.08 1.89-.79 3.28 1.1 1.19 2.42 1.26 3.48-.07 2.93-3.66 6.59-6.55 9.31-8.84zM498.76 294.38c-2.8 3.4-5.63 7.3-9.72 10.03-1.28.85-2.72 1.92-1.24 3.7 1.27 1.52 2.62 1.3 3.85-.19 3.2-3.88 6.78-7.34 10.73-10.46 1.69-1.33 1.72-2.85-.02-4.32-1.59-1.34-2.72-1.21-3.58 1.24zM584.81 289.57c-1.27 4.49-6.27 5.56-8.46 9.24-.77 1.3-2.31 2.38-.65 3.95 1.65 1.57 2.72.21 3.83-.91 3.12-3.13 5.45-7 9.29-9.45 1.75-1.12 1.26-2.68.01-3.91-1.85-1.81-3.06-.69-4.03 1.08zM771.24 521.78c3.15-2.61 3.63-7.54 7.96-9.5 1.74-.79.71-2.25-.36-3.26-1.37-1.29-2.83-1.51-3.82.27-2.43 4.36-4.91 8.68-8.14 12.52-1.06 1.26-2.04 2.66-.24 3.9 2.3 1.58 2.27-.99 3.1-2 .49-.6.94-1.22 1.5-1.94zM581.45 322.85c1.68-1.66 3.23-4.15 5.89-5.6 1.92-1.05 1.41-2.45 0-3.69-1.46-1.28-2.75-1.38-3.66.58-1.85 3.98-4.94 6.78-8.44 9.31-1.66 1.21-3.81 3.06-1.63 5.19 2.24 2.19 3.17-.83 4.42-1.96 1.14-1.03 2.07-2.29 3.43-3.84zM593.82 395.98c2.18-3.18 5.37-6.83 9-10.09.82-.74 2.37-1.15 1.45-2.59-.58-.91-1.64-1.81-2.65-2.07-1.39-.36-1.74 1.1-2.35 2.1-2.43 4.03-5.54 7.51-9.21 10.45-.91.73-2.27 1.32-1.64 2.65.46.96 1.51 1.85 2.51 2.28 1.43.62 2-.65 2.89-2.73zM706 431.08c1.54-1.74 3.03-3.52 4.62-5.22 1.71-1.83.8-3.14-.78-4.28-1.71-1.24-2.05.29-2.97 1.32-3.2 3.6-4.71 8.47-8.71 11.43-1.23.91-1.34 1.79-.17 2.76 1.09.91 2.15.67 3.04-.32 1.68-1.87 3.33-3.77 5-5.66-.01 0-.02-.02-.03-.03zM754.1 475.69c2.54-2.88 4.21-4.77 5.87-6.66 1.42-1.62.61-2.81-.75-3.88-1.75-1.38-2.61-.51-3.52 1.17-2.1 3.91-4.2 7.84-7.36 11.06-1.17 1.19-2.02 2.62-.23 3.9 1.83 1.3 2.13-.53 2.88-1.58 1.23-1.74 2.61-3.37 3.11-4.01zM571.31 364.66c-2.55 2.39-4.1 5.22-6.91 6.8-2.17 1.22-2.01 2.56-.27 4.07 1.66 1.43 2.36.82 3.49-.89 2.68-4.06 5.83-7.8 9.73-10.78.94-.72 2.28-1.32 1.71-2.63-.42-.97-1.47-1.89-2.46-2.32-1.57-.68-1.73.97-2.35 1.87-1 1.43-2.11 2.79-2.94 3.89zM598.49 365.23c2.05-2.05 3.93-4.31 6.19-6.07 1.74-1.35 1.79-2.26.25-3.59-1.39-1.2-2.68-1.6-3.71.4-2.35 4.56-5.76 8.15-9.91 11.12-1.17.84-2.05 1.98-.79 3.38 1.36 1.51 2.66 1.12 3.87-.32 1.37-1.63 2.81-3.2 4.22-4.8l-.12-.12zM673.4 430.87c1.47-1.5 3.47-3.93 5.87-5.86 1.64-1.33 1.97-2.17.38-3.59-1.41-1.25-2.97-1.6-3.82.29-2.14 4.74-6.05 8.05-9.23 11.93-1.16 1.41-1.66 2.76.13 3.89 1.94 1.23 2.09-.77 2.82-1.75 1.04-1.4 2.15-2.75 3.86-4.92zM730.18 453.24c1.67-1.89 3.3-3.81 5.01-5.66 1.68-1.81.84-3.15-.76-4.3-1.74-1.25-2.14.21-2.95 1.36-2.68 3.77-4.66 8.03-8.01 11.34-.84.83-1.58 2.02-.4 3 1.17.97 2.13-.02 2.92-.9 1.42-1.59 2.82-3.19 4.23-4.79-.02-.01-.03-.03-.05-.04zM779.79 496.11c1.41-1.6 2.78-3.25 4.25-4.8 1.48-1.55 1.86-3-.19-4.27-1.65-1.02-2.83-.56-3.67 1.29-1.85 4.09-4.32 7.78-7.45 11.02-.81.84-1.65 1.97-.44 2.97 1.18.97 2.14-.05 2.93-.92 1.56-1.73 3.09-3.49 4.63-5.24l-.06-.06zM560.25 268.78c-2.03 2.87-4.68 6.17-8.12 8.75-1.32.99-2.77 1.84-1.06 3.58 1.27 1.28 2.39.62 3.47-.46 3.26-3.27 5.8-7.23 9.87-9.76 1.54-.96 1.3-2.81-.19-3.94-1.57-1.19-2.88-.7-3.97 1.84zM605.55 340.3c-2.22 2.22-4.22 4.35-6.37 6.3-.93.84-1.94 1.48-.8 2.74 1.12 1.24 2.31 1.15 3.49-.07 3.51-3.6 6.19-7.98 10.58-10.78 1.68-1.07.49-2.37-.58-3.31-1.22-1.07-2.23-1.32-3.18.48-.9 1.7-2.15 3.21-3.14 4.63zM632.9 358.6c-2.42 2.74-5.37 6.08-8.31 9.43-1.05 1.19-2.28 2.51-.51 3.93 2.16 1.74 2.34-.65 3.24-1.69 2.89-3.37 5.3-7.2 9.21-9.61 1.85-1.14 1.5-2.44.06-3.73-1.57-1.4-2.73-1.26-3.69 1.66z" />
    <path class="e"
        d="M355.02 238.08c.57.1 1.16.15 1.71.31 2.51.73 5.28 1.41 6.9-1.19 1.66-2.68-.68-4.72-2.17-6.69-.57-.76-1.46-1.27-2.2-1.9-.81 3.42-4.06 5.75-4.23 9.46z" />
    <path class="d"
        d="M741.62 392.66c.87.66 1.86.67 2.53-.1.83-.95.04-1.75-.71-2.33-.59-.46-1.38-.87-1.99-.11-.65.82-.56 1.74.17 2.54zM616.54 766.99c.99.55 1.26 2.91 3.07 1.33 1.68-1.46.55-2.75-.48-3.98-.12-.15-.28-.35-.44-.37-2.55-.39-2.41-6.7-5.66-3.58-2.06 1.98 1.61 4.66 3.5 6.6zM259.58 452.09c1.53.46 2.53 4.31 4.87 1.7 1.87-2.09-.38-3.78-2.01-5.2-.58-.5-1.11-1.12-1.46-1.79-.97-1.87-2.33-2.84-4.13-1.33-1.73 1.45-1.07 3.12.36 4.52.69.68 1.45 1.29 2.37 2.1zM635.91 740.52c1.93.52 3.49 4.58 5.51 2.34 2.08-2.3-1.92-3.43-3.08-5.17-.31-.47-.81-.88-1.31-1.14-1.51-.78-2.78-3.82-4.7-1.46-1.52 1.87 1.37 2.72 2.21 4.07.3.48.81.83 1.36 1.36zM624.94 729.43c-.14 1.66 1.45 2.33 2.48 3.29 1.2 1.12 2.51 1.04 3.46-.33 1.43-2.06-.91-2.03-1.71-2.74-1.16-1.04-2.49-2.01-4.23-.22zM623.86 726.8c-.53-.1-.86-.16-1.18-.22-.06.45-.18.9-.13 1.34.01.11.83.28.88.2.22-.38.29-.84.42-1.31zM284.05 428.79c2.52 1.14 4.38 5.92 6.82 3 1.56-1.86-2.37-4.83-4.78-6.63-1.69-1.26-3.28-2.67-4.95-3.97-.76-.6-1.66-1.21-2.52-.26-.78.86-.4 1.92.24 2.62 1.69 1.85 3.52 3.57 5.19 5.23zM291.07 415.99c1.75.43 2.94 4.39 4.95 1.73 1.53-2.03-1.67-3.47-3.15-4.72-1.32-1.11-2.99-4.08-4.49-2.41-2.29 2.54 1.46 3.61 2.7 5.41zM660.19 716.47c1.62.81 2.91 3.73 5.23 1.35 1.91-1.96-.39-3-1.51-4.11-1.48-1.46-3.19-3.52-5.32-1.41-1.93 1.91.56 2.88 1.6 4.17zM330.61 375.17c-2.31-.9-2.75-3.86-5.34-4.36-.94-.18-1.82-.83-2.55.23-.62.91-.46 1.94.3 2.64 3.29 3.02 6.61 6 9.99 8.91.92.79 2.21 1.05 3.14-.01.94-1.07.32-2.45-.39-3.17-1.58-1.6-3.47-2.89-5.16-4.24zM343.96 573.5c-1.79-1.74-4.77-4.48-7.54-7.43-.92-.98-1.55-1.77-2.75-.72-1.18 1.03-1.51 2.28-.19 3.46 6.01 5.35 12.05 10.69 18.09 16.01.91.8 2.07 1.46 3.03.34.96-1.12.11-2.16-.79-2.96-2.88-2.57-5.79-5.12-9.86-8.7zM362.18 571.28c1.27 1.96 2.35 3.25 4.34.71 1.51-1.93.79-2.94-.63-4.32-1.7-1.65-3.02-2.01-4.74.01-1.73 2.02-1.08 3.03 1.04 3.59zM506.97 716.97c-2.33-2.06-4.83-3.96-6.93-6.23-1.15-1.23-1.78-2.81-3.43-.85-1.12 1.33-1.35 2.64.31 3.97 5.09 4.09 10.08 8.29 15.11 12.45.9.74 1.89 1.77 3.02.74 1.51-1.38.18-2.42-.81-3.31-2.45-2.22-4.96-4.39-7.44-6.58.06-.06.11-.13.17-.19zM508.19 696.86c-1.5 1.39-1.71 2.75.12 4.23 1.59 1.28 2.88 2.49 4.79.27 1.59-1.86.99-2.93-.55-4.27-1.44-1.26-2.72-2.28-4.36-.23zM516.26 728.55c.04.32.08.62.12.92.41-.12.82-.24 1.24-.36-.15-.29-.23-.72-.46-.83-.21-.1-.58.16-.9.27z" />
    <path class="h"
        d="M290.65 499.63c2.34-2.79 4.75-3.07 7.48-.65 4.95 4.38 9.89 8.77 14.87 13.1 3.22 2.79 2.94 5.52.21 8.49-3.29 3.58-6.46 7.26-9.65 10.92-10.21 11.74-8.71 10.94-19.47 1.31-14.96-13.4-14-9.43-2.78-22.54 3.95-4.49 6.71-7.5 9.33-10.62zm.59 28.83c-1.18 1.13.01 2.08.84 2.81.88.77 1.98 1.53 3.02.4 1.05-1.13.33-2.1-.69-2.87-1-.71-2.26-1.23-3.18-.34zM271.87 514.8c-2.35 2.69-4.78 2.95-7.51.48-4.9-4.43-9.85-8.8-14.83-13.14-3.22-2.8-2.95-5.46-.15-8.43 3.33-3.54 6.43-7.29 9.66-10.92 9.76-10.99 8-11.33 19.52-1.15q12.62 11.15 1.42 23.98c-2.7 3.06-5.4 6.12-8.09 9.19zm-10.18-11.98c-2.49 3.31 3.69 2.32 2.84 5.34-.22.77 2.13 1.47 3.19.06 1.83-2.43-.86-3.2-1.79-4.57-1.35-.82-2.52-3.12-4.24-.83zm-4.83-1.65c1 .91 2.9 1.97 4.01.47 1.73-2.34-1.34-2.98-2.13-4.46-.61-1.15-1.4-1.87-2.56-.48-1.43 1.72-.53 3.37.68 4.47zM230.47 462.75c2.7-3.07 5.4-6.13 8.11-9.2 2.38-2.7 4.88-2.83 7.58-.42 5.08 4.54 10.18 9.06 15.3 13.55 2.35 2.06 2.56 4.34.58 6.63-5.48 6.33-11.02 12.6-16.62 18.82-1.96 2.18-4.25 2.58-6.64.45-5.23-4.67-10.49-9.29-15.71-13.97-2.47-2.22-2.56-4.67-.4-7.16 2.55-2.94 5.14-5.85 7.72-8.77l.08.07zm1.25 13.1c-2.44 2.69 2.21 4.7 4.53 6.47 1.7 1.3 1.97 3.82 4.07 4.85 1.3.63 2.59 1.15 3.72-.1 1.31-1.46.13-2.47-.87-3.4-1.43-1.32-2.91-2.58-4.91-4.34-2.17-.48-4.13-6.14-6.54-3.47zm23.21-1.86c.3.1 1.21-.53 1.26-.9.32-2.53-1.57-3.05-4.29-4.07.84 2.58 1.16 4.33 3.03 4.97z" />
    <path class="d"
        d="M294.42 528.81c-1.01-.71-2.26-1.23-3.18-.34-1.18 1.13.01 2.08.84 2.81.88.77 1.98 1.53 3.02.4 1.05-1.13.33-2.1-.69-2.87zM265.93 503.65c-1.35-.82-2.52-3.12-4.24-.83-2.49 3.31 3.69 2.32 2.84 5.34-.22.77 2.13 1.47 3.19.06 1.83-2.43-.86-3.2-1.79-4.57zM256.18 496.7c-1.43 1.72-.53 3.37.68 4.47 1 .91 2.9 1.97 4.01.47 1.73-2.34-1.34-2.98-2.13-4.46-.61-1.15-1.4-1.87-2.56-.48zM238.27 479.32c-2.17-.48-4.13-6.14-6.54-3.47-2.44 2.69 2.21 4.7 4.53 6.47 1.7 1.3 1.97 3.82 4.07 4.85 1.3.63 2.59 1.15 3.72-.1 1.31-1.46.13-2.47-.87-3.4-1.43-1.32-2.91-2.58-4.91-4.34zM251.9 469.02c.84 2.58 1.16 4.33 3.03 4.97.3.1 1.21-.53 1.26-.9.32-2.53-1.57-3.05-4.29-4.07zM310.81 548.33c2.94.79 2.08 5.05 5.26 5.69 1.24.25 2.47 1.64 3.59.04.87-1.25-.43-1.97-.95-2.95-1.91-3.63-5.77-4.96-8.54-7.55-1-.93-2.2-2.11-3.48-.79-1.42 1.47 2 1.12 1.35 2.99-.35 1.02 1.45 2.07 2.76 2.58zM595.28 696.23c1.83-2.2 2.04-4.38 2.4-6.71q-6.25 1.49-2.4 6.71zM544.76 601.66c-.57 1.34-2.77 2.42-.71 4.35 1.63 1.53 2.75.67 3.84-.6 1.11-1.3 2.65-2.61.8-4.4-1.48-1.44-2.77-.78-3.93.65zM413.38 527.31c-.26 1.39-.39 2.85-1.78 3.69-.01.33-.02.67-.01 1 .71 2.4 1.82 2.46 3.56.79 2.55-2.45.57-3.91-1-5.53-.25.02-.51.04-.77.05z" />
    <path class="d"
        d="M411.6 531c-.86-.18-2.24-.86-2.28.43-.04 1.19 1.41.63 2.27.57 0-.33 0-.66.01-1zM414.15 527.27l-.42-.81c-.11.28-.23.57-.35.85.25 0 .51-.02.76-.05zM559.43 702.87c.65 2.33-2.49 3.21-2.4 5.35.03.75 1.89 1.95 2.74.56 1.07-1.73 1.63-3.81 2.15-5.81.07-.27-1.31-1.43-2.49-.11zM540.42 643.98c-1.1 1.69-1.22 3.3.33 4.72 2.28 2.08 3.39-.05 4.65-1.4 1.18-1.26 1.74-2.62.08-3.95-1.91-1.53-3.57-.96-5.06.63zM475.6 499.01c-2.26-1.27-3.12.69-4.26 1.81-1.02.99-1.72 2.24-.29 3.43 1.45 1.21 2.99.95 3.9-.6.79-1.37 2.15-2.89.66-4.63zM555.38 561.61c-.82 1.31-.84 2.19.18 2.83 2.62 1.63 4.74-.35 6.94-1.17.81-.3.3-1.55-.32-1.92-2.44-1.43-4.69.32-6.8.26zM445.77 476.9c-.52 1.22-1.77 2.99-.3 3.96 1.5.99 3.26-.29 4.41-1.59 1.1-1.24.78-2.54-.56-3.42-1.4-.92-2.53-.29-3.56 1.05zM571.23 625.17c.44 1.9-3.74 2.22-1.84 4.44 1.46 1.71 2.73-.2 3.64-1.29 1.01-1.2 3.14-2.38 1.51-4.26-1.3-1.5-2.29.13-3.31 1.11zM523.85 576.66c-4.21.99-5.03 3.36-6.72 5.94 3.66-.42 4.83-2.56 6.72-5.94zM523.12 546.8c-1.17 1.4-1.16 2.64.2 3.63 1.73 1.25 2.89.1 3.88-1.19.86-1.13 1.6-2.73.35-3.63-1.68-1.21-3.15.38-4.43 1.19zM494.31 599.41c.7-1.8.23-3.05-1.74-3.49-.32-.07-.98.1-1.04.3-.52 1.68 1.46 1.98 1.85 3.19.31 0 .62.01.93 0zM488.55 600.54c.35-1.04 2.36-.99 1.75-2.55-.14-.37-1.04-.77-1.45-.66-1.92.5-1.32 2.03-1.18 3.34.29-.04.59-.08.88-.13z" />
    <path class="d"
        d="M493.38 599.41c-.87.99-1.74 1.99-2.6 2.98-.02.3-.04.6-.04.9 2.91.3 4.06-1.04 3.57-3.88h-.93zM487.67 600.67c.12 1.92 1.19 2.74 3.06 2.61 0-.29.02-.59.04-.89-.74-.62-1.49-1.23-2.23-1.85-.29.05-.58.09-.88.13zM576.6 592.15c-1.11 1.23-1.93 2.45-.06 3.72.8.54 1.85 1.2 2.41.15.79-1.48 1.38-3.45.37-4.84-.87-1.18-1.94.19-2.72.96zM583.17 588.79c.5-2.59 4.56-1.53 4.4-4.63-.05-.86-.91-1.31-1.73-.95-2.15.95-4.42 1.92-2.66 5.58zM463.81 578.1c.61 3.01 1.9 4.22 4.13 1.05.63-.9 2.43-3.02.13-2.73-2.47.31-2.83-6.64-6.01-1.36-1.43 2.37-1.05 3.07 1.76 3.03zM419.05 454.23c-1.06 1.54-1.47 3.17.39 4.4 1.5.99 2.94.38 4.05-.88 1.29-1.47 1.68-3.19.06-4.52-1.65-1.36-3.2-.45-4.5 1.01zM467.45 536.72c-.71-.61-1.42-1.23-2.12-1.84-.3 0-.6-.02-.9-.02-.79 3.02.33 3.88 3.17 2.8-.04-.31-.09-.63-.14-.94z" />
    <path class="d"
        d="M467.59 537.65c2.13-.39 3.25-1.78 3.88-3.87-2.16.05-2.62 2.13-4.02 2.94.05.31.1.62.14.93zM465.32 534.88c.92-1.34 1.83-2.68 3.25-4.76-2.81 1.26-4.08 2.53-4.15 4.74.3 0 .6 0 .9.02zM398.2 567.79c3.22-2.69 1.73 3.49 5.21 2.28 1.63-.57 3.39-.4 4.27-2.19.8-1.63-.25-1.94-1.64-1.98-1.76-.04-2.1-5.64-5.02-1.3-.74 1.1-2.51 1.16-2.82 3.19zM620.14 670.6c-1.61 1.59-1.45 2.99.24 4.42 2.01 1.7 3.82 1.62 5.57-.32 1.46-1.61 2.24-3.49.34-5.07-2.2-1.83-4.34-.79-6.15.97zM431.88 594.05c1.36-2.4 2.96-4.52 1.97-4.48-2.72.11-2.94-3.84-5.17-2.86-1.4.61-2.53 2.43-3.17 3.97-.54 1.29.97 1.56 1.83 1.16 2.03-.93 2.52 6.86 4.53 2.22zM536.38 681.78c-3.2-4.63-4.14 1.6-6.82.65 2.96 5.16 4.94 3 6.87.13-.02-.26-.04-.52-.05-.77z" />
    <path class="d"
        d="M536.43 682.56l.86-.43c-.3-.11-.6-.23-.91-.34 0 .26.02.51.05.77zM412.6 491.38c2.13 1.1 4.05.79 5.69-.95 1.43-1.52 2.38-3.39.65-5.07-1.74-1.69-3.96-1.35-5.72.22-1.83 1.63-1.77 3.67-.63 5.8zM388.27 462.57c-.95 2.1-.18 4.19 1.22 5.27 1.71 1.31 2.56-.95 3.42-2.03 1.13-1.41.93-2.96-.61-4-1.5-1.01-2.92-.65-4.03.76zM606.11 614.24c-1.88-1.1-3.24-.24-4.49 1.16-1.21 1.36-2.27 2.82-.65 4.46.69.7 1.32.44 2.11-.61 2.73-3.63 3.52-4.59 3.03-5.01zM609.54 606.45c-1.04 1.35-1.37 2.86-.1 4.12 1.31 1.3 2.42.26 3.31-.8.92-1.1 1.39-2.29.18-3.53-1.21-1.25-2.33-.97-3.39.22zM596.32 651.68c1.29 4.8 3.83 1.47 5.23.3 2.55-2.15-2-3.08-1.35-5.13-2.33 1.93-2.21-4.81-4.33-1.4-.81 1.31-5.39 4.59.45 6.23zM504.75 519.7c1.71.92 3.11.52 3.88-1.15.61-1.32 1.88-3 .24-4.21-1.79-1.33-3.4.51-4.64 1.37-1.7 1.17-.26 2.71.52 4zM635.55 633.69c1.31 1.01 2.49.72 3.44-.49 1.23-1.57 1.3-3.16-.4-4.43-1.2-.89-2.63-.94-3.48.39-.96 1.5-1.32 3.18.44 4.53zM628.08 638.86c.74 1.66-3.56 2.45-1.15 4.02 2.29 1.49 3.27-1.93 5.11-2.74 1.09-.48.92-2.21-.24-2.9-1.7-1.01-2.92-.14-3.72 1.62zM458.97 611c-2.22-1.31-4-1.04-5.65.88-1.51 1.75-1.76 3.38.03 4.96 1.9 1.68 3.16.2 4.25-1.14 1.1-1.35 3.18-2.56 1.37-4.71zM647.35 611.44c-.88 1.07-.9 2.07.18 3.04 1.32 1.18 2.47.89 3.44-.42.86-1.17.44-2.19-.6-3.01-1.12-.88-2.13-.7-3.02.38zM592.91 568.09c2.26 1.78 4 1.16 5.63-.71 1.61-1.85 1.1-3.72-.26-5.19-1.85-2.01-4.23-1.05-5.7.36-1.73 1.66-1.21 3.87.32 5.54zM701.54 662.24c1.54.95 3 3.42 4.85 1.5 1.49-1.55-.81-2.71-1.87-3.48-1.33-.96-2.53-3.83-4.62-1.64-1.6 1.68 1 2.42 1.64 3.61zM376.63 371.35c-1.15 1.64-1.73 3.45-.08 4.28 1.94.97 4.46 3.52 6.22 1.76 2.16-2.16-1.48-3.75-2.31-5.69-.79-1.86-2.6-.8-3.82-.35zM620.54 592.47c1.52 1.65 3.48 3.28 6-.08 1.52-2.03 2.24-4.27-.37-5.22-2.41-.88-4.26-5.49-7.86-1.62-3.07 3.29-.15 4.64 2.23 6.93z" />
    <path class="h"
        d="M406.34 255.98c1.61.79 2.91-.21 4.02-1.18 15.97-13.89 31.84-27.89 47.86-41.72 11.41-9.85 23.05-19.43 34.52-29.22 2.2-1.88 4.1-4.13 6.06-6.29.72-.8 2.05-1.79.96-2.92-1.2-1.25-2.48-.24-3.55.64-3.58 2.95-7.27 5.79-10.73 8.87-12.7 11.33-24.96 23.2-38.09 34-13.91 11.44-26.41 24.43-40.45 35.69-.58.46-1.1 1.1-.6 2.13zM501.45 207.79c1.91 1.67 3.9 3.24 5.68 5.04 3.24 3.27 6.75 2.69 11.33-2.49 4.61-5.21 4.58-8.64 1.01-11.52-4.09-3.3-7.89-6.95-11.89-10.37-3.93-3.36-7.61.08-11.58 4.44-4.08 4.49-3.78 7.23-.72 9.53 2.18 1.64 4.12 3.58 6.17 5.37zM549.61 250.03c1.9 1.67 4.11 3.05 5.63 5.08 3.2 4.27 7.52 1.31 11.74-3.21 4.49-4.81 3.88-8.13.75-10.6-4.28-3.38-8.31-7.06-12.3-10.77-3.52-3.27-7.41-.28-11.56 3.95-4.76 4.85-3.76 7.56-.85 9.79 2.32 1.78 4.41 3.83 6.6 5.76zM705.95 356.29c1.72 1.51 3.43 3.03 6.06 5.34-.93-4.04-3.07-5.14-6.06-5.34zM699.69 351.41c.58.52 1.27 1.06 1.98.53.92-.67.17-1.36-.31-1.9-.51-.58-1.25-1.07-1.96-.55-.91.67-.11 1.31.29 1.91z" />
</svg>