<svg id="a" data-name="图层 1" xmlns="http://www.w3.org/2000/svg" viewBox="0 0 416 116"><defs><style>.b,.c{fill:#7fd9e5;stroke-width:0}.c{fill:#000}</style></defs><path class="b" d="M14.61 88.08V10.55h25.12c9.52 0 15.73.39 18.62 1.16 4.44 1.16 8.16 3.69 11.16 7.59S74 28.23 74 34.4c0 4.76-.86 8.76-2.59 12.01-1.73 3.24-3.92 5.79-6.58 7.64s-5.37 3.08-8.12 3.68c-3.74.74-9.15 1.11-16.24 1.11H30.26v29.25H14.61zm15.66-64.42v22h8.57c6.17 0 10.3-.41 12.38-1.22s3.71-2.08 4.89-3.81c1.18-1.73 1.77-3.74 1.77-6.03 0-2.82-.83-5.15-2.49-6.98-1.66-1.83-3.76-2.98-6.29-3.44-1.87-.35-5.63-.53-11.27-.53h-7.56zM98.28 88.08H83.42V31.91h13.8v7.99c2.36-3.77 4.49-6.26 6.37-7.46 1.89-1.2 4.03-1.8 6.43-1.8 3.39 0 6.65.93 9.79 2.8l-4.6 12.96c-2.5-1.62-4.83-2.43-6.98-2.43s-3.84.57-5.29 1.72c-1.45 1.15-2.58 3.22-3.41 6.21-.83 3-1.24 9.27-1.24 18.83v17.35zM120.06 59.21c0-4.94 1.22-9.71 3.65-14.33 2.43-4.62 5.88-8.15 10.34-10.58 4.46-2.43 9.44-3.65 14.94-3.65 8.5 0 15.46 2.76 20.89 8.28s8.15 12.49 8.15 20.92-2.74 15.54-8.22 21.13-12.39 8.38-20.71 8.38c-5.15 0-10.06-1.16-14.73-3.49s-8.22-5.74-10.66-10.23c-2.43-4.5-3.65-9.97-3.65-16.42zm15.23.79c0 5.57 1.32 9.84 3.97 12.8 2.64 2.96 5.91 4.44 9.79 4.44s7.13-1.48 9.76-4.44c2.63-2.96 3.94-7.26 3.94-12.91s-1.31-9.73-3.94-12.69c-2.63-2.96-5.88-4.44-9.76-4.44s-7.14 1.48-9.79 4.44c-2.64 2.96-3.97 7.23-3.97 12.8zM201.5 31.91v54.42c0 7.16-.47 12.21-1.4 15.15-.93 2.94-2.73 5.24-5.4 6.9-2.66 1.66-6.06 2.49-10.18 2.49-1.48 0-3.08-.13-4.79-.4-1.71-.26-3.55-.66-5.53-1.19l2.59-12.69c.71.14 1.37.26 1.98.34.62.09 1.19.13 1.72.13 1.52 0 2.76-.33 3.73-.98.97-.65 1.61-1.44 1.93-2.35.32-.92.48-3.67.48-8.25V31.91h14.86zm-14.87-7.61V10.55h14.86V24.3h-14.86zM246.87 70.21l14.81 2.49c-1.9 5.43-4.91 9.57-9.02 12.4-4.11 2.84-9.25 4.26-15.42 4.26-9.77 0-17-3.19-21.68-9.57-3.7-5.11-5.55-11.57-5.55-19.36 0-9.31 2.43-16.6 7.3-21.87 4.87-5.27 11.02-7.91 18.46-7.91 8.36 0 14.95 2.76 19.78 8.28 4.83 5.52 7.14 13.97 6.93 25.36h-37.23c.11 4.41 1.3 7.84 3.6 10.29 2.29 2.45 5.15 3.68 8.57 3.68 2.33 0 4.28-.63 5.87-1.9 1.59-1.27 2.79-3.31 3.6-6.14zm.84-15.02c-.11-4.3-1.22-7.57-3.33-9.81-2.12-2.24-4.69-3.36-7.72-3.36-3.24 0-5.92 1.18-8.04 3.54-2.12 2.36-3.16 5.57-3.12 9.63h22.21zM320.85 48.52l-14.65 2.64c-.49-2.93-1.61-5.13-3.36-6.61-1.75-1.48-4.01-2.22-6.8-2.22-3.7 0-6.66 1.28-8.86 3.83-2.2 2.56-3.31 6.83-3.31 12.83 0 6.66 1.12 11.37 3.36 14.12 2.24 2.75 5.24 4.13 9.02 4.13 2.82 0 5.13-.8 6.93-2.41 1.8-1.6 3.07-4.36 3.81-8.28l14.6 2.49c-1.52 6.7-4.43 11.76-8.73 15.18-4.3 3.42-10.07 5.13-17.29 5.13-8.22 0-14.76-2.59-19.65-7.77s-7.33-12.36-7.33-21.53 2.45-16.49 7.35-21.66c4.9-5.17 11.53-7.75 19.89-7.75 6.84 0 12.28 1.47 16.32 4.42 4.04 2.94 6.94 7.43 8.7 13.46zM355.16 31.91v11.85H345V66.4c0 4.58.1 7.25.29 8.01.19.76.63 1.38 1.32 1.88.69.49 1.52.74 2.51.74 1.37 0 3.37-.48 5.98-1.43l1.27 11.53c-3.46 1.48-7.37 2.22-11.74 2.22-2.68 0-5.1-.45-7.25-1.35-2.15-.9-3.73-2.06-4.73-3.49-1-1.43-1.7-3.36-2.09-5.79-.32-1.73-.48-5.22-.48-10.47V43.76h-6.82V31.91h6.82V20.75L345 12.08v19.83h10.16zM357.53 72.06l14.92-2.27c.63 2.89 1.92 5.09 3.86 6.58 1.94 1.5 4.65 2.25 8.15 2.25 3.84 0 6.73-.71 8.67-2.12 1.3-.99 1.96-2.31 1.96-3.97 0-1.13-.35-2.06-1.06-2.8-.74-.71-2.4-1.36-4.97-1.96-11.99-2.64-19.59-5.06-22.8-7.25-4.44-3.03-6.66-7.25-6.66-12.64 0-4.87 1.92-8.96 5.76-12.27 3.84-3.31 9.8-4.97 17.88-4.97s13.4 1.25 17.14 3.76c3.74 2.5 6.31 6.21 7.72 11.11l-14.02 2.59c-.6-2.19-1.74-3.86-3.41-5.02-1.68-1.16-4.06-1.75-7.17-1.75-3.91 0-6.72.55-8.41 1.64-1.13.78-1.69 1.78-1.69 3.01 0 1.06.49 1.96 1.48 2.7 1.34.99 5.97 2.38 13.88 4.18 7.92 1.8 13.44 4 16.58 6.61 3.1 2.64 4.65 6.33 4.65 11.05 0 5.15-2.15 9.57-6.45 13.28-4.3 3.7-10.67 5.55-19.09 5.55-7.65 0-13.71-1.55-18.17-4.65-4.46-3.1-7.38-7.32-8.75-12.64z"/><g><path class="c" d="M33.55 5.05c9.68 0 15.99.4 18.93 1.18 4.52 1.18 8.3 3.76 11.35 7.72 3.05 3.96 4.57 9.08 4.57 15.35 0 4.84-.88 8.91-2.64 12.21-1.76 3.3-3.99 5.89-6.69 7.77-2.71 1.88-5.46 3.13-8.25 3.74-3.8.75-9.3 1.13-16.51 1.13H23.93v29.74H8.01V5.05h25.54m-9.63 35.7h8.71c6.27 0 10.47-.41 12.58-1.24 2.12-.82 3.77-2.11 4.98-3.87 1.2-1.76 1.8-3.8 1.8-6.13 0-2.87-.84-5.23-2.53-7.1-1.69-1.86-3.82-3.03-6.4-3.5-1.9-.36-5.72-.54-11.45-.54h-7.69v22.37m9.63-37.69H6.01v82.83h19.92V56.14h8.38c7.3 0 12.99-.39 16.9-1.17 3.08-.67 6.1-2.03 9.01-4.06 2.96-2.06 5.42-4.91 7.32-8.47 1.9-3.58 2.87-8 2.87-13.15 0-6.69-1.68-12.27-4.99-16.57-3.31-4.3-7.49-7.14-12.42-8.43-3.13-.84-9.49-1.25-19.44-1.25zm-7.63 17.33h5.69c6.95 0 9.86.27 11.08.5 2.17.39 3.89 1.33 5.29 2.87 1.35 1.5 2.01 3.38 2.01 5.76 0 1.94-.47 3.57-1.45 5-.98 1.43-2.3 2.46-4.05 3.14-1.29.5-4.39 1.1-11.86 1.1h-6.71V20.38zM105 25.48c3.44 0 6.76.95 9.95 2.85l-4.68 13.17c-2.55-1.65-4.91-2.47-7.1-2.47s-3.91.58-5.38 1.75c-1.47 1.17-2.62 3.27-3.47 6.32-.84 3.05-1.26 9.43-1.26 19.14v17.64H77.95V26.77h14.03v8.12c2.4-3.84 4.56-6.36 6.48-7.58 1.92-1.22 4.1-1.83 6.53-1.83m.01-2c-2.81 0-5.37.72-7.61 2.14-1.1.7-2.23 1.72-3.41 3.08v-3.93H75.95v61.11h19.11V66.24c0-9.49.4-15.75 1.19-18.61.71-2.58 1.68-4.41 2.78-5.28 1.12-.88 2.47-1.32 4.14-1.32 1.78 0 3.81.72 6.01 2.15l2.12 1.38.85-2.38 4.68-13.17.55-1.55-1.41-.84c-3.49-2.08-7.18-3.13-10.97-3.13zM144.63 25.48c8.64 0 15.72 2.81 21.24 8.42 5.52 5.61 8.28 12.7 8.28 21.27s-2.79 15.8-8.36 21.48c-5.57 5.68-12.59 8.52-21.05 8.52-5.23 0-10.23-1.18-14.98-3.55s-8.36-5.83-10.83-10.41c-2.47-4.57-3.71-10.14-3.71-16.7 0-5.02 1.24-9.88 3.71-14.57 2.47-4.7 5.98-8.28 10.51-10.75 4.54-2.47 9.6-3.71 15.19-3.71m.05 47.38c3.94 0 7.25-1.51 9.92-4.52s4.01-7.38 4.01-13.12-1.34-9.89-4.01-12.91c-2.67-3.01-5.98-4.52-9.92-4.52s-7.26 1.51-9.95 4.52c-2.69 3.01-4.03 7.35-4.03 13.01s1.35 10 4.03 13.01c2.69 3.01 6 4.52 9.95 4.52m-.05-49.37c-5.9 0-11.34 1.33-16.15 3.95-4.86 2.65-8.67 6.55-11.32 11.58-2.62 4.97-3.94 10.18-3.94 15.5 0 6.86 1.33 12.8 3.95 17.65 2.66 4.92 6.6 8.7 11.7 11.24 5.01 2.49 10.35 3.76 15.87 3.76 8.98 0 16.54-3.07 22.48-9.12 5.93-6.04 8.93-13.74 8.93-22.88s-2.98-16.7-8.86-22.67c-5.88-5.98-13.51-9.01-22.67-9.01zm.05 47.38c-3.38 0-6.14-1.26-8.46-3.85-2.34-2.62-3.53-6.55-3.53-11.68s1.19-9.06 3.53-11.68c2.31-2.59 5.08-3.85 8.46-3.85s6.13 1.26 8.42 3.84c2.33 2.62 3.5 6.52 3.5 11.58s-1.18 9.17-3.5 11.79c-2.29 2.59-5.05 3.84-8.42 3.84z"/><path class="c" d="M198.01 5.05v13.98H182.9V5.05h15.11m0 21.72V82.1c0 7.28-.48 12.41-1.42 15.41-.95 2.99-2.78 5.33-5.48 7.02-2.71 1.68-6.16 2.53-10.35 2.53-1.51 0-3.13-.13-4.87-.4-1.74-.27-3.61-.67-5.62-1.21l2.63-12.91c.72.14 1.39.26 2.02.35.63.09 1.21.13 1.75.13 1.54 0 2.8-.33 3.79-.99.99-.66 1.64-1.46 1.96-2.39.32-.93.48-3.73.48-8.39V26.77h15.11m2-23.72H180.9v17.98h19.11V3.05zm0 21.72H180.9v56.47c0 6.31-.31 7.55-.37 7.74-.18.51-.57.97-1.19 1.39-.65.43-1.55.65-2.67.65-.44 0-.93-.04-1.47-.11-.58-.08-1.22-.19-1.91-.33l-1.95-.39-.4 1.95-2.63 12.91-.38 1.84 1.82.49c2.07.55 4.03.98 5.83 1.25 1.83.28 3.57.43 5.17.43 4.55 0 8.39-.95 11.41-2.83 3.11-1.94 5.24-4.67 6.33-8.11 1.02-3.23 1.52-8.46 1.52-16.01V24.77zM232.85 25.48c8.5 0 15.2 2.81 20.11 8.42 4.91 5.61 7.26 14.21 7.04 25.78h-37.86c.11 4.48 1.33 7.97 3.66 10.46 2.33 2.49 5.23 3.74 8.71 3.74 2.37 0 4.36-.65 5.97-1.94s2.83-3.37 3.66-6.24l15.06 2.53c-1.94 5.52-4.99 9.72-9.17 12.61-4.18 2.89-9.4 4.33-15.68 4.33-9.93 0-17.28-3.24-22.05-9.73-3.76-5.2-5.65-11.76-5.65-19.68 0-9.46 2.47-16.88 7.42-22.24 4.95-5.36 11.2-8.04 18.77-8.04m-10.42 24.95h22.59c-.11-4.37-1.24-7.7-3.39-9.98-2.15-2.28-4.77-3.41-7.85-3.41-3.3 0-6.02 1.2-8.17 3.6-2.15 2.4-3.21 5.66-3.17 9.79m10.42-26.95c-8.11 0-14.92 2.92-20.24 8.68-5.28 5.72-7.95 13.65-7.95 23.59 0 8.32 2.03 15.33 6.03 20.85 5.15 7.01 13.11 10.56 23.67 10.56 6.66 0 12.32-1.58 16.81-4.68 4.51-3.12 7.85-7.69 9.92-13.59l.79-2.24-2.34-.39-15.06-2.53-1.76-.3-.49 1.71c-.71 2.45-1.71 4.21-2.98 5.23-1.26 1.01-2.8 1.5-4.72 1.5-2.93 0-5.3-1.02-7.25-3.1-1.62-1.73-2.62-4.11-2.97-7.09h37.68l.04-1.96c.22-12.04-2.31-21.17-7.54-27.14-5.29-6.04-12.56-9.1-21.62-9.1zm-8.35 24.95c.25-2.68 1.11-4.8 2.58-6.45 1.77-1.98 3.96-2.94 6.68-2.94 2.53 0 4.62.91 6.4 2.79 1.46 1.54 2.36 3.76 2.7 6.6H224.5zM293.93 25.48c6.95 0 12.48 1.5 16.59 4.49 4.1 2.99 7.05 7.56 8.85 13.69l-14.89 2.69c-.5-2.98-1.64-5.22-3.42-6.72-1.77-1.51-4.08-2.26-6.91-2.26-3.76 0-6.77 1.3-9.01 3.9-2.24 2.6-3.36 6.95-3.36 13.04 0 6.78 1.14 11.56 3.42 14.36 2.28 2.8 5.33 4.19 9.17 4.19 2.87 0 5.21-.81 7.04-2.45 1.83-1.63 3.12-4.44 3.87-8.42l14.84 2.53c-1.54 6.81-4.5 11.96-8.87 15.43-4.37 3.48-10.24 5.22-17.58 5.22-8.35 0-15.01-2.63-19.98-7.9-4.97-5.27-7.45-12.56-7.45-21.89s2.49-16.77 7.48-22.02c4.98-5.25 11.72-7.88 20.22-7.88m-.01-2c-9.03 0-16.32 2.86-21.67 8.5-5.32 5.61-8.02 13.48-8.02 23.4s2.69 17.63 7.99 23.26c5.33 5.66 12.54 8.53 21.43 8.53 7.78 0 14.11-1.9 18.83-5.65 4.72-3.75 7.94-9.32 9.58-16.56l.47-2.06-2.08-.35-14.84-2.53-1.94-.33-.37 1.93c-.67 3.52-1.75 5.97-3.24 7.29-1.46 1.31-3.33 1.94-5.71 1.94-3.23 0-5.72-1.13-7.62-3.46-1.97-2.42-2.97-6.82-2.97-13.1 0-5.57.97-9.52 2.88-11.73 1.86-2.16 4.31-3.2 7.49-3.2 2.36 0 4.2.58 5.62 1.78 1.42 1.2 2.31 3.01 2.74 5.53l.34 1.99 1.99-.36 14.89-2.69 2.19-.4-.62-2.13c-1.91-6.54-5.14-11.49-9.59-14.74-4.44-3.23-10.41-4.87-17.77-4.87z"/><path class="c" d="M343.92 6.61v20.17h10.32v12.05h-10.32v23.02c0 4.66.1 7.38.3 8.15.2.77.65 1.41 1.34 1.91.7.5 1.55.75 2.55.75 1.4 0 3.42-.48 6.08-1.45l1.29 11.72c-3.51 1.51-7.49 2.26-11.94 2.26-2.72 0-5.18-.46-7.37-1.37-2.19-.91-3.79-2.1-4.81-3.55-1.02-1.45-1.73-3.41-2.12-5.89-.32-1.76-.48-5.3-.48-10.65v-24.9h-6.94V26.78h6.94V15.43l15.16-8.82m2-3.48l-3.01 1.75-15.16 8.82-.99.58v10.5h-6.94v16.05h6.94v22.9c0 5.52.17 9.12.52 11.01.43 2.72 1.26 4.98 2.46 6.68 1.24 1.76 3.15 3.19 5.68 4.24 2.42 1.01 5.16 1.53 8.14 1.53 4.7 0 8.98-.81 12.73-2.42l1.36-.58-.16-1.47L356.2 71l-.28-2.53-2.39.87c-3.02 1.1-4.6 1.33-5.39 1.33-.58 0-1.03-.12-1.39-.38-.41-.29-.52-.57-.57-.78-.06-.24-.24-1.48-.24-7.66V40.83h10.32V24.78h-10.32V3.13z"/><path class="c" d="M382.79 25.48c7.82 0 13.62 1.27 17.42 3.82 3.8 2.55 6.42 6.31 7.85 11.29l-14.25 2.63c-.61-2.22-1.77-3.93-3.47-5.11-1.7-1.18-4.13-1.77-7.28-1.77-3.98 0-6.83.56-8.55 1.67-1.15.79-1.72 1.81-1.72 3.07 0 1.08.5 1.99 1.51 2.74 1.36 1 6.07 2.42 14.12 4.25 8.05 1.83 13.67 4.07 16.86 6.72 3.15 2.69 4.73 6.44 4.73 11.24 0 5.23-2.19 9.73-6.56 13.5-4.37 3.76-10.84 5.65-19.41 5.65-7.78 0-13.94-1.58-18.47-4.73-4.53-3.15-7.5-7.44-8.9-12.85l15.16-2.31c.65 2.94 1.95 5.17 3.93 6.69 1.97 1.52 4.73 2.29 8.28 2.29 3.91 0 6.85-.72 8.82-2.15 1.33-1 1.99-2.35 1.99-4.03 0-1.15-.36-2.1-1.08-2.85-.75-.72-2.44-1.38-5.05-1.99-12.19-2.69-19.91-5.14-23.18-7.37-4.52-3.08-6.78-7.37-6.78-12.85 0-4.95 1.95-9.11 5.86-12.48 3.91-3.37 9.97-5.05 18.18-5.05m-.01-2.02c-8.66 0-15.22 1.86-19.48 5.54-4.35 3.75-6.55 8.46-6.55 13.99 0 6.16 2.57 11.04 7.65 14.5 3.5 2.39 11.31 4.9 23.87 7.67 3.02.7 3.88 1.29 4.08 1.46.33.37.48.81.48 1.43 0 1.06-.37 1.81-1.2 2.44-1.58 1.15-4.16 1.75-7.61 1.75-3.08 0-5.46-.63-7.06-1.87-1.6-1.24-2.65-3.05-3.2-5.54l-.4-1.83-1.85.28-15.16 2.31-2.19.33.55 2.14c1.51 5.86 4.78 10.57 9.69 13.99 4.85 3.38 11.45 5.09 19.61 5.09 9.02 0 15.99-2.06 20.72-6.13 4.81-4.14 7.26-9.19 7.26-15.01 0-5.39-1.83-9.69-5.43-12.76-3.49-2.9-9.28-5.23-17.71-7.15-10.53-2.39-12.86-3.53-13.37-3.91-.61-.46-.69-.83-.69-1.13 0-.43.1-.89.83-1.4.96-.61 3.03-1.33 7.44-1.33 2.72 0 4.79.48 6.14 1.42 1.32.92 2.2 2.22 2.68 4l.49 1.77 1.81-.33 14.25-2.63 2.17-.4-.61-2.12c-1.56-5.42-4.47-9.6-8.66-12.4-4.18-2.8-10.24-4.16-18.54-4.16z"/></g></svg>