<?xml version="1.0" encoding="UTF-8"?>
<svg id="a" data-name="图层 1" xmlns="http://www.w3.org/2000/svg" viewBox="0 0 48 48">
  <defs>
    <style>
      .b {
      fill: none;
      }

      .b, .c {
      stroke-width: 0px;
      }

      .c {
      fill: #000;
      }
    </style>
  </defs>
  <path class="c"
    d="M.46,24.18c.34-.85.98-1.26,1.88-1.27.21,0,.43,0,.64,0,12.58,0,25.16,0,37.74,0,.21,0,.42,0,.66,0,0-.26-.19-.35-.31-.47-3.72-3.72-7.45-7.45-11.18-11.17-.43-.43-.73-.9-.69-1.53.03-.66.35-1.14.92-1.43.57-.29,1.16-.26,1.7.1.23.15.43.34.62.54,4.72,4.72,9.44,9.43,14.16,14.15.42.42.8.84.81,1.48,0,.43-.1.82-.38,1.15-.14.16-.28.32-.43.47-4.72,4.72-9.44,9.44-14.15,14.16-.43.43-.87.81-1.53.81-.67,0-1.19-.3-1.5-.88-.31-.58-.3-1.18.07-1.74.15-.23.34-.43.54-.62,3.68-3.68,7.36-7.36,11.04-11.05.12-.12.3-.22.33-.43-.2-.12-.42-.06-.62-.06-12.61,0-25.22,0-37.84,0-.18,0-.37,0-.55,0-.91-.02-1.58-.39-1.91-1.28v-.92Z" />
  <rect class="b" x=".37" y="1" width="47" height="47" />
</svg>