<svg id="a" data-name="图层 1" xmlns="http://www.w3.org/2000/svg" viewBox="0 0 48 48"><defs><style>.b{fill:#000;stroke-width:0}</style></defs><path class="b" d="M23.98 7.52c5.02 0 10.05.04 15.07-.02 1.99-.02 3.2 1.25 3.2 3.2V31.21c0 .42-.02.84-.12 1.25-.32 1.4-1.35 2.19-2.86 2.2H28.48c-.2 0-.29.09-.27.31.12 1.19.23 2.38.33 3.58.02.29.16.39.44.39h1.75c.21 0 .42.02.62.08.33.1.5.35.51.69 0 .32-.16.56-.45.69-.24.11-.51.1-.77.1H17.08c-.62-.03-.99-.34-.98-.79.01-.44.37-.73.96-.75.5-.02 1 0 1.51 0 .86 0 .85 0 .91-.84.07-.92.16-1.84.25-2.75.07-.62.03-.68-.58-.68H8.89c-2.03 0-3.14-1.1-3.14-3.11V10.63c0-.6.1-1.16.39-1.68.54-.97 1.39-1.4 2.49-1.4h15.36zm-.01 21.59h16.19c.45 0 .62-.11.62-.59-.02-5.33-.02-10.66 0-15.99 0-.5-.15-.63-.64-.63-10.74.01-21.48 0-32.23 0-.66 0-.67 0-.67.69v15.8q0 .71.74.71h15.99zm.09 1.4H8.5q-1.37 0-1.25 1.39c.06.8.48 1.2 1.29 1.2h30.87c.79 0 1.25-.43 1.34-1.23.02-.21.01-.42.01-.63q0-.73-.75-.73H24.06zm-.15-20.09h16.18c.6 0 .72-.19.46-.73-.26-.54-.7-.69-1.27-.69-10.2.01-20.41 0-30.61 0h-.29c-.4 0-.68.19-.89.5-.16.23-.3.5-.17.77.12.25.41.13.62.13h15.99zm.02 28.5h2.72c.24 0 .42-.05.39-.35-.11-1.16-.22-2.32-.31-3.48-.03-.38-.2-.51-.59-.51-1.39.02-2.78 0-4.18 0-.72 0-.72 0-.78.72-.09 1.06-.18 2.13-.28 3.19-.03.34.11.43.41.42h2.62z"/><path class="b" d="M20.73 18.97c-.01.39-.24.62-.57.78-.86.42-1.72.83-2.58 1.26-.12.06-.33.08-.32.25.01.16.21.18.33.24.85.43 1.71.85 2.56 1.29.51.26.69.66.48 1.05-.21.4-.64.51-1.13.26-1.41-.7-2.81-1.41-4.22-2.11-.31-.15-.55-.37-.56-.73 0-.36.23-.59.54-.74 1.42-.71 2.84-1.42 4.27-2.12.61-.3 1.17 0 1.18.57zM27.92 18.25c.2 0 .38.08.55.17 1.39.69 2.79 1.38 4.18 2.07.3.15.57.34.57.72 0 .37-.23.59-.54.74-1.44.71-2.87 1.43-4.31 2.13-.5.24-.92.1-1.11-.32-.17-.39 0-.75.5-1 .87-.43 1.75-.85 2.62-1.28.11-.05.28-.08.28-.23 0-.15-.17-.17-.28-.23-.91-.47-1.82-.93-2.72-1.4-.35-.18-.49-.47-.38-.85.09-.31.32-.48.64-.51zM22.23 26.06c-.54 0-.85-.5-.61-1.08.47-1.14.95-2.27 1.43-3.4.59-1.4 1.18-2.81 1.78-4.21.06-.15.12-.31.22-.43.24-.31.56-.38.91-.22.33.15.47.44.4.8-.04.19-.12.37-.2.55-1.04 2.43-2.08 4.85-3.12 7.28-.16.37-.33.72-.81.72z"/></svg>