<svg id="a" data-name="图层 1" xmlns="http://www.w3.org/2000/svg" viewBox="0 0 48 48"><defs><style>.b{fill:#000;stroke-width:0}</style></defs><path class="b" d="M5.5 24.49c.55-1.12 1.15-1.44 2.34-1.21.2.04.32-.05.44-.17 1.69-1.69 3.39-3.39 5.08-5.07.18-.18.21-.33.09-.57-.58-1.2-.36-2.55.56-3.46.91-.91 2.26-1.14 3.46-.55.24.12.39.08.57-.1 1.69-1.7 3.38-3.39 5.07-5.08.12-.12.21-.24.17-.44-.24-1.18.1-1.81 1.21-2.33h1.01c1.08.51 1.52 1.34 1.22 2.3-.29.95-1.15 1.39-2.31 1.17-.2-.04-.29.06-.4.17-.84.83-1.67 1.66-2.5 2.5-.09.09-.15.2-.22.3.11-.03.23-.06.34-.1 4.88-1.79 9.63-1.48 14.23.93.61.32 1.19.69 1.74 1.09.31.22.49.2.71-.08.16-.2.35-.36.53-.54.33-.33.67-.35 1.01-.01l2.4 2.4c.33.33.32.69 0 1.02-.8.8-1.59 1.6-2.4 2.4-.32.32-.67.31-.99 0-.82-.8-1.63-1.6-2.43-2.42-.51-.52-.13-.9.27-1.23.34-.28.34-.46-.05-.7-5.75-3.6-11.55-3.69-17.41-.26-.31.18-.42.34-.28.73.42 1.16.16 2.23-.71 3.09-.9.89-2 1.11-3.2.68-.27-.1-.4-.06-.55.17-3.48 5.3-3.38 12.42.24 17.62.22.31.34.29.59.04.74-.77.88-.76 1.62 0 .67.67 1.34 1.35 2.01 2.02.39.39.42.76.01 1.15-.76.75-1.52 1.51-2.27 2.27-.39.39-.76.4-1.15 0-.74-.76-1.49-1.51-2.25-2.25-.41-.4-.46-.82 0-1.16.76-.54.67-.99.18-1.76-3.09-4.85-3.61-10.02-1.64-15.43.04-.1.05-.22.08-.33-.08.06-.17.12-.25.2-.84.84-1.69 1.68-2.53 2.52-.11.11-.22.2-.18.4.21 1.23-.21 2.05-1.17 2.34-.95.29-1.79-.16-2.3-1.23v-1.01zm10.63-10.11c-1 0-1.74.76-1.74 1.76 0 .99.77 1.75 1.76 1.75.98 0 1.75-.79 1.75-1.77s-.79-1.74-1.77-1.74zm23.26-.1c-.29.36-.44.58-.62.76-1.06 1.07-1.04 1.04 0 2.16.47.5.72.53 1.2 0 1.04-1.12 1.06-1.09-.02-2.18-.18-.19-.32-.42-.56-.75zm-23.24 23.2c-.3.39-.45.62-.64.82-1.03 1.04-.99 1-.02 2.08.51.56.79.56 1.3 0 .96-1.07 1-1.03-.02-2.06-.2-.2-.34-.46-.62-.83zm9.41-30.22c-.02-.35-.24-.56-.58-.56-.32 0-.53.22-.54.56 0 .35.22.55.54.56.34.01.56-.19.58-.57zM7.29 25.52c.33-.03.54-.21.54-.53 0-.34-.21-.56-.57-.55-.31 0-.49.18-.5.49 0 .36.22.53.54.59z"/><path class="b" d="M42.49 32.9c.01.24-.13.41-.28.56l-8.73 8.73c-.48.48-.89.4-1.2-.2-.42-.83-.89-1.63-1.23-2.49-.34-.86-.91-1.31-1.77-1.6-1.65-.56-3.26-1.24-4.89-1.85a.997.997 0 0 1-.61-.61c-1.94-4.87-3.89-9.74-5.84-14.6-.15-.37-.11-.66.18-.94.6-.59 1.2-1.19 1.79-1.79.26-.26.53-.33.88-.19 4.89 1.96 9.78 3.91 14.67 5.87.3.12.49.32.6.62.72 1.9 1.46 3.79 2.18 5.69.1.27.26.43.51.56 1.1.54 2.2 1.09 3.29 1.64.25.13.44.29.44.6zm-12.82.2c-2.6 0-4.27-2.79-3.01-5.07.15-.27.12-.4-.09-.61-2.27-2.26-4.53-4.52-6.8-6.78-.11-.11-.18-.37-.42-.22-.23.14-.11.34-.04.51 1.82 4.54 3.64 9.09 5.45 13.63.1.25.24.39.49.48 1.73.66 3.46 1.32 5.19 1.99.24.09.39.06.57-.12 1.97-1.98 3.94-3.95 5.92-5.92.18-.18.22-.33.13-.57-.68-1.74-1.34-3.48-2.01-5.22-.08-.2-.18-.35-.4-.43-4.59-1.83-9.18-3.67-13.77-5.5-.17-.07-.32-.13-.45.06-.15.21.06.28.16.37 2.28 2.28 4.56 4.56 6.83 6.85.2.2.34.25.61.1 1.26-.72 2.81-.52 3.93.45 1.05.91 1.43 2.44.94 3.75a3.416 3.416 0 0 1-3.23 2.24zm11.12-.01c-.11-.07-.2-.13-.29-.18-.71-.36-1.42-.7-2.12-1.07-.26-.14-.42-.1-.63.1-1.94 1.95-3.89 3.9-5.84 5.84-.17.17-.21.31-.1.53.37.71.74 1.43 1.08 2.16.14.29.25.32.48.08 2.39-2.4 4.79-4.8 7.18-7.19.07-.07.14-.16.23-.27zm-8.94-3.41c0-1.24-.95-2.21-2.18-2.21-1.21 0-2.2.99-2.2 2.21 0 1.21.96 2.17 2.18 2.18 1.25 0 2.2-.93 2.2-2.17z"/></svg>